<ttFont>
          <CharString index="0">
            47 callgsubr
            47 -44 -61 18 -83 14 callsubr
            -47 44 61 -18 83 hhcurveto
            83 61 18 47 44 hvcurveto
            47 50 25 80 85 vvcurveto
            -351 -173 rmoveto
            -21 32 -11 57 84 vvcurveto
            84 11 57 21 32 vhcurveto
            27 18 30 13 43 hhcurveto
            43 30 -13 -27 18 hvcurveto
            21 -32 11 -57 -84 vvcurveto
            -84 -11 -57 -21 -32 vhcurveto
            -27 -18 -30 -13 -43 hhcurveto
            -43 -30 13 27 -18 hvcurveto
            return
          </CharString>
          <CharString index="1">
            518 256 rmoveto
            3 30 0 10 15 vvcurveto
            149 -91 90 -145 -158 -89 -107 -186 -59 9 -51 20 -41 vhcurveto
            -76 37 72 -40 98 hhcurveto
            116 78 53 67 47 hvcurveto
            -54 42 rlineto
            -54 -41 -62 -26 -59 hhcurveto
            -53 -36 25 46 -21 hvcurveto
            -13 29 -7 37 47 vvcurveto
            114 225 rmoveto
            67 40 -49 -86 hvcurveto
            -26 -220 vlineto
            109 7 36 52 70 hhcurveto
            return
          </CharString>
          <CharString index="2">
            19 8 26 11 28 hhcurveto
            38 24 -20 -31 18 hvcurveto
            15 -26 8 -31 6 -66 rrcurveto
            -218 -34 -97 -55 -110 vvcurveto
            196 -55 rmoveto
            -31 -32 22 58 68 43 32 138 30 hvcurveto
            2 -18 2 -21 -16 vvcurveto
            -48 -17 -35 -14 -19 vhcurveto
            -34 -25 -38 -19 -28 hhcurveto
            return
          </CharString>
          <CharString index="3">
            140 vstem
            566 382 rmoveto
            46 36 30 58 56 vvcurveto
            56 -30 60 -48 34 vhcurveto
            27 -38 -47 11 -64 hhcurveto
            -374 41 callsubr
            309 58 vlineto
            -95 21 rlineto
            236 96 vlineto
            131 -257 rlineto
            -58 236 58 vlineto
            -89 19 -124 210 -14 23 -16 17 -7 7 rlinecurve
            46 11 28 18 24 19 rrcurveto
            -311 6 rmoveto
            259 109 vlineto
            42 29 -8 -18 23 hvcurveto
            27 -22 17 -33 -40 vvcurveto
            -44 -16 -40 -27 -23 vhcurveto
            -20 -23 -32 -11 -36 hhcurveto
            return
          </CharString>
          <CharString index="4">
            26 -24 -33 12 -47 hhcurveto
            -48 -35 -12 -26 -23 hvcurveto
            -23 -26 -13 -44 -61 vvcurveto
            194 2 rmoveto
            -41 -6 -32 -8 -18 vhcurveto
            -20 -9 -13 -7 -17 hhcurveto
            -20 -11 10 17 -8 hvcurveto
            -11 24 -3 34 34 vvcurveto
            27 2 40 12 25 vhcurveto
            20 10 15 7 15 hhcurveto
            20 13 -14 -14 6 hvcurveto
            8 -19 5 -35 -38 vvcurveto
            return
          </CharString>
          <CharString index="5">
            -44 -21 -21 -34 -23 14 -22 25 7 8 2 3 2 hvcurveto
            3 -2 -2 -20 -16 -20 -34 -27 rlinecurve
            30 -32 rlineto
            71 37 29 42 52 vvcurveto
            40 -28 25 -44 vhcurveto
            endchar
          </CharString>
          <CharString index="6">
            125 79 rmoveto
            -84 -66 callgsubr
            263 58 vlineto
            -84 21 rlineto
            495 vlineto
            370 -574 rlineto
            111 641 hlineto
            -41 callgsubr
            -263 -58 vlineto
            -42 callsubr
            -449 vlineto
            -334 528 rlineto
            -231 53 callsubr
            return
          </CharString>
          <CharString index="7">
            529 465 rmoveto
            61 19 rlineto
            56 -220 -56 vlineto
            58 -19 -111 -347 rlineto
            -4 hlineto
            -123 347 71 19 -8 56 rlineto
            -254 -56 hlineto
            60 -19 201 -472 -12 -37 rlineto
            -83 -33 -21 -9 -27 hhcurveto
            -10 -16 4 13 -3 hvcurveto
            33 13 32 13 hvcurveto
            return
          </CharString>
          <CharString index="8">
            360 363 rmoveto
            -148 278 -41 callgsubr
            -306 -58 vlineto
            83 -21 207 -375 rlineto
            -187 vlineto
            -94 -66 callgsubr
            318 58 vlineto
            -94 21 rlineto
            203 vlineto
            196 359 82 -58 callgsubr
            -257 -58 vlineto
            81 -21 rlineto
            return
          </CharString>
          <CharString index="9">
            300 550 rmoveto
            -165 -98 -112 -173 -63 13 -57 23 -43 hvcurveto
            -73 39 68 -39 99 hhcurveto
            93 85 34 86 62 hvcurveto
            -54 42 rlineto
            -55 -40 -68 -25 -54 hhcurveto
            -52 -32 23 39 -21 hvcurveto
            -16 30 -10 37 72 vvcurveto
            158 49 53 84 46 41 -16 -24 18 vhcurveto
            -33 -10 -17 -26 -33 vvcurveto
            return
          </CharString>
          <CharString index="10">
            rmoveto
            -45 28 -28 45 46 28 28 45 45 -29 29 -45 -45 -28 -28 -46 vhcurveto
            230 hmoveto
            -45 28 -28 45 46 28 28 45 45 -29 29 -45 -45 -28 -28 -46 vhcurveto
            endchar
          </CharString>
          <CharString index="11">
            94 -70 callgsubr
            -94 -66 callgsubr
            return
          </CharString>
          <CharString index="12">
            -48 -32 -33 -47 -45 24 -29 31 11 6 58 callgsubr
            4 -3 -3 -28 -38 -36 -48 -40 rlinecurve
            31 -36 rlineto
            95 54 46 67 72 vvcurveto
            60 -33 38 -51 vhcurveto
            return
          </CharString>
          <CharString index="13">
            -4 callgsubr
            -75 callgsubr
            318 58 vlineto
            -94 21 rlineto
            return
          </CharString>
          <CharString index="14">
            -48 29 -29 48 48 30 30 47 47 -31 31 -47 -47 -30 -30 -48 vhcurveto
            return
          </CharString>
          <CharString index="15">
            rmoveto
            -125 hlineto
            -118 -121 rlineto
            83 hlineto
            98 61 98 -61 rlineto
            83 hlineto
            endchar
          </CharString>
          <CharString index="16">
            -210 rmoveto
            68 33 22 34 23 hvcurveto
            -24 35 rlineto
            -13 -16 -22 -5 -21 hhcurveto
            -31 -19 15 24 return
          </CharString>
          <CharString index="17">
            33 -33 19 -32 -43 -35 -33 -54 -79 76 -51 127 136 105 59 104 105 -109 34 -107 31 vhcurveto
            -58 17 -38 22 53 vvcurveto
            47 31 27 62 46 32 -15 -25 18 vhcurveto
            return
          </CharString>
          <CharString index="18">
            38 -42 -54 18 -65 hhcurveto
            -133 -86 -74 -129 -117 71 -45 125 -52 hvcurveto
            107 -44 73 -31 -82 vvcurveto
            -67 -49 -31 -76 -95 -60 49 134 -8 vhcurveto
            -91 hlineto
            return
          </CharString>
          <CharString index="19">
            5 475 rmoveto
            97 -361 hlineto
            -50 2 -21 6 -16 vhcurveto
            -25 9 19 -12 30 hhcurveto
            35 61 11 24 77 hvcurveto
            44 -70 vlineto
            -24 -9 4 8 -4 hvcurveto
            -4 10 -1 12 45 vvcurveto
            327 -55 callsubr
            return
          </CharString>
          <CharString index="20">
            rmoveto
            -83 hlineto
            -98 -61 -98 61 rlineto
            -83 hlineto
            118 -121 rlineto
            125 hlineto
            endchar
          </CharString>
          <CharString index="21">
            -21 -10 -15 -24 -22 vvcurveto
            -28 25 -24 43 43 26 25 46 81 -79 57 -122 -128 -73 -63 -96 -102 83 -44 82 -25 vhcurveto
            return
          </CharString>
          <CharString index="22">
            322 -11 rmoveto
            137 109 68 134 98 -59 52 -168 76 hvcurveto
            -112 50 -37 18 70 vvcurveto
            70 36 37 77 97 46 -59 -125 vhcurveto
            return
          </CharString>
          <CharString index="23">
            rmoveto
            44 161 35 100 vvcurveto
            53 -41 34 -81 -76 -40 -34 -52 -25 12 -22 35 29 12 14 19 19 -9 13 -19 vhcurveto
            24 3 35 2 10 hhcurveto
            15 32 -6 -28 hvcurveto
            -90 -160 -39 -94 vvcurveto
            -30 247 110 -56 vlineto
            -10 -47 rlineto
            endchar
          </CharString>
          <CharString index="24">
            -22 132 rlineto
            -174 -41 hlineto
            77 -19 rlineto
            -405 vlineto
            -77 -61 callgsubr
            312 19 callsubr
            157 vlineto
            69 14 43 16 46 vhcurveto
            28 10 34 49 23 hhcurveto
            return
          </CharString>
          <CharString index="25">
            hstem
            41 -7 callsubr
            vstem
            729 368 rmoveto
            -36 callsubr
            -1 -1 1 1 hvcurveto
            58 82 rlineto
            -101 hlineto
            -25 -35 rlineto
            24 -49 -58 11 -70 -3 callgsubr
            -111 34 -96 53 -61 vhcurveto
            -67 -94 rlineto
            101 hlineto
            29 41 rlineto
            -28 49 63 -13 79 hhcurveto
            112 78 28 59 57 hvcurveto
            69 72 31 108 111 vvcurveto
            -145 -14 rmoveto
            -106 -20 -75 -34 -47 vhcurveto
            -44 -32 -46 -22 -64 hhcurveto
            -62 -43 19 38 -31 hvcurveto
            302 424 rlineto
            19 -47 11 -63 -77 vvcurveto
            -398 17 rmoveto
            99 19 76 37 49 vhcurveto
            41 31 45 25 63 hhcurveto
            49 42 -15 -31 33 hvcurveto
            -295 -416 rlineto
            -16 46 -8 58 68 vvcurveto
            return
          </CharString>
          <CharString index="26">
            495 238 -27 callsubr
            -17 -95 rlineto
            -137 240 258 hlineto
            return
          </CharString>
          <CharString index="27">
            -20 23 callsubr
            309 130 vstem
            694 6 callgsubr
            -41 callgsubr
            -298 -58 vlineto
            -42 callsubr
            -235 -309 235 vlineto
            -41 callgsubr
            -298 -58 vlineto
            84 -70 callgsubr
            -84 -66 callgsubr
            298 58 vlineto
            -84 21 rlineto
            254 309 -254 vlineto
            -84 -66 callgsubr
            298 58 vlineto
            -84 21 rlineto
            return
          </CharString>
          <CharString index="28">
            -77 -61 callgsubr
            281 56 -48 callgsubr
            465 -3 callsubr
            vlineto
            return
          </CharString>
          <CharString index="29">
            12 callsubr
            -14 13 44 84 rlineto
            -94 hlineto
            -23 -45 rlineto
            9 -30 -33 4 -38 14 callsubr
            8 -9 8 -7 10 -7 -48 -92 rcurveline
            94 hlineto
            30 59 rlineto
            -6 26 28 -3 32 hhcurveto
            83 61 18 47 44 hvcurveto
            47 50 25 80 85 vvcurveto
            -383 hmoveto
            84 11 57 21 32 vhcurveto
            27 18 30 13 43 hhcurveto
            26 21 -5 -10 17 hvcurveto
            -173 -333 rlineto
            -10 33 -4 45 57 vvcurveto
            246 hmoveto
            -84 -11 -57 -21 -32 vhcurveto
            -27 -18 -30 -13 -43 hhcurveto
            -20 -17 2 6 -14 hvcurveto
            165 317 rlineto
            6 -30 3 -37 -45 vvcurveto
            return
          </CharString>
          <CharString index="30">
            rmoveto
            55 -44 -16 9 -38 hhcurveto
            -32 -15 -19 -20 -27 13 -9 62 -37 hvcurveto
            47 -28 rlineto
            83 hlineto
            endchar
          </CharString>
          <CharString index="31">
            -4 callgsubr
            104 -58 callgsubr
            -328 -58 vlineto
            -96 callsubr
            585 vlineto
            return
          </CharString>
          <CharString index="32">
            19 -10 16 -35 -25 -16 -18 -28 -51 41 -33 62 85 57 38 56 42 -25 26 -48 9 vhcurveto
            4 vlineto
            41 7 27 27 40 vvcurveto
            return
          </CharString>
          <CharString index="33">
            -28 -148 rlineto
            -275 257 137 hlineto
            17 -94 rlineto
            return
          </CharString>
          <CharString index="34">
            0 75 -75 223 109 75 101 212 -73 73 return
          </CharString>
          <CharString index="35">
            330 467 rmoveto
            -4 -14 -1 -4 -9 vvcurveto
            -29 20 -30 54 44 25 39 40 54 -39 36 -52 -63 -55 -51 -91 -30 vhcurveto
            -4 hlineto
            return
          </CharString>
          <CharString index="36">
            45 callgsubr
            230 -20 hstemhm
            19 204 -127 -28 callgsubr
            hintmask 11110100
            442 -16 callgsubr
            -19 68 -41 43 vhcurveto
            30 -29 -38 14 -57 hhcurveto
            -68 -60 -40 -64 -34 hvcurveto
            334 -3 callsubr
            vlineto
            hintmask 11101100
            77 -19 rlineto
            -630 vlineto
            hintmask 11110100
            -23 callgsubr
            endchar
          </CharString>
          <CharString index="37">
            -47 -50 -25 -80 -85 vvcurveto
            -85 25 -80 47 -50 vhcurveto
            return
          </CharString>
          <CharString index="38">
            528 -6 rmoveto
            88 -57 43 -109 vhcurveto
            -116 hlineto
            -67 -21 7 24 30 34 16 52 7 hvcurveto
            -1 13 13 -1 14 hhcurveto
            return
          </CharString>
          <CharString index="39">
            -10 rmoveto
            84 hlineto
            386 740 rlineto
            -84 hlineto
            return
          </CharString>
          <CharString index="40">
            75 rmoveto
            -65 callsubr
            3 return
          </CharString>
          <CharString index="41">
            -108 98 -73 143 142 94 91 138 vhcurveto
            423 vlineto
            79 -58 callgsubr
            -308 -58 vlineto
            99 -21 rlineto
            return
          </CharString>
          <CharString index="42">
            -77 -71 callgsubr
            -67 19 rlineto
            237 vlineto
            return
          </CharString>
          <CharString index="43">
            48 27 29 42 42 -28 30 -47 -47 -27 -29 -43 return
          </CharString>
          <CharString index="44">
            hstemhm
            hintmask 10100000
            502 75 rmoveto
            -319 hlineto
            415 584 rlineto
            61 -539 -227 82 vlineto
            hintmask 10010000
            -59 callgsubr
            hintmask 01100000
            238 -87 vlineto
            return
          </CharString>
          <CharString index="45">
            rmoveto
            -209 hlineto
            312 398 rlineto
            71 -456 vlineto
            return
          </CharString>
          <CharString index="46">
            34 -22 18 -38 -44 -30 -34 -46 -51 51 -37 63 103 34 59 155 67 vhcurveto
            return
          </CharString>
          <CharString index="47">
            24 131 rlineto
            189 hlineto
            -313 -398 rlineto
            -71 473 vlineto
            return
          </CharString>
          <CharString index="48">
            -60 callgsubr
            187 return
          </CharString>
          <CharString index="49">
            22 6 28 15 23 hhcurveto
            39 28 -17 -34 20 hvcurveto
            14 -24 9 -29 6 -70 rrcurveto
            -225 -34 -90 -62 -104 vvcurveto
            535 364 rmoveto
            76 42 -49 -86 hvcurveto
            -26 -220 vlineto
            111 6 34 50 62 hhcurveto
            -328 -418 rmoveto
            -47 -27 27 48 76 42 25 139 33 hvcurveto
            2 -20 2 -15 -22 vvcurveto
            -43 -12 -30 -17 -24 vhcurveto
            -33 -24 -31 -22 -27 hhcurveto
            return
          </CharString>
          <CharString index="50">
            378 70 rmoveto
            -53 -47 16 36 -27 hvcurveto
            -43 58 -24 92 94 vvcurveto
            96 29 85 37 56 vhcurveto
            37 29 38 21 60 hhcurveto
            return
          </CharString>
          <CharString index="51">
            31 117 rmoveto
            -79 51 -48 84 104 62 41 68 41 vhcurveto
            7 hlineto
            -72 38 63 -37 89 hhcurveto
            120 62 48 64 54 hvcurveto
            -60 43 rlineto
            -45 -41 -52 -28 -63 hhcurveto
            -45 -42 20 51 -20 hvcurveto
            -13 31 -7 32 50 vvcurveto
            349 hlineto
            3 26 0 16 13 vvcurveto
            149 -78 90 -155 -76 -61 -35 -68 -27 vhcurveto
            -5 hlineto
            69 -19 -64 34 -79 hhcurveto
            return
          </CharString>
          <CharString index="52">
            128 65 -128 140 vlineto
            -114 -16 -12 -124 -98 -14 rlineto
            return
          </CharString>
          <CharString index="53">
            -45 -24 -20 -27 -39 vvcurveto
            -53 44 -31 72 88 44 37 55 36 -20 26 -48 25 vhcurveto
            return
          </CharString>
          <CharString index="54">
            -210 rmoveto
            78 65 30 54 42 -26 28 -74 hvcurveto
            -1 3 return
          </CharString>
          <CharString index="55">
            204 -127 127 return
          </CharString>
          <CharString index="56">
            rmoveto
            83 51 111 51 46 vhcurveto
            42 -236 -110 47 vlineto
            8 44 rlineto
            92 hlineto
            -55 -63 -42 -113 -42 vvcurveto
            -36 19 -8 19 35 11 26 20 vhcurveto
            endchar
          </CharString>
          <CharString index="57">
            -66 -10 82 184 64 161 69 return
          </CharString>
          <CharString index="58">
            rmoveto
            42 -30 30 -76 -75 -37 -31 -51 -32 14 -21 36 -24 vhcurveto
            return
          </CharString>
          <CharString index="59">
            -73 -10 74 285 201 -59 59 return
          </CharString>
          <CharString index="60">
            21 39 callgsubr
            return
          </CharString>
          <CharString index="61">
            -30 callgsubr
            hstemhm
            hintmask 10010000
            405 71 -62 callsubr
            hintmask 10100000
            -202 87 vlineto
            hintmask 10010000
            -60 callsubr
            hintmask 01100000
            207 -87 vlineto
            endchar
          </CharString>
          <CharString index="62">
            128 70 68 109 32 -6 27 -14 22 hvcurveto
            25 hlineto
            70 -8 rlineto
            return
          </CharString>
          <CharString index="63">
            53 -10 -20 -47 callgsubr
            return
          </CharString>
          <CharString index="64">
            -63 -68 -37 -107 -116 vvcurveto
            return
          </CharString>
          <CharString index="65">
            84 -21 rlineto
            return
          </CharString>
          <CharString index="66">
            -47 -184 65 -65 230 -13 92 82 60 222 61 10 -20 return
          </CharString>
          <CharString index="67">
            -34 18 -39 52 47 36 32 60 94 -90 62 -123 return
          </CharString>
          <CharString index="68">
            rmoveto
            -50 28 -28 50 48 31 30 48 48 -31 32 -48 -48 -30 -31 -49 vhcurveto
            endchar
          </CharString>
          <CharString index="69">
            101 -45 45 -45 100 hstemhm
            return
          </CharString>
          <CharString index="70">
            rmoveto
            99 19 76 37 49 vhcurveto
            41 31 45 25 63 hhcurveto
            62 51 -24 -50 35 hvcurveto
            35 -50 20 -78 -105 vvcurveto
            -106 -20 -75 -34 -47 vhcurveto
            -44 -32 -46 -22 -64 hhcurveto
            -70 -46 26 49 -32 hvcurveto
            -33 51 -21 81 104 vvcurveto
            endchar
          </CharString>
          <CharString index="71">
            105 -28 104 -69 69 vhcurveto
            return
          </CharString>
          <CharString index="72">
            35 19 18 29 34 vvcurveto
            -132 -109 rmoveto
            return
          </CharString>
          <CharString index="73">
            -291 21 -10 callsubr
            return
          </CharString>
          <CharString index="74">
            71 32 -37 -70 -75 -32 -40 -71 -59 -34 40 75 hvcurveto
            return
          </CharString>
          <CharString index="75">
            29 -139 rlineto
            82 212 -670 -58 hlineto
            75 -11 -320 -572 -102 -66 callgsubr
            277 58 vlineto
            -71 21 85 155 rlineto
            227 -155 hlineto
            -94 -66 callgsubr
            615 vlineto
            return
          </CharString>
          <CharString index="76">
            37 -22 callsubr
            return
          </CharString>
          <CharString index="77">
            76 -10 79 -79 248 246 246 -69 69 return
          </CharString>
          <CharString index="78">
            -22 -190 54 -54 168 562 -20 return
          </CharString>
          <CharString index="79">
            vvcurveto
            -51 37 -34 74 vhcurveto
            return
          </CharString>
          <CharString index="80">
            rmoveto
            264 -81 vlineto
            return
          </CharString>
          <CharString index="81">
            rmoveto
            -49 -24 -32 -28 -28 17 -24 25 13 4 58 callgsubr
            3 -2 -2 -10 -17 -31 -53 -35 rlinecurve
            38 -41 rlineto
            61 34 46 64 52 vvcurveto
            41 -24 34 -43 vhcurveto
            endchar
          </CharString>
          <CharString index="82">
            rmoveto
            47 -47 216 223 rlineto
            47 vlineto
            -214 217 -48 -36 132 -203 rlineto
            return
          </CharString>
          <CharString index="83">
            56 rmoveto
            53 callgsubr
            -53 17 -188 252 137 140 73 19 rlineto
            56 -245 -56 vlineto
            66 -19 -169 -182 rlineto
            497 23 callgsubr
            return
          </CharString>
          <CharString index="84">
            rmoveto
            -95 callsubr
            return
          </CharString>
          <CharString index="85">
            0 75 -75 238 255 227 -75 75 return
          </CharString>
          <CharString index="86">
            125 4 callsubr
            return
          </CharString>
          <CharString index="87">
            127 187 127 return
          </CharString>
          <CharString index="88">
            185 10 rlineto
            56 -48 callgsubr
            return
          </CharString>
          <CharString index="89">
            98 68 -60 -117 19 hvcurveto
            91 hlineto
            return
          </CharString>
          <CharString index="90">
            352 56 rmoveto
            53 callgsubr
            -53 17 -187 252 137 140 88 19 rlineto
            56 -245 -56 vlineto
            52 -18 -170 -184 rlineto
            498 return
          </CharString>
          <CharString index="91">
            -82 callgsubr
            -400 vlineto
            return
          </CharString>
          <CharString index="92">
            30 -10 35 callsubr
            return
          </CharString>
          <CharString index="93">
            279 95 -279 hlineto
            endchar
          </CharString>
          <CharString index="94">
            17 13 -13 -17 -16 -13 -12 -17 -16 -12 12 16 return
          </CharString>
          <CharString index="95">
            -34 -173 rlineto
            -242 hlineto
            return
          </CharString>
          <CharString index="96">
            -27 callgsubr
            65 -21 return
          </CharString>
          <CharString index="97">
            -21 540 -20 return
          </CharString>
          <CharString index="98">
            -45 -10 -34 -24 hvcurveto
            -42 19 -34 -66 vvcurveto
            endchar
          </CharString>
          <CharString index="99">
            118 -118 210 -148 102 return
          </CharString>
          <CharString index="100">
            145 398 145 return
          </CharString>
          <CharString index="101">
            -2 callgsubr
            -4 -56 return
          </CharString>
          <CharString index="102">
            236 -85 vlineto
            -20 return
          </CharString>
          <CharString index="103">
            899 rmoveto
            -58 -39 -24 -66 -52 -39 24 58 -2 vhcurveto
            -63 hlineto
            return
          </CharString>
          <CharString index="104">
            -204 -56 return
          </CharString>
          <CharString index="105">
            rmoveto
            -44 -21 -21 -34 -23 14 -22 25 7 8 2 3 2 hvcurveto
            3 -2 -2 -20 -16 -20 -34 -27 rlinecurve
            30 -32 rlineto
            return
          </CharString>
          <CharString index="106">
            32 -150 rlineto
            64 225 return
          </CharString>
          <CharString index="107">
            21 5 callsubr
            return
          </CharString>
          <CharString index="108">
            89 26 92 38 vvcurveto
            43 -16 28 -48 -49 -16 -29 -42 vhcurveto
            return
          </CharString>
          <CharString index="109">
            66 20 34 42 vvcurveto
            26 -11 32 -43 vhcurveto
            return
          </CharString>
          <CharString index="110">
            70 -55 218 -67 67 -67 82 return
          </CharString>
          <CharString index="111">
            130 336 145 return
          </CharString>
          <CharString index="112">
            58 callsubr
            -10 -20 return
          </CharString>
          <CharString index="113">
            52 callsubr
            167 53 21 callgsubr
            return
          </CharString>
          <CharString index="114">
            rmoveto
            1 -6 0 -4 -11 vvcurveto
            -84 -26 -25 -40 -13 -17 5 12 -3 vhcurveto
            14 1 8 13 15 vvcurveto
            return
          </CharString>
          <CharString index="115">
            -17 18 -14 21 34 12 16 31 36 -32 35 -66 -98 -46 -61 -115 -107 48 -50 95 vhcurveto
            return
          </CharString>
          <CharString index="116">
            -10 48 238 47 73 48 238 47 1 -20 hstemhm
            32 88 106 88 72 88 106 88 return
          </CharString>
          <CharString index="117">
            -35 callgsubr
            hstemhm
            return
          </CharString>
          <CharString index="118">
            80 -49 -21 484 246 -69 69 return
          </CharString>
          <CharString index="119">
            hstem
            -34 callgsubr
            vstem
            47 callgsubr
            return
          </CharString>
          <CharString index="120">
            -85 41 53 -26 68 hhcurveto
            70 54 22 43 37 hvcurveto
            45 52 27 81 87 vvcurveto
            -375 return
          </CharString>
          <CharString index="121">
            hhcurveto
            -83 -61 -18 -47 -44 hvcurveto
            -70 callsubr
            return
          </CharString>
          <CharString index="122">
            -43 26 -28 48 -64 callsubr
            vhcurveto
            endchar
          </CharString>
          <CharString index="123">
            107 60 -70 -107 18 hvcurveto
            91 return
          </CharString>
          <CharString index="124">
            720 rmoveto
            -225 64 vlineto
            return
          </CharString>
          <CharString index="125">
            0 50 callsubr
            return
          </CharString>
          <CharString index="126">
            56 vlineto
            -108 19 rlineto
            return
          </CharString>
          <CharString index="127">
            -48 26 -26 48 46 29 28 46 46 -29 30 -46 -46 -28 -29 -47 vhcurveto
            return
          </CharString>
          <CharString index="128">
            32 27 13 23 16 hvcurveto
            -87 63 rmoveto
            46 19 13 23 19 20 -13 -46 return
          </CharString>
          <CharString index="129">
            -17 -32 16 27 callgsubr
            return
          </CharString>
          <CharString index="130">
            hstem
            55 callgsubr
            return
          </CharString>
          <CharString index="131">
            -46 -113 vhcurveto
            -8 -187 vlineto
            endchar
          </CharString>
          <CharString index="132">
            hstemhm
            31 133 -106 142 149 115 220 131 return
          </CharString>
          <CharString index="133">
            hstemhm
            108 -28 callgsubr
            return
          </CharString>
          <CharString index="134">
            -21 315 73 259 73 return
          </CharString>
          <CharString index="135">
            266 11 -21 560 -20 return
          </CharString>
          <CharString index="136">
            -21 381 169 -10 -20 return
          </CharString>
          <CharString index="137">
            31 callsubr
            69 return
          </CharString>
          <CharString index="138">
            152 -10 70 601 return
          </CharString>
          <CharString index="139">
            -21 137 154 hstem
            return
          </CharString>
          <CharString index="140">
            -210 50 54 50 return
          </CharString>
          <CharString index="141">
            -21 328 -20 hstemhm
            71 142 -82 82 hintmask 11010000
            131 return
          </CharString>
          <CharString index="142">
            86 464 -20 return
          </CharString>
          <CharString index="143">
            -179 rmoveto
            127 hlineto
            -10 238 rlineto
            4 hlineto
            -46 return
          </CharString>
          <CharString index="144">
            48 callsubr
            endchar
          </CharString>
          <CharString index="145">
            108 130 return
          </CharString>
          <CharString index="146">
            143 -10 11 callsubr
            return
          </CharString>
          <CharString index="147">
            -198 -150 75 387 89 379 75 hstem
            return
          </CharString>
          <CharString index="148">
            -58 hlineto
            84 -70 callgsubr
            -84 -66 callgsubr
            return
          </CharString>
          <CharString index="149">
            228 -10 82 184 64 24 206 -59 59 return
          </CharString>
          <CharString index="150">
            rmoveto
            4 hlineto
            93 -291 rlineto
            -195 hlineto
            endchar
          </CharString>
          <CharString index="151">
            -76 -10 82 412 66 return
          </CharString>
          <CharString index="152">
            11 -21 740 -20 hstem
            return
          </CharString>
          <CharString index="153">
            -21 234 73 return
          </CharString>
          <CharString index="154">
            hlineto
            43 216 rlineto
            -87 hlineto
            -43 -216 rlineto
            return
          </CharString>
          <CharString index="155">
            86 vvcurveto
            268 -194 -56 vlineto
            67 -19 rlineto
            return
          </CharString>
          <CharString index="156">
            -45 -17 -14 -24 -23 -17 14 45 vhcurveto
            endchar
          </CharString>
          <CharString index="157">
            59 callsubr
            472 -20 return
          </CharString>
          <CharString index="158">
            -363 760 140 hstem
            return
          </CharString>
          <CharString index="159">
            21 59 callgsubr
            return
          </CharString>
          <CharString index="160">
            -58 hlineto
            -42 callsubr
            return
          </CharString>
          <CharString index="161">
            99 -99 181 return
          </CharString>
          <CharString index="162">
            rcurveline
            -32 callgsubr
            return
          </CharString>
          <CharString index="163">
            53 -47 callgsubr
            return
          </CharString>
          <CharString index="164">
            40 hstemhm
            52 87 -70 70 -70 85 77 80 return
          </CharString>
          <CharString index="165">
            -21 461 89 return
          </CharString>
          <CharString index="166">
            75 -75 248 return
          </CharString>
        <CharString name=".notdef">
          18 -240 85 970 85 hstem
          65 127 256 127 vstem
          65 -240 rmoveto
          510 1140 -510 hlineto
          127 -85 rmoveto
          256 -970 -256 hlineto
          endchar
        </CharString>
        <CharString name="A">
          -8 callgsubr
          hstem
          -101 callgsubr
          endchar
        </CharString>
        <CharString name="AE">
          24 callgsubr
          hstemhm
          504 130 hintmask 10110110
          15 callgsubr
          hintmask 10111010
          -32 callsubr
          hintmask 01111010
          -6 callgsubr
          hintmask 10111010
          -5 callgsubr
          endchar
        </CharString>
        <CharString name="AEacute">
          24 callgsubr
          40 140 hstemhm
          504 130 hintmask 10110111
          15 callgsubr
          hintmask 10111011
          -32 callsubr
          hintmask 01111011
          -6 callgsubr
          hintmask 10111011
          -5 callgsubr
          87 118 -100 callgsubr
          endchar
        </CharString>
        <CharString name="Aacute">
          -8 callgsubr
          50 140 hstem
          -101 callgsubr
          78 453 -100 callgsubr
          endchar
        </CharString>
        <CharString name="Abreve">
          106 21 46 callsubr
          592 -20 hstem
          209 63 198 63 vstem
          470 -4 callsubr
          -83 33 -63 60 -24 vhcurveto
          -233 -650 -13 callgsubr
          649 63 23 41 60 3 88 rlinecurve
          -190 -301 43 callsubr
        </CharString>
        <CharString name="Acircumflex">
          -8 callgsubr
          180 -20 hstem
          -101 callgsubr
          182 583 -92 callsubr
        </CharString>
        <CharString name="Adieresis">
          -8 callgsubr
          hstem
          -101 callgsubr
          endchar
        </CharString>
        <CharString name="Agrave">
          -8 callgsubr
          50 140 hstem
          -101 callgsubr
          123 529 -77 callsubr
        </CharString>
        <CharString name="Amacron">
          -8 callgsubr
          hstem
          -101 callgsubr
          endchar
        </CharString>
        <CharString name="Aogonek">
          106 -210 73 158 17 callgsubr
          hstem
          466 102 vstem
          577 -91 callsubr
          33 34 41 29 24 hvcurveto
          107 58 hlineto
          -80 21 -232 651 rlineto
          -123 hlineto
          -234 -651 -82 -66 callgsubr
          264 58 vlineto
          -83 21 52 155 rlineto
          244 hlineto
          51 -155 -82 -66 callgsubr
          123 vlineto
          -60 -38 -30 -42 -45 -28 callsubr
          -234 808 43 callsubr
        </CharString>
        <CharString name="Aring">
          -8 callgsubr
          40 44 62 44 hstem
          275 60 62 59 vstem
          -101 callgsubr
          30 517 -54 callgsubr
        </CharString>
        <CharString name="Aringacute">
          106 21 46 callsubr
          422 -20 82 44 -44 109 hstemhm
          271 60 -60 219 -97 59 hintmask 11110010
          271 759 rmoveto
          -27 12 -19 18 -12 vhcurveto
          -232 -622 -13 callgsubr
          625 rlineto
          hintmask 11110101
          16 12 10 19 24 vvcurveto
          20 -7 17 -12 12 vhcurveto
          hintmask 11101010
          45 29 12 9 18 vvcurveto
          17 -12 19 -25 vhcurveto
          hintmask 11110010
          -28 -16 -9 -56 -43 hvcurveto
          -54 -41 -26 -50 hvcurveto
          72 -186 rmoveto
          4 hlineto
          93 -266 rlineto
          -195 hlineto
          hintmask 11110101
          86 452 rmoveto
          20 10 12 20 20 12 -12 -20 -20 -12 -10 -20 -20 -10 10 20 vhcurveto
          endchar
        </CharString>
        <CharString name="Atilde">
          -8 callgsubr
          34 -38 callsubr
          hintmask 11101000
          -101 callgsubr
          -79 448 -40 callgsubr
          hintmask 11110000
          -96 callgsubr
          hintmask 11100100
          -80 callgsubr
        </CharString>
        <CharString name="B">
          75 0 75 264 73 235 73 hstemhm
          55 callgsubr
          235 134 -107 141 hintmask 11111000
          624 547 rmoveto
          45 -20 45 -35 32 vhcurveto
          35 -39 -52 16 -71 hhcurveto
          -366 41 callsubr
          329 vlineto
          99 48 8 19 37 hvcurveto
          hintmask 11110100
          60 30 44 69 75 vvcurveto
          hintmask 11111000
          97 -64 70 -104 22 vhcurveto
          4 vlineto
          77 10 57 66 77 vvcurveto
          -271 -208 rmoveto
          58 36 -10 -19 24 hvcurveto
          hintmask 11110100
          27 -21 19 -32 -46 vvcurveto
          -53 -25 -44 -36 -18 vhcurveto
          -15 -25 -35 -6 -61 hhcurveto
          -80 264 hlineto
          308 vmoveto
          99 hlineto
          46 33 -10 -20 20 hvcurveto
          hintmask 11111000
          20 -18 17 -30 -37 vvcurveto
          -37 -17 -30 -20 -18 vhcurveto
          -23 -22 -35 -12 -46 hhcurveto
          -95 hlineto
          endchar
        </CharString>
        <CharString name="C">
          -30 callsubr
          -10 -20 hstemhm
          43 142 hintmask 10010100
          377 661 rmoveto
          hintmask 10100100
          -18 callsubr
          hintmask 10001100
          -5 callsubr
          -63 rlineto
          hintmask 01010100
          -84 callgsubr
          hintmask 10010100
          -79 callgsubr
          endchar
        </CharString>
        <CharString name="CR">
          -352 endchar
        </CharString>
        <CharString name="Cacute">
          -30 callsubr
          -10 -20 60 140 hstemhm
          43 142 hintmask 10010110
          377 661 rmoveto
          hintmask 10100110
          -18 callsubr
          hintmask 10001110
          -5 callsubr
          -63 rlineto
          hintmask 01010110
          -84 callgsubr
          hintmask 10010110
          -79 callgsubr
          -32 99 -100 callgsubr
          endchar
        </CharString>
        <CharString name="Ccaron">
          -30 callsubr
          -69 229 -170 -20 hstemhm
          43 142 hintmask 10010010
          377 661 rmoveto
          hintmask 10100010
          -18 callsubr
          hintmask 10000110
          -5 callsubr
          -63 rlineto
          hintmask 01010010
          -84 callgsubr
          hintmask 10010010
          -79 callgsubr
          hintmask 10001010
          191 229 -87 callsubr
        </CharString>
        <CharString name="Ccedilla">
          76 33 callsubr
          47 78 415 246 -69 69 -10 -20 hstemhm
          43 142 200 102 hintmask 11101011
          344 -53 callsubr
          27 46 142 14 83 80 30 151 rlinecurve
          -85 hlineto
          -79 callgsubr
          hintmask 11110011
          -18 callsubr
          hintmask 11100111
          -5 callsubr
          -63 rlineto
          hintmask 11110011
          55 -51 -44 18 -83 hhcurveto
          -85 -64 -20 -43 -52 hvcurveto
          -80 -66 -46 -114 -134 vvcurveto
          -119 36 -100 65 -64 vhcurveto
          48 -47 64 -26 78 -6 -57 -74 55 callsubr
          -74 callgsubr
        </CharString>
        <CharString name="Ccircumflex">
          -30 callsubr
          -69 229 -170 -20 hstemhm
          43 142 hintmask 10010010
          377 661 rmoveto
          hintmask 10100010
          -18 callsubr
          hintmask 10000110
          -5 callsubr
          -63 rlineto
          hintmask 01010010
          -84 callgsubr
          hintmask 10010010
          -79 callgsubr
          hintmask 10001010
          72 229 -92 callsubr
        </CharString>
        <CharString name="Cdotaccent">
          -30 callsubr
          -10 -20 40 155 hstemhm
          43 142 125 155 hintmask 10010111
          377 661 rmoveto
          hintmask 10100111
          -18 callsubr
          hintmask 10001111
          -5 callsubr
          -63 rlineto
          hintmask 01010111
          -84 callgsubr
          hintmask 10010111
          -79 callgsubr
          -67 156 rmoveto
          -93 callsubr
          endchar
        </CharString>
        <CharString name="D">
          157 0 75 570 75 hstem
          -21 callsubr
          vstem
          -104 callgsubr
          endchar
        </CharString>
        <CharString name="Dcaron">
          157 0 75 570 75 -75 245 hstemhm
          -21 callsubr
          hintmask 11011000
          -104 callgsubr
          hintmask 10111000
          144 170 -87 callsubr
        </CharString>
        <CharString name="Dcroat">
          0 75 249 80 241 75 hstem
          130 4 callsubr
          vstem
          61 324 rmoveto
          69 -245 hlineto
          -84 -66 callgsubr
          357 vlineto
          106 76 28 59 56 hvcurveto
          63 66 37 103 112 vvcurveto
          106 -35 98 -62 64 vhcurveto
          57 -56 -75 27 -101 hhcurveto
          -366 53 callsubr
          -237 -69 vlineto
          199 -329 rmoveto
          249 130 80 -130 241 115 vlineto
          77 53 -25 -49 36 hvcurveto
          36 -49 19 -72 -96 vvcurveto
          -98 -19 -70 -36 -45 vhcurveto
          -44 -35 -49 -22 -72 hhcurveto
          endchar
        </CharString>
        <CharString name="Ddotbelow">
          157 0 75 570 75 hstem
          -21 callsubr
          vstem
          -104 callgsubr
          endchar
        </CharString>
        <CharString name="E">
          -97 callgsubr
        </CharString>
        <CharString name="Eacute">
          76 -73 callsubr
          40 140 -39 callgsubr
          hintmask 10101110
          -81 callsubr
          hintmask 10110110
          -90 callgsubr
          hintmask 01110110
          -6 callgsubr
          hintmask 10110110
          -74 callsubr
          -102 522 -100 callgsubr
          endchar
        </CharString>
        <CharString name="Ebreve">
          76 -73 callsubr
          -73 170 82 20 callgsubr
          -62 62 199 63 hintmask 1010011011000000
          459 -4 callsubr
          hintmask 1011001101000000
          -97 45 -69 82 -13 vhcurveto
          -289 -58 hlineto
          -96 callsubr
          615 vlineto
          hintmask 0111001101000000
          -6 callgsubr
          hintmask 1010101101000000
          -74 callsubr
          81 264 -81 hlineto
          -17 -95 rlineto
          -137 240 258 hlineto
          hintmask 1011001101000000
          29 -139 rlineto
          82 212 -247 hlineto
          81 12 56 64 3 103 rrcurveto
          endchar
        </CharString>
        <CharString name="Ecaron">
          76 -73 callsubr
          -73 243 -39 callgsubr
          hintmask 10101010
          -81 callsubr
          hintmask 10110010
          -90 callgsubr
          hintmask 01110010
          -6 callgsubr
          hintmask 10100110
          -74 callsubr
          140 652 -87 callsubr
        </CharString>
        <CharString name="Ecircumflex">
          76 -73 callsubr
          -73 243 -39 callgsubr
          hintmask 10101010
          -81 callsubr
          hintmask 10110010
          -90 callgsubr
          hintmask 01110010
          -6 callgsubr
          hintmask 10100110
          -74 callsubr
          2 652 -92 callsubr
        </CharString>
        <CharString name="Edieresis">
          -97 callgsubr
        </CharString>
        <CharString name="Edotaccent">
          76 -73 callsubr
          20 155 -39 callgsubr
          19 155 hintmask 10101111
          -81 callsubr
          hintmask 10110111
          -90 callgsubr
          hintmask 01110111
          -6 callgsubr
          hintmask 10110111
          -74 callsubr
          -135 579 rmoveto
          -93 callsubr
          endchar
        </CharString>
        <CharString name="Edotbelow">
          -97 callgsubr
        </CharString>
        <CharString name="Egrave">
          76 -73 callsubr
          40 140 -39 callgsubr
          hintmask 10101110
          -81 callsubr
          hintmask 10110110
          -90 callgsubr
          hintmask 01110110
          -6 callgsubr
          hintmask 10110110
          -74 callsubr
          -34 598 -77 callsubr
        </CharString>
        <CharString name="Emacron">
          -97 callgsubr
        </CharString>
        <CharString name="Eng">
          195 -190 52 -52 167 44 39 callgsubr
          hstemhm
          125 95 182 111 93 95 hintmask 10111110
          125 79 rmoveto
          -84 -66 callgsubr
          263 58 vlineto
          -84 21 rlineto
          495 vlineto
          375 -581 rlineto
          -17 vlineto
          -67 -14 -47 -45 -29 -17 9 12 -2 vhcurveto
          13 5 12 13 21 vvcurveto
          hintmask 01111110
          37 -27 18 -31 -35 -18 -28 -37 -63 65 -39 71 63 53 3 callgsubr
          556 vlineto
          -41 callgsubr
          -263 -58 vlineto
          -42 callsubr
          -449 vlineto
          -334 528 rlineto
          -231 53 callsubr
          endchar
        </CharString>
        <CharString name="Eogonek">
          76 -210 73 137 75 -75 223 109 75 101 212 -73 73 -39 callgsubr
          -32 102 hintmask 11011001
          339 -91 callsubr
          33 34 41 29 24 hvcurveto
          258 hlineto
          hintmask 10111010
          -6 callgsubr
          hintmask 11010110
          -74 callsubr
          81 264 -81 hlineto
          -17 -95 rlineto
          -137 240 258 hlineto
          hintmask 11011010
          29 -139 rlineto
          82 212 -593 -58 hlineto
          -96 callsubr
          282 vlineto
          hintmask 11011001
          -60 -38 -30 -42 -45 44 callgsubr
        </CharString>
        <CharString name="Eth">
          163 0 75 247 82 241 75 hstem
          131 4 callsubr
          vstem
          47 322 rmoveto
          84 -243 hlineto
          -84 -66 callgsubr
          357 vlineto
          106 76 28 59 56 hvcurveto
          63 66 37 103 112 vvcurveto
          106 -35 98 -62 64 vhcurveto
          57 -56 -75 27 -101 hhcurveto
          -366 53 callsubr
          -237 -84 vlineto
          214 -329 rmoveto
          247 127 82 -127 241 115 vlineto
          77 54 -19 -40 35 hvcurveto
          37 -51 18 -78 -103 vvcurveto
          -105 -19 -75 -36 -48 vhcurveto
          -34 -34 -50 -17 -72 hhcurveto
          endchar
        </CharString>
        <CharString name="Etilde">
          76 -73 callsubr
          24 -38 callsubr
          130 130 hintmask 1010110010000000
          -81 callsubr
          hintmask 1011010010000000
          -90 callgsubr
          hintmask 0111010010000000
          -6 callgsubr
          hintmask 1011001010000000
          -74 callsubr
          -259 517 -40 callgsubr
          hintmask 1011010010000000
          -96 callgsubr
          hintmask 1011000110000000
          -80 callgsubr
        </CharString>
        <CharString name="Euro">
          117 -10 68 -68 215 42 76 65 75 197 70 hstemhm
          550 147 hintmask 01111100
          34 388 rmoveto
          100 hlineto
          -1 -12 0 -12 -13 vvcurveto
          -10 0 -9 1 -9 vhcurveto
          -100 -76 106 hlineto
          -170 25 93 -87 158 hhcurveto
          157 90 69 146 30 hvcurveto
          -85 hlineto
          hintmask 10111100
          -93 -13 -65 -54 -100 hhcurveto
          -87 -48 59 130 -16 hvcurveto
          193 76 -199 hlineto
          -1 10 0 12 12 vvcurveto
          11 0 10 1 10 vhcurveto
          199 75 -194 hlineto
          132 15 59 65 96 hhcurveto
          64 47 -27 -42 27 hvcurveto
          -22 -11 -14 -21 -26 vvcurveto
          -34 31 -26 34 50 32 26 51 101 -103 79 -155 -171 -99 -93 -174 -28 vhcurveto
          -107 hlineto
          endchar
        </CharString>
        <CharString name="F">
          28 21 -21 321 75 110 214 -73 73 hstemhm
          131 130 hintmask 11011000
          496 227 -27 callsubr
          -17 -95 rlineto
          -137 251 253 hlineto
          hintmask 11101000
          32 -141 rlineto
          84 214 -593 -58 hlineto
          94 -21 rlineto
          -559 vlineto
          -94 -24 rlineto
          -58 341 63 vlineto
          -117 19 rlineto
          239 137 vlineto
          17 -94 rlineto
          endchar
        </CharString>
        <CharString name="G">
          143 -10 26 callgsubr
          351 130 hintmask 10010110
          -57 callsubr
          hintmask 10100110
          16 callsubr
          hlineto
          hintmask 10001110
          -5 callsubr
          -62 rlineto
          hintmask 10100110
          -69 callgsubr
          hintmask 01100110
          -53 callgsubr
          hintmask 10100110
          32 callgsubr
          vhcurveto
          endchar
        </CharString>
        <CharString name="Gbreve">
          143 -10 80 -49 -21 484 236 -59 59 -59 156 -156 238 hstemhm
          43 141 39 63 198 63 -12 130 hintmask 1000011110000000
          484 899 rmoveto
          hintmask 1000101110000000
          -10 callgsubr
          hintmask 1000011110000000
          -52 -39 24 58 -2 hvcurveto
          -63 hlineto
          -85 35 -64 63 -23 vhcurveto
          -76 -8 -57 -28 -44 -47 rrcurveto
          -64 -67 -37 -107 -118 vvcurveto
          -116 35 -99 62 -63 vhcurveto
          -55 54 75 -29 90 hhcurveto
          84 57 25 64 58 hvcurveto
          hintmask 0110001101000000
          -53 callgsubr
          hintmask 1001001110000000
          32 callgsubr
          -53 -47 16 36 -27 vhcurveto
          -43 58 -24 92 94 vvcurveto
          96 29 85 37 56 vhcurveto
          37 29 38 21 60 hhcurveto
          hintmask 1010001110000000
          16 callsubr
          236 -85 hlineto
          -20 -62 -37 38 -33 21 -47 8 rlinecurve
          hintmask 1000011110000000
          68 21 45 61 3 92 rrcurveto
          endchar
        </CharString>
        <CharString name="Gcircumflex">
          39 callsubr
          -69 229 -170 -20 hstemhm
          43 141 351 130 hintmask 10010011
          -57 callsubr
          hintmask 10100011
          16 callsubr
          hlineto
          hintmask 10000111
          -5 callsubr
          -62 rlineto
          hintmask 10100011
          -69 callgsubr
          hintmask 01100011
          -53 callgsubr
          hintmask 10001011
          32 callgsubr
          vhcurveto
          63 820 -92 callsubr
        </CharString>
        <CharString name="Gcommaaccent">
          143 -27 callgsubr
          34 26 callgsubr
          139 137 75 130 hintmask 1110010111000000
          -57 callsubr
          hintmask 1110100111000000
          16 callsubr
          hlineto
          hintmask 1110001111000000
          -5 callsubr
          -62 rlineto
          hintmask 1110100111000000
          -69 callgsubr
          hintmask 1101100111000000
          -53 callgsubr
          hintmask 1110100111000000
          32 callgsubr
          vhcurveto
          10 -114 rmoveto
          -102 callsubr
        </CharString>
        <CharString name="Gdotaccent">
          39 callsubr
          -10 -20 40 155 hstemhm
          43 141 118 155 78 130 hintmask 1001011110000000
          -57 callsubr
          hintmask 1010011110000000
          16 callsubr
          hlineto
          hintmask 1000111110000000
          -5 callsubr
          -62 rlineto
          hintmask 1010011110000000
          -69 callgsubr
          hintmask 0110011110000000
          -53 callgsubr
          hintmask 1010011110000000
          32 callgsubr
          vhcurveto
          -76 747 rmoveto
          -93 callsubr
          endchar
        </CharString>
        <CharString name="H">
          197 21 -21 333 73 314 -80 callsubr
          endchar
        </CharString>
        <CharString name="Hbar">
          207 21 -21 333 73 82 80 -80 232 -39 callgsubr
          309 130 hintmask 11011100
          699 6 callgsubr
          -41 callgsubr
          -298 -58 vlineto
          -42 callsubr
          hintmask 11101100
          -73 -309 73 vlineto
          84 21 rlineto
          hintmask 11011100
          58 -298 -58 vlineto
          -42 callsubr
          hintmask 11101100
          -73 -68 -80 68 -409 vlineto
          -84 -66 callgsubr
          298 58 vlineto
          -84 21 rlineto
          254 309 -254 vlineto
          -84 -66 callgsubr
          298 58 vlineto
          -84 21 rlineto
          409 69 80 -69 vlineto
          -439 -162 rmoveto
          82 309 -82 vlineto
          endchar
        </CharString>
        <CharString name="Hcircumflex">
          197 21 -21 333 73 314 -20 190 -80 callsubr
          -219 811 -92 callsubr
        </CharString>
        <CharString name="Hdotbelow">
          197 21 -21 333 73 314 -80 callsubr
          endchar
        </CharString>
        <CharString name="I">
          1 callgsubr
          hstem
          -42 callgsubr
          vstem
          -94 callsubr
          endchar
        </CharString>
        <CharString name="IJ">
          365 -11 73 -41 -21 720 20 callgsubr
          138 31 callgsubr
          hintmask 01111100
          -94 callsubr
          485 128 rmoveto
          hintmask 10111100
          -62 callgsubr
          -66 callsubr
          endchar
        </CharString>
        <CharString name="Iacute">
          1 callgsubr
          60 140 hstem
          -42 callgsubr
          vstem
          -94 callsubr
          -107 681 -100 callgsubr
          endchar
        </CharString>
        <CharString name="Ibreve">
          1 callgsubr
          199 -20 hstem
          24 63 43 130 25 63 vstem
          285 -4 callsubr
          -97 45 -69 82 -13 vhcurveto
          -115 -58 hlineto
          -96 callsubr
          318 58 vlineto
          -94 21 rlineto
          562 vlineto
          94 -58 callgsubr
          -146 vlineto
          81 12 56 64 3 103 rrcurveto
          endchar
        </CharString>
        <CharString name="Icircumflex">
          1 callgsubr
          190 -20 hstem
          -42 callgsubr
          vstem
          -94 callsubr
          -3 811 -92 callsubr
        </CharString>
        <CharString name="Idieresis">
          1 callgsubr
          hstem
          -42 callgsubr
          vstem
          -94 callsubr
          endchar
        </CharString>
        <CharString name="Idotaccent">
          1 callgsubr
          40 155 hstemhm
          36 237 -155 155 -143 130 hintmask 11100100
          -4 callgsubr
          94 -58 callgsubr
          vlineto
          hintmask 11110000
          -318 -58 hlineto
          hintmask 11100100
          94 -70 callgsubr
          hintmask 11110000
          -94 -66 callgsubr
          318 58 vlineto
          hintmask 11100100
          -94 21 rlineto
          hintmask 11101000
          -142 738 rmoveto
          -93 callsubr
          endchar
        </CharString>
        <CharString name="Idotbelow">
          1 callgsubr
          hstem
          -42 callgsubr
          vstem
          -94 callsubr
          endchar
        </CharString>
        <CharString name="Igrave">
          1 callgsubr
          60 140 hstem
          -42 callgsubr
          vstem
          -94 callsubr
          -40 757 -77 callsubr
        </CharString>
        <CharString name="Imacron">
          1 callgsubr
          hstem
          -42 callgsubr
          vstem
          -94 callsubr
          endchar
        </CharString>
        <CharString name="Iogonek">
          -232 -210 73 158 39 callgsubr
          hstemhm
          63 102 -35 130 hintmask 11110000
          174 -91 callsubr
          33 34 41 29 24 hvcurveto
          126 58 hlineto
          hintmask 11101000
          -94 21 rlineto
          562 vlineto
          -75 callgsubr
          117 vlineto
          hintmask 11110000
          -60 -38 -30 -42 -45 44 callgsubr
        </CharString>
        <CharString name="Itilde">
          1 callgsubr
          44 -38 callsubr
          130 130 hintmask 11010100
          -94 callsubr
          -264 676 -40 callgsubr
          hintmask 11100100
          -96 callgsubr
          hintmask 11001100
          -80 callgsubr
        </CharString>
        <CharString name="J">
          -25 -11 73 658 -20 hstem
          8 31 callgsubr
          vstem
          355 207 rmoveto
          -62 callgsubr
          -66 callsubr
          endchar
        </CharString>
        <CharString name="Jcircumflex">
          -25 -11 73 658 -20 190 -20 hstem
          8 31 callgsubr
          vstem
          355 207 rmoveto
          -62 callgsubr
          -66 callsubr
          129 249 -92 callsubr
        </CharString>
        <CharString name="K">
          125 46 callgsubr
          -42 callgsubr
          -51 callgsubr
          endchar
        </CharString>
        <CharString name="Kcommaaccent">
          125 -11 callsubr
          720 -20 hstem
          -42 callgsubr
          78 137 -51 callgsubr
          143 -441 rmoveto
          -102 callsubr
        </CharString>
        <CharString name="L">
          23 18 callsubr
          hstemhm
          130 130 hintmask 10110000
          -76 callsubr
          hintmask 01110000
          248 -85 vlineto
          hintmask 10110000
          -12 callsubr
          endchar
        </CharString>
        <CharString name="Lacute">
          23 18 callsubr
          60 140 -39 callgsubr
          hintmask 10111000
          -76 callsubr
          hintmask 01111000
          248 -85 vlineto
          hintmask 10111000
          -12 callsubr
          -108 685 -100 callgsubr
          endchar
        </CharString>
        <CharString name="Lcaron">
          23 18 callsubr
          190 20 callgsubr
          hintmask 10111000
          -76 callsubr
          hintmask 01111000
          248 -85 vlineto
          hintmask 10111000
          -12 callsubr
          115 815 -87 callsubr
        </CharString>
        <CharString name="Lcommaaccent">
          23 -27 callgsubr
          44 50 callsubr
          hstemhm
          130 130 27 137 hintmask 11101110
          -76 callsubr
          hintmask 11011110
          248 -85 vlineto
          hintmask 11101110
          -12 callsubr
          92 -119 rmoveto
          -102 callsubr
        </CharString>
        <CharString name="Ldot">
          23 0 59 callsubr
          34 158 280 20 callgsubr
          64 157 hintmask 10111100
          -76 callsubr
          hintmask 01111100
          248 -85 vlineto
          hintmask 10111100
          -12 callsubr
          64 285 -39 callsubr
        </CharString>
        <CharString name="Lslash">
          24 18 callsubr
          hstemhm
          66 195 -130 130 -130 223 hintmask 10101000
          261 6 callgsubr
          104 -58 callgsubr
          -328 -58 vlineto
          94 -21 rlineto
          -269 vlineto
          hintmask 10110000
          -65 -38 rlineto
          -83 vlineto
          hintmask 10101000
          65 38 rlineto
          -210 vlineto
          -94 -66 callgsubr
          585 vlineto
          hintmask 01110000
          248 -85 vlineto
          hintmask 10110000
          -34 -173 rlineto
          -242 290 hlineto
          hintmask 10100100
          93 55 rlineto
          84 vlineto
          hintmask 10101000
          -93 -55 rlineto
          endchar
        </CharString>
        <CharString name="M">
          355 46 callgsubr
          125 95 502 130 vstem
          486 106 rmoveto
          -4 hlineto
          -173 614 rlineto
          -268 41 callsubr
          252 58 vlineto
          -73 21 rlineto
          561 vlineto
          178 -640 rlineto
          142 hlineto
          182 640 rlineto
          -561 vlineto
          -73 -66 callgsubr
          287 58 vlineto
          -84 21 rlineto
          562 vlineto
          -41 callgsubr
          -264 vlineto
          endchar
        </CharString>
        <CharString name="N">
          28 callgsubr
          hstem
          125 95 386 95 vstem
          -101 callsubr
          endchar
        </CharString>
        <CharString name="NULL">
          -622 endchar
        </CharString>
        <CharString name="Nacute">
          28 callgsubr
          60 140 hstem
          125 95 386 95 vstem
          -101 callsubr
          241 119 -100 callgsubr
          endchar
        </CharString>
        <CharString name="Ncaron">
          28 callgsubr
          190 -20 hstem
          125 95 386 95 vstem
          -101 callsubr
          464 249 -87 callsubr
        </CharString>
        <CharString name="Ncommaaccent">
          195 -11 callsubr
          720 -20 hstem
          125 95 133 137 116 95 vstem
          -101 callsubr
          293 -685 rmoveto
          -102 callsubr
        </CharString>
        <CharString name="Ndotaccent">
          28 callgsubr
          40 155 hstem
          125 95 111 155 120 95 vstem
          -101 callsubr
          206 176 rmoveto
          -93 callsubr
          endchar
        </CharString>
        <CharString name="Ntilde">
          28 callgsubr
          44 101 -45 45 -45 100 50 callgsubr
          hintmask 11010110
          -101 callsubr
          84 114 rmoveto
          -85 callgsubr
        </CharString>
        <CharString name="O">
          30 callsubr
          hstem
          -17 callgsubr
          vstem
          -107 callgsubr
          endchar
        </CharString>
        <CharString name="OE">
          460 -73 callsubr
          hstemhm
          43 145 326 130 hintmask 10101110
          879 238 -27 callsubr
          -17 -95 rlineto
          -137 240 258 hlineto
          hintmask 10110110
          29 -139 rlineto
          82 212 -641 hlineto
          -101 -75 -27 -57 -56 hvcurveto
          -62 -64 -35 -98 -106 vvcurveto
          -112 37 -103 63 -66 vhcurveto
          -59 56 76 -28 106 hhcurveto
          654 hlineto
          hintmask 01110110
          -6 callgsubr
          hintmask 10110110
          -29 -148 rlineto
          -274 257 137 hlineto
          17 -94 rlineto
          -284 -163 rmoveto
          -115 hlineto
          -72 -49 22 44 -35 hvcurveto
          -36 45 -19 70 98 vvcurveto
          96 19 72 36 49 vhcurveto
          49 36 53 25 77 hhcurveto
          105 hlineto
          endchar
        </CharString>
        <CharString name="Oacute">
          30 callsubr
          30 140 hstem
          -17 callgsubr
          vstem
          -107 callgsubr
          157 389 -100 callgsubr
          endchar
        </CharString>
        <CharString name="Obreve">
          31 callsubr
          156 -156 238 hstemhm
          43 145 43 63 198 63 31 145 hintmask 10111110
          492 899 rmoveto
          hintmask 11011110
          -10 callgsubr
          hintmask 10111110
          -52 -39 24 58 -2 hvcurveto
          -63 hlineto
          -86 35 -63 64 -23 vhcurveto
          -82 -8 -59 -27 -46 -49 rrcurveto
          -43 callsubr
          -117 38 -101 58 -60 vhcurveto
          -56 54 79 -28 112 hhcurveto
          112 78 28 59 57 hvcurveto
          69 72 31 108 111 vvcurveto
          -36 callsubr
          -49 48 -62 25 -78 8 64 22 43 60 3 90 rrcurveto
          -367 -528 -37 callsubr
        </CharString>
        <CharString name="Ocircumflex">
          30 callsubr
          -69 229 hstemhm
          -17 callgsubr
          hintmask 11011000
          -107 callgsubr
          hintmask 10111000
          261 519 -92 callsubr
        </CharString>
        <CharString name="Odieresis">
          30 callsubr
          hstem
          -17 callgsubr
          vstem
          -107 callgsubr
          endchar
        </CharString>
        <CharString name="Odotbelow">
          30 callsubr
          hstem
          -17 callgsubr
          vstem
          -107 callgsubr
          endchar
        </CharString>
        <CharString name="Ograve">
          30 callsubr
          30 140 hstem
          -17 callgsubr
          vstem
          -107 callgsubr
          227 465 -77 callsubr
        </CharString>
        <CharString name="Ohungarumlaut">
          30 callsubr
          hstem
          -17 callgsubr
          vstem
          -107 callgsubr
          endchar
        </CharString>
        <CharString name="Omacron">
          30 callsubr
          hstem
          -17 callgsubr
          vstem
          -107 callgsubr
          endchar
        </CharString>
        <CharString name="Oogonek">
          152 -210 73 128 69 601 69 hstem
          43 145 64 102 232 145 vstem
          363 -91 callsubr
          29 26 35 27 25 hvcurveto
          99 3 72 28 53 55 rrcurveto
          69 72 31 108 111 vvcurveto
          -36 callsubr
          59 -60 -80 25 -107 -3 callgsubr
          -117 38 -101 58 -60 vhcurveto
          45 -47 62 -27 85 -7 rrcurveto
          -52 -37 -27 -39 -42 -28 callsubr
          -175 581 -37 callsubr
        </CharString>
        <CharString name="Oslash">
          149 -10 70 601 69 -82 callsubr
          endchar
        </CharString>
        <CharString name="Oslashacute">
          149 -10 70 601 69 30 140 -82 callsubr
          155 389 -100 callgsubr
          endchar
        </CharString>
        <CharString name="Otilde">
          30 callsubr
          14 -38 callsubr
          -17 callgsubr
          hintmask 11010110
          -107 callgsubr
          384 vmoveto
          -85 callgsubr
        </CharString>
        <CharString name="P">
          23 21 -21 275 73 299 73 23 callsubr
          233 140 vstem
          255 348 rmoveto
          299 90 vlineto
          38 35 -14 -22 22 hvcurveto
          28 -29 20 -45 -44 vvcurveto
          -49 -21 -39 -27 -26 vhcurveto
          -19 -19 -35 -12 -37 hhcurveto
          52 -73 rmoveto
          60 54 14 36 35 hvcurveto
          46 41 32 74 66 vvcurveto
          64 -30 60 -46 42 vhcurveto
          31 -34 -54 17 -62 hhcurveto
          -361 41 callsubr
          309 58 vlineto
          -95 21 rlineto
          196 vlineto
          endchar
        </CharString>
        <CharString name="Q">
          152 -185 82 94 69 601 69 hstem
          -17 callgsubr
          vstem
          731 368 rmoveto
          112 -34 103 -63 63 vhcurveto
          58 -58 -81 26 -108 hhcurveto
          -109 -76 -26 -61 -59 hvcurveto
          -64 -67 -36 -108 -116 vvcurveto
          -113 35 -101 61 -64 vhcurveto
          47 -49 64 -27 81 -6 60 -101 rcurveline
          -51 30 59 -25 74 hhcurveto
          64 47 20 51 28 hvcurveto
          -22 40 rlineto
          -22 -23 -12 -7 -25 hhcurveto
          -28 -29 8 16 -24 hvcurveto
          -97 66 rlineto
          4 vlineto
          82 6 66 27 50 53 rrcurveto
          64 68 36 107 116 vvcurveto
          -543 6 rmoveto
          102 18 74 37 45 vhcurveto
          44 31 46 22 64 hhcurveto
          67 48 -24 -50 32 hvcurveto
          36 -49 19 -81 -103 vvcurveto
          -104 -19 -78 -36 -46 vhcurveto
          -44 -30 -47 -22 -65 hhcurveto
          -69 -48 24 50 -30 hvcurveto
          -35 49 -19 85 106 vvcurveto
          endchar
        </CharString>
        <CharString name="R">
          12 callgsubr
          23 callsubr
          247 -104 callsubr
          endchar
        </CharString>
        <CharString name="Racute">
          12 callgsubr
          40 140 hstem
          502 -104 callsubr
          -93 372 -100 callgsubr
          endchar
        </CharString>
        <CharString name="Rcaron">
          12 callgsubr
          170 -20 23 callsubr
          247 -104 callsubr
          166 502 -87 callsubr
        </CharString>
        <CharString name="Rcommaaccent">
          95 -219 -21 96 100 65 27 callsubr
          23 callsubr
          79 137 31 -104 callsubr
          31 -432 rmoveto
          -102 callsubr
        </CharString>
        <CharString name="Rdotbelow">
          12 callgsubr
          23 callsubr
          247 -104 callsubr
          endchar
        </CharString>
        <CharString name="S">
          38 callgsubr
          -11 -20 -31 callgsubr
          hintmask 10100101
          -85 callsubr
          hintmask 10011010
          -20 callgsubr
          hintmask 10101010
          -89 callsubr
          hintmask 01101010
          0 callgsubr
          hintmask 10101010
          19 callgsubr
          endchar
        </CharString>
        <CharString name="Sacute">
          38 callgsubr
          -11 -20 60 140 -31 callgsubr
          hintmask 1010101010000000
          -85 callsubr
          hintmask 1001110100000000
          -20 callgsubr
          hintmask 1010110100000000
          -89 callsubr
          hintmask 0110110100000000
          0 callgsubr
          hintmask 1010110100000000
          19 callgsubr
          -69 771 -100 callgsubr
          endchar
        </CharString>
        <CharString name="Scaron">
          38 callgsubr
          -69 228 -170 -20 -31 callgsubr
          hintmask 1010001010000000
          -85 callsubr
          hintmask 1000110100000000
          -20 callgsubr
          hintmask 1010010100000000
          -89 callsubr
          hintmask 0110010100000000
          0 callgsubr
          hintmask 1001010100000000
          19 callgsubr
          172 901 -87 callsubr
        </CharString>
        <CharString name="Schwa">
          87 -10 69 237 80 285 69 hstem
          36 144 340 145 vstem
          40 376 rmoveto
          -3 -34 -1 -15 -21 vvcurveto
          -198 100 -118 204 218 107 145 227 82 -15 75 -32 58 vhcurveto
          102 -57 -98 51 -143 hhcurveto
          -119 -73 -39 -95 -65 hvcurveto
          53 -47 rlineto
          65 44 69 47 83 hhcurveto
          86 54 -36 -76 35 hvcurveto
          22 -46 11 -67 -60 vvcurveto
          -171 -317 rmoveto
          -93 -76 77 124 hvcurveto
          36 339 vlineto
          -147 -12 -50 -90 -108 hhcurveto
          endchar
        </CharString>
        <CharString name="Scircumflex">
          38 callgsubr
          -69 228 -170 -20 -31 callgsubr
          hintmask 1010001010000000
          -85 callsubr
          hintmask 1000110100000000
          -20 callgsubr
          hintmask 1010010100000000
          -89 callsubr
          hintmask 0110010100000000
          0 callgsubr
          hintmask 1001010100000000
          19 callgsubr
          35 901 -92 callsubr
        </CharString>
        <CharString name="Sdotbelow">
          38 callgsubr
          -11 -20 -31 callgsubr
          hintmask 10100101
          -85 callsubr
          hintmask 10011010
          -20 callgsubr
          hintmask 10101010
          -89 callsubr
          hintmask 01101010
          0 callgsubr
          hintmask 10101010
          19 callgsubr
          endchar
        </CharString>
        <CharString name="T">
          -45 callgsubr
        </CharString>
        <CharString name="Tbar">
          56 21 -21 341 80 74 225 -75 75 hstemhm
          274 130 hintmask 11101000
          26 17 callsubr
          hintmask 11011000
          31 150 rlineto
          153 -224 -163 -80 163 -259 hlineto
          -106 -24 rlineto
          -58 342 58 vlineto
          -106 24 rlineto
          259 163 80 -163 224 152 vlineto
          hintmask 11101000
          -1 callsubr
          hlineto
          endchar
        </CharString>
        <CharString name="Tcaron">
          52 21 -21 495 225 -75 75 -75 245 hstemhm
          272 130 hintmask 11001000
          24 17 callsubr
          hintmask 10101000
          -49 callgsubr
          hintmask 11001000
          -1 callsubr
          hlineto
          hintmask 10011000
          -130 170 -87 callsubr
        </CharString>
        <CharString name="Tdotbelow">
          -45 callgsubr
        </CharString>
        <CharString name="Thorn">
          34 0 221 -73 73 281 73 -73 218 hstemhm
          128 130 233 140 hintmask 01101100
          409 148 rmoveto
          60 54 18 31 35 hvcurveto
          46 41 27 64 64 vvcurveto
          62 -26 58 -45 41 vhcurveto
          31 -35 -53 17 -62 hhcurveto
          -152 66 hlineto
          84 21 rlineto
          hintmask 10011100
          58 -309 -58 vlineto
          95 -70 callgsubr
          -84 -66 callgsubr
          309 58 vlineto
          -95 21 rlineto
          hintmask 01101100
          69 vlineto
          73 vmoveto
          281 95 vlineto
          38 35 -14 -22 22 hvcurveto
          28 -27 15 -37 -42 vvcurveto
          -44 -16 -40 -27 -24 vhcurveto
          -19 -19 -35 -12 -37 hhcurveto
          endchar
        </CharString>
        <CharString name="U">
          -11 70 661 -20 hstem
          38 callsubr
          346 93 vstem
          -105 callgsubr
          endchar
        </CharString>
        <CharString name="Uacute">
          -11 70 661 -20 60 140 hstem
          38 callsubr
          346 93 vstem
          -105 callgsubr
          -214 119 -100 callgsubr
          endchar
        </CharString>
        <CharString name="Ubreve">
          -11 70 659 54 callsubr
          -179 -20 hstemhm
          38 callsubr
          18 63 198 63 4 93 hintmask 10011111
          -105 callgsubr
          hintmask 10101111
          -67 258 rmoveto
          hintmask 11001111
          -10 callgsubr
          hintmask 10101111
          -81 callgsubr
        </CharString>
        <CharString name="Ucircumflex">
          -11 70 661 -20 190 -20 hstem
          38 callsubr
          346 93 vstem
          -105 callgsubr
          -110 249 -92 callsubr
        </CharString>
        <CharString name="Udieresis">
          -11 70 661 -20 hstem
          38 callsubr
          346 93 vstem
          -105 callgsubr
          endchar
        </CharString>
        <CharString name="Udotbelow">
          -11 70 661 -20 hstem
          38 callsubr
          346 93 vstem
          -105 callgsubr
          endchar
        </CharString>
        <CharString name="Ugrave">
          -11 70 661 -20 60 140 hstem
          38 callsubr
          346 93 vstem
          -105 callgsubr
          -145 195 -77 callsubr
        </CharString>
        <CharString name="Uhungarumlaut">
          -11 70 661 -20 hstem
          38 callsubr
          346 93 vstem
          -105 callgsubr
          endchar
        </CharString>
        <CharString name="Umacron">
          -11 70 661 -20 hstem
          38 callsubr
          346 93 vstem
          -105 callgsubr
          endchar
        </CharString>
        <CharString name="Uogonek">
          -210 73 127 69 661 -20 hstem
          38 callsubr
          41 102 203 93 vstem
          390 -91 callsubr
          29 27 36 26 24 hvcurveto
          159 14 84 87 151 vvcurveto
          398 vlineto
          -41 callgsubr
          -261 -58 vlineto
          -42 callsubr
          -367 vlineto
          -151 -53 -64 -125 -113 -55 71 146 vhcurveto
          365 vlineto
          -41 callgsubr
          -298 -58 vlineto
          -42 callsubr
          -397 vlineto
          -154 88 -90 158 -10 vhcurveto
          -50 -35 -25 -39 -41 44 callgsubr
        </CharString>
        <CharString name="Uring">
          -11 70 661 -20 50 44 62 44 hstem
          38 callsubr
          84 60 62 59 81 93 vstem
          -105 callgsubr
          -262 183 -54 callgsubr
        </CharString>
        <CharString name="Utilde">
          -11 70 661 -20 44 -38 callsubr
          38 callsubr
          346 93 hintmask 11010110
          -105 callgsubr
          -371 114 rmoveto
          -85 callgsubr
        </CharString>
        <CharString name="V">
          102 46 callgsubr
          203 6 callgsubr
          82 -58 callgsubr
          -300 -58 vlineto
          80 -21 238 -641 rlineto
          128 hlineto
          219 641 82 -58 callgsubr
          -264 -58 vlineto
          83 -21 -170 -523 rlineto
          -4 hlineto
          endchar
        </CharString>
        <CharString name="W">
          429 46 callgsubr
          737 127 rmoveto
          -4 hlineto
          -139 514 92 -58 callgsubr
          -294 -58 vlineto
          78 -21 9 -45 -126 -468 rlineto
          -4 hlineto
          -142 513 96 -58 callgsubr
          -314 -58 vlineto
          78 -21 205 -641 rlineto
          134 hlineto
          119 431 131 -431 rlineto
          134 hlineto
          185 641 83 -58 callgsubr
          -259 -58 vlineto
          79 -20 rlineto
          endchar
        </CharString>
        <CharString name="Wacute">
          429 -47 callsubr
          60 140 hstem
          737 127 rmoveto
          -4 hlineto
          -139 514 92 -58 callgsubr
          -294 -58 vlineto
          78 -21 9 -45 -126 -468 rlineto
          -4 hlineto
          -142 513 96 -58 callgsubr
          -314 -58 vlineto
          78 -21 205 -641 rlineto
          134 hlineto
          119 431 131 -431 rlineto
          134 hlineto
          185 641 83 -58 callgsubr
          -259 -58 vlineto
          79 -20 rlineto
          -391 118 -100 callgsubr
          endchar
        </CharString>
        <CharString name="Wcircumflex">
          429 -47 callsubr
          190 -20 hstem
          737 127 rmoveto
          -4 hlineto
          -139 514 92 -58 callgsubr
          -294 -58 vlineto
          78 -21 9 -45 -126 -468 rlineto
          -4 hlineto
          -142 513 96 -58 callgsubr
          -314 -58 vlineto
          78 -21 205 -641 rlineto
          134 hlineto
          119 431 131 -431 rlineto
          134 hlineto
          185 641 83 -58 callgsubr
          -259 -58 vlineto
          79 -20 rlineto
          -287 248 -92 callsubr
        </CharString>
        <CharString name="Wdieresis">
          429 46 callgsubr
          737 127 rmoveto
          -4 hlineto
          -139 514 92 -58 callgsubr
          -294 -58 vlineto
          78 -21 9 -45 -126 -468 rlineto
          -4 hlineto
          -142 513 96 -58 callgsubr
          -314 -58 vlineto
          78 -21 205 -641 rlineto
          134 hlineto
          119 431 131 -431 rlineto
          134 hlineto
          185 641 83 -58 callgsubr
          -259 -58 vlineto
          79 -20 rlineto
          endchar
        </CharString>
        <CharString name="Wgrave">
          429 -47 callsubr
          60 140 hstem
          737 127 rmoveto
          -4 hlineto
          -139 514 92 -58 callgsubr
          -294 -58 vlineto
          78 -21 9 -45 -126 -468 rlineto
          -4 hlineto
          -142 513 96 -58 callgsubr
          -314 -58 vlineto
          78 -21 205 -641 rlineto
          134 hlineto
          119 431 131 -431 rlineto
          134 hlineto
          185 641 83 -58 callgsubr
          -259 -58 vlineto
          79 -20 rlineto
          -338 194 -77 callsubr
        </CharString>
        <CharString name="X">
          120 46 callgsubr
          356 662 rmoveto
          58 -347 -58 vlineto
          106 -21 186 -283 -200 -279 -93 -66 callgsubr
          302 58 vlineto
          -109 21 150 214 134 -214 -103 -21 2 -58 rlineto
          357 58 hlineto
          -106 21 -205 307 196 255 98 -58 callgsubr
          -293 -58 vlineto
          91 -21 -143 -189 -117 189 rlineto
          endchar
        </CharString>
        <CharString name="Y">
          60 46 callgsubr
          280 130 vstem
          -99 callsubr
          endchar
        </CharString>
        <CharString name="Yacute">
          60 -47 callsubr
          60 140 hstem
          280 130 vstem
          -99 callsubr
          -193 119 -100 callgsubr
          endchar
        </CharString>
        <CharString name="Ycircumflex">
          60 -47 callsubr
          191 -20 hstem
          280 130 vstem
          -99 callsubr
          -89 250 -92 callsubr
        </CharString>
        <CharString name="Ydieresis">
          60 46 callgsubr
          280 130 vstem
          -99 callsubr
          endchar
        </CharString>
        <CharString name="Ygrave">
          60 -47 callsubr
          60 140 hstem
          280 130 vstem
          -99 callsubr
          -136 195 -77 callsubr
        </CharString>
        <CharString name="Ytilde">
          60 -47 callsubr
          44 -38 callsubr
          280 130 hintmask 11010100
          -99 callsubr
          -350 114 -40 callgsubr
          hintmask 11100100
          -96 callgsubr
          hintmask 11001100
          -80 callgsubr
        </CharString>
        <CharString name="Z">
          -31 callsubr
          -63 callsubr
          endchar
        </CharString>
        <CharString name="Zacute">
          -31 callsubr
          40 140 hstemhm
          hintmask 10101000
          502 75 rmoveto
          -319 hlineto
          415 584 rlineto
          61 -539 -227 82 vlineto
          hintmask 10011000
          -59 callgsubr
          hintmask 01101000
          238 -87 vlineto
          hintmask 10101000
          -241 522 -100 callgsubr
          endchar
        </CharString>
        <CharString name="Zcaron">
          -31 callsubr
          -75 245 -63 callsubr
          hintmask 10001000
          -18 652 -87 callsubr
        </CharString>
        <CharString name="Zdotaccent">
          -31 callsubr
          20 155 hstemhm
          258 155 hintmask 10101100
          502 75 rmoveto
          -319 hlineto
          415 584 rlineto
          61 -539 -227 82 vlineto
          hintmask 10011100
          -59 callgsubr
          hintmask 01101100
          238 -87 vlineto
          hintmask 10101100
          -276 579 rmoveto
          -93 callsubr
          endchar
        </CharString>
        <CharString name="Zdotbelow">
          -31 callsubr
          -63 callsubr
          endchar
        </CharString>
        <CharString name="a">
          -48 callsubr
          -38 callgsubr
          hintmask 11010010
          -103 callgsubr
          hintmask 11001100
          -83 callgsubr
          hintmask 10110100
          -105 callsubr
          endchar
        </CharString>
        <CharString name="aacute">
          -48 callsubr
          89 157 -38 callgsubr
          hintmask 11011001
          -103 callgsubr
          hintmask 11010110
          -83 callgsubr
          hintmask 10111010
          -105 callsubr
          -17 576 -102 callgsubr
          endchar
        </CharString>
        <CharString name="abreve">
          -48 callsubr
          49 54 callsubr
          -37 callgsubr
          -104 68 185 127 -114 58 -58 114 hintmask 1101010000100000
          -103 callgsubr
          hintmask 1101001010000000
          -83 callgsubr
          hintmask 1010110010000000
          -105 callsubr
          130 717 rmoveto
          hintmask 1101010010000000
          -10 callgsubr
          hintmask 1100100101000000
          -81 callgsubr
        </CharString>
        <CharString name="acircumflex">
          -48 callsubr
          240 -20 -38 callgsubr
          hintmask 11011001
          -103 callgsubr
          hintmask 11010110
          -83 callgsubr
          hintmask 10111010
          -105 callsubr
          97 727 -89 callgsubr
        </CharString>
        <CharString name="acute">
          -363 639 157 hstem
          25 639 -102 callgsubr
          endchar
        </CharString>
        <CharString name="acute.cap">
          51 callsubr
          25 760 -100 callgsubr
          endchar
        </CharString>
        <CharString name="adieresis">
          -48 callsubr
          67 147 -37 callgsubr
          -116 34 callgsubr
          -112 -14 callgsubr
          hintmask 1101100001000000
          -103 callgsubr
          hintmask 1101010100000000
          -83 callgsubr
          hintmask 1011100010000000
          -105 callsubr
          hintmask 1101001100000000
          -143 627 -97 callsubr
        </CharString>
        <CharString name="ae">
          42 callsubr
          25 callsubr
          hintmask 11101011
          -56 callsubr
          hintmask 11100111
          18 callgsubr
          hintmask 11011011
          -58 callsubr
          endchar
        </CharString>
        <CharString name="aeacute">
          42 callsubr
          89 157 25 callsubr
          hintmask 1110110110000000
          -56 callsubr
          hintmask 1110101110000000
          18 callgsubr
          hintmask 1101110110000000
          -58 callsubr
          136 576 -102 callgsubr
          endchar
        </CharString>
        <CharString name="agrave">
          -48 callsubr
          89 157 -37 callgsubr
          162 114 hintmask 11011010
          -103 callgsubr
          hintmask 11010110
          -83 callgsubr
          hintmask 10111010
          -105 callsubr
          51 652 -76 callgsubr
        </CharString>
        <CharString name="amacron">
          -48 callsubr
          85 95 -38 callgsubr
          hintmask 11011001
          -103 callgsubr
          hintmask 11010110
          -83 callgsubr
          hintmask 10111010
          -105 callsubr
          -96 572 rmoveto
          -14 callsubr
        </CharString>
        <CharString name="ampersand">
          134 -10 73 595 70 hstemhm
          52 130 -32 115 153 99 42 86 hintmask 11011100
          721 329 rmoveto
          56 -239 -56 vlineto
          77 -19 -2 -64 -22 -52 -16 -31 rlinecurve
          -165 213 rlineto
          112 59 51 77 75 vvcurveto
          82 -66 59 -111 -119 -71 -71 -104 -53 18 -55 37 -59 vhcurveto
          hintmask 11101100
          -111 -61 -42 -55 -82 vvcurveto
          -123 98 -75 162 74 60 12 34 49 vhcurveto
          -29 39 40 -17 47 hhcurveto
          53 44 21 40 28 hvcurveto
          -37 54 rlineto
          -26 -18 -25 -15 -30 hhcurveto
          -19 -26 13 19 -13 hvcurveto
          40 58 26 80 1 76 rrcurveto
          -321 -247 rmoveto
          -91 -51 46 80 60 25 52 47 27 hvcurveto
          185 -237 rlineto
          -15 -17 -48 -13 -50 hhcurveto
          hintmask 11011100
          -59 513 rmoveto
          55 31 27 43 52 27 -30 -46 -55 -39 -35 -71 -48 vhcurveto
          -34 53 -9 32 47 vvcurveto
          endchar
        </CharString>
        <CharString name="aogonek">
          -73 -210 73 127 74 285 201 -59 59 -37 callgsubr
          97 102 -50 -14 callgsubr
          hintmask 1110101000000000
          407 -91 callsubr
          30 28 37 28 25 hvcurveto
          27 4 35 8 39 13 rrcurveto
          45 -45 vlineto
          hintmask 1110010100000000
          -29 -6 21 66 hvcurveto
          130 vlineto
          102 -26 73 -53 47 vhcurveto
          27 -31 -52 20 -62 hhcurveto
          -83 callgsubr
          hintmask 1101100010000000
          19 8 26 11 28 hhcurveto
          38 24 -20 -31 18 hvcurveto
          15 -26 8 -31 6 -66 rrcurveto
          -218 -34 -97 -55 -110 vvcurveto
          -80 51 -48 84 78 73 41 68 41 vhcurveto
          4 hlineto
          -59 5 -30 17 -12 vhcurveto
          hintmask 1110101000000000
          -58 -37 -29 -42 -44 -28 callsubr
          -181 273 rmoveto
          -31 -32 22 58 68 43 32 138 30 hvcurveto
          hintmask 1110100100000000
          2 -18 2 -21 -16 vvcurveto
          -48 -17 -35 -14 -19 vhcurveto
          -34 -25 -38 -19 -28 hhcurveto
          endchar
        </CharString>
        <CharString name="apostrophe">
          -447 596 -21 113 112 hstem
          20 140 vstem
          93 800 -26 callsubr
        </CharString>
        <CharString name="aring">
          -48 callsubr
          64 71 58 71 -37 callgsubr
          -26 200 -71 71 -25 -14 callgsubr
          hintmask 1101110000100000
          -103 callgsubr
          hintmask 1101101010000000
          -83 callgsubr
          hintmask 1011110001000000
          -105 callsubr
          hintmask 1101110100000000
          -53 650 -33 callgsubr
          vhcurveto
          hintmask 1101110010000000
          -13 callsubr
          hvcurveto
          endchar
        </CharString>
        <CharString name="aringacute">
          -48 callsubr
          32 71 -71 213 -84 71 -37 callgsubr
          -32 200 -71 71 -19 -14 callgsubr
          hintmask 1101011000010000
          -103 callgsubr
          hintmask 1101010101000000
          -83 callgsubr
          hintmask 1010101010000000
          19 8 26 11 28 hhcurveto
          38 24 -20 -31 18 hvcurveto
          15 -26 8 -31 6 -66 rrcurveto
          -218 -34 -97 -55 -110 vvcurveto
          137 563 rmoveto
          -23 6 -20 12 -16 vhcurveto
          -24 -32 rlineto
          53 hlineto
          3 3 rlineto
          -7 14 17 -4 18 hhcurveto
          57 44 42 57 17 -4 15 -7 14 hvcurveto
          14 15 4 9 13 vvcurveto
          19 -12 12 -22 -15 -10 -4 -15 -14 vhcurveto
          hintmask 1101011010000000
          4 -11 -12 2 -12 hhcurveto
          -57 -42 -44 -57 hvcurveto
          59 -618 rmoveto
          -31 -32 22 58 68 43 32 138 30 hvcurveto
          hintmask 1101011000100000
          2 -18 2 -21 -16 vvcurveto
          -48 -17 -35 -14 -19 vhcurveto
          -34 -25 -38 -19 -28 hhcurveto
          12 618 rmoveto
          17 12 13 16 vhcurveto
          hintmask 1101011001000000
          -13 callsubr
          hvcurveto
          endchar
        </CharString>
        <CharString name="asciicircum">
          -230 660 -21 151 -20 hstem
          258 790 -89 callgsubr
        </CharString>
        <CharString name="asciitilde">
          -139 278 -38 callsubr
          hintmask 01000000
          60 289 rmoveto
          60 hlineto
          28 6 20 17 28 hhcurveto
          hintmask 10000000
          48 27 -56 67 hhcurveto
          62 37 49 102 13 hvcurveto
          -60 hlineto
          -32 -6 -20 -18 -28 hhcurveto
          hintmask 00100000
          -48 -26 55 -68 hhcurveto
          -64 -36 -48 -97 -12 hvcurveto
          endchar
        </CharString>
        <CharString name="asterisk">
          -140 447 -21 22 -21 162 105 114 -20 hstemhm
          187 106 hintmask 10111000
          95 480 rmoveto
          -28 27 -26 28 43 22 62 77 26 vhcurveto
          hintmask 01111000
          -60 19 27 -78 48 hhcurveto
          29 24 26 25 47 -80 46 -37 21 hvcurveto
          -3 24 24 -1 23 hhcurveto
          41 60 0 53 27 -20 26 -29 -40 -51 -35 -30 -41 hvcurveto
          15 42 16 51 34 vvcurveto
          32 -25 20 -28 -30 -23 -21 -31 -34 15 -46 15 -43 vhcurveto
          29 -40 -50 33 -39 hhcurveto
          -29 -20 -26 -27 -53 60 0 41 22 22 1 2 22 hvcurveto
          -52 -32 -59 -44 -36 vvcurveto
          endchar
        </CharString>
        <CharString name="at">
          195 -136 52 118 57 304 54 94 51 hstem
          36 72 76 108 185 84 140 74 vstem
          399 449 rmoveto
          -122 -93 -109 -144 -104 49 -58 108 58 54 32 41 31 hvcurveto
          -42 11 19 -26 64 hhcurveto
          115 82 105 140 185 -144 125 -215 -214 -166 -173 -223 -207 133 -127 216 99 95 26 49 73 hvcurveto
          -19 46 rlineto
          -45 -70 -85 -24 -91 hhcurveto
          -176 -103 104 179 195 132 149 173 175 113 -103 -159 -106 -49 -84 -52 -20 -19 17 35 12 1 14 3 16 hvcurveto
          37 246 rlineto
          -70 hlineto
          -32 -37 rlineto
          36 -16 -34 19 -51 hhcurveto
          8 -54 rmoveto
          46 24 -29 -70 -131 -53 -77 -71 -40 -21 29 69 127 51 82 64 hvcurveto
          endchar
        </CharString>
        <CharString name="atilde">
          -48 callsubr
          63 101 -45 45 -45 100 -38 callgsubr
          hintmask 1101001001000000
          -103 callgsubr
          hintmask 1101000110000000
          -83 callgsubr
          hintmask 1010101010000000
          -105 callsubr
          -174 561 -40 callgsubr
          hintmask 1101001010000000
          -96 callgsubr
          hintmask 1100011010000000
          -80 callgsubr
        </CharString>
        <CharString name="b">
          -7 -10 67 -36 -21 483 67 230 -20 hstemhm
          75 127 240 135 hintmask 01111100
          577 8 callgsubr
          -3 callsubr
          vlineto
          77 -19 rlineto
          -705 77 vlineto
          30 101 rlineto
          hintmask 10111100
          13 callsubr
          -5 rmoveto
          80 15 52 20 35 vhcurveto
          35 20 35 11 36 hhcurveto
          43 25 -18 -35 16 hvcurveto
          17 -37 13 -61 -76 vvcurveto
          -69 -11 -47 -20 -35 vhcurveto
          -28 -17 -22 -20 -43 hhcurveto
          -43 -28 20 33 -21 hvcurveto
          -20 32 -15 48 80 vvcurveto
          endchar
        </CharString>
        <CharString name="backslash">
          -301 45 callsubr
          131 730 rmoveto
          -87 hlineto
          146 -740 rlineto
          87 hlineto
          endchar
        </CharString>
        <CharString name="bar">
          -367 -149 -21 940 -20 hstem
          84 87 vstem
          84 -170 rmoveto
          87 940 -87 hlineto
          endchar
        </CharString>
        <CharString name="braceleft">
          40 callsubr
          141 117 vstem
          2 312 rmoveto
          34 hlineto
          74 31 -33 -80 hvcurveto
          -34 -7 -92 -34 vvcurveto
          -123 84 -58 188 -8 vhcurveto
          75 vlineto
          -107 5 -41 32 79 23 4 87 34 vvcurveto
          106 -31 49 -78 18 vhcurveto
          4 vlineto
          77 27 32 48 92 30 -4 83 22 vvcurveto
          78 40 31 108 7 vhcurveto
          75 vlineto
          -188 -8 -84 -59 -121 -34 7 -86 -34 vvcurveto
          -78 -32 -34 -73 vhcurveto
          -34 hlineto
          endchar
        </CharString>
        <CharString name="braceright">
          40 callsubr
          166 117 vstem
          422 401 rmoveto
          -34 hlineto
          -73 -32 34 78 hvcurveto
          34 7 86 34 vvcurveto
          121 -84 59 -188 8 vhcurveto
          -75 vlineto
          108 -7 40 -31 -78 -22 -4 -83 -30 vvcurveto
          -92 32 -48 77 -27 vhcurveto
          -4 vlineto
          -78 -18 -31 -49 -106 -34 4 -87 -23 vvcurveto
          -79 -41 -32 -107 -5 vhcurveto
          -75 vlineto
          188 8 84 58 123 34 -7 92 34 vvcurveto
          80 31 33 74 vhcurveto
          34 hlineto
          endchar
        </CharString>
        <CharString name="bracketleft">
          -239 -149 74 855 75 hstem
          84 119 vstem
          84 -149 rmoveto
          281 74 -162 855 162 75 -281 hlineto
          endchar
        </CharString>
        <CharString name="bracketright">
          -239 -149 74 855 75 hstem
          180 119 vstem
          299 855 rmoveto
          -281 -75 162 -855 -162 -74 281 hlineto
          endchar
        </CharString>
        <CharString name="breve">
          -258 599 35 callgsubr
          780 rmoveto
          hintmask 10110000
          -10 callgsubr
          hintmask 01110000
          -81 callgsubr
        </CharString>
        <CharString name="breve.cap">
          -258 718 35 callgsubr
          899 rmoveto
          hintmask 10110000
          -10 callgsubr
          hintmask 01110000
          -81 callgsubr
        </CharString>
        <CharString name="brokenbar">
          -363 -149 -21 940 -20 hstem
          86 87 vstem
          86 -170 rmoveto
          87 418 -87 hlineto
          120 vmoveto
          87 402 -87 hlineto
          endchar
        </CharString>
        <CharString name="bullet">
          -216 232 -21 268 -20 hstem
          70 343 rmoveto
          -85 48 -47 85 82 52 50 82 82 -52 54 -82 -82 -51 -52 -84 vhcurveto
          endchar
        </CharString>
        <CharString name="c">
          44 callsubr
          hstemhm
          37 135 188 153 vstemhm
          -98 callsubr
          hintmask 11110000
          -40 callsubr
          vhcurveto
          endchar
        </CharString>
        <CharString name="cacute">
          44 callsubr
          89 157 hstemhm
          37 135 188 153 vstemhm
          -98 callsubr
          hintmask 11111000
          -40 callsubr
          vhcurveto
          -34 89 -102 callgsubr
          endchar
        </CharString>
        <CharString name="caron">
          -270 650 -21 151 -20 hstem
          327 780 -73 callgsubr
        </CharString>
        <CharString name="caron.alt">
          -503 590 200 hstemhm
          5 89 -70 90 hintmask 11000000
          94 590 rmoveto
          hintmask 10100000
          2 callsubr
          hintmask 11000000
          -9 callsubr
        </CharString>
        <CharString name="caron.cap">
          -270 790 -21 121 -20 hstem
          357 890 -87 callsubr
        </CharString>
        <CharString name="ccaron">
          44 callsubr
          230 -20 hstemhm
          37 135 188 153 vstemhm
          -98 callsubr
          hintmask 11111000
          -40 callsubr
          vhcurveto
          159 230 -73 callgsubr
        </CharString>
        <CharString name="ccedilla">
          -76 33 callsubr
          -50 178 230 248 -66 66 hstemhm
          37 135 121 102 -35 153 hintmask 11010110
          252 -53 callsubr
          27 46 76 8 69 36 53 73 rlinecurve
          -54 42 rlineto
          hintmask 10101101
          -55 -40 -68 -25 -54 hhcurveto
          -52 -32 23 39 -21 hvcurveto
          -16 30 -10 37 72 vvcurveto
          158 49 53 84 46 41 -16 -24 18 vhcurveto
          -33 -10 -17 -26 -33 vvcurveto
          hintmask 11010101
          -40 callsubr
          -165 -98 -112 -173 -63 13 -57 23 -43 vhcurveto
          34 -64 56 -38 79 -8 -57 -75 55 callsubr
          hintmask 11010110
          -74 callgsubr
        </CharString>
        <CharString name="ccircumflex">
          44 callsubr
          240 -20 hstemhm
          37 135 188 153 vstemhm
          -98 callsubr
          hintmask 11111000
          -40 callsubr
          vhcurveto
          70 240 -89 callgsubr
        </CharString>
        <CharString name="cdotaccent">
          -76 -10 82 230 248 -66 66 59 155 hstemhm
          37 135 59 155 -26 153 hintmask 10111010
          -98 callsubr
          -40 callsubr
          vhcurveto
          hintmask 11011100
          -69 136 rmoveto
          -93 callsubr
          endchar
        </CharString>
        <CharString name="cedilla">
          -368 33 callsubr
          -50 123 hstemhm
          142 102 hintmask 11010000
          101 -53 callsubr
          rlineto
          hintmask 10110000
          42 70 rlineto
          -74 hlineto
          -77 -100 -32 callgsubr
          -74 callgsubr
        </CharString>
        <CharString name="cent">
          -67 -87 -21 760 -20 hstem
          41 135 80 77 31 153 vstem
          256 -108 rmoveto
          77 102 hlineto
          73 10 66 35 51 71 -54 42 rcurveline
          -34 -47 -54 -25 -48 -7 rrcurveto
          409 vlineto
          36 -4 30 -14 15 -20 rrcurveto
          -33 -10 -17 -26 -33 vvcurveto
          -34 18 -39 52 47 36 32 60 86 -76 60 -108 9 vhcurveto
          103 -77 -106 vlineto
          -136 -20 -79 -106 -155 vvcurveto
          -63 13 -57 23 -43 vhcurveto
          35 -66 59 -38 85 -7 rrcurveto
          -54 143 rmoveto
          -16 30 -10 37 72 vvcurveto
          121 29 59 51 21 vhcurveto
          -393 vlineto
          -24 10 -17 19 -13 24 rrcurveto
          endchar
        </CharString>
        <CharString name="circumflex">
          -270 660 -21 151 -20 hstem
          238 790 -89 callgsubr
        </CharString>
        <CharString name="circumflex.cap">
          -270 790 -21 121 -20 hstem
          238 890 -92 callsubr
        </CharString>
        <CharString name="colon">
          -345 -39 158 192 158 hstem
          60 157 vstem
          60 38 rmoveto
          -78 callgsubr
          350 vmoveto
          16 callgsubr
        </CharString>
        <CharString name="comma">
          -368 -137 32 callsubr
          45 164 vstem
          125 133 -23 callsubr
          endchar
        </CharString>
        <CharString name="commaaccent">
          -442 -27 callgsubr
          hstem
          35 137 vstem
          100 -44 rmoveto
          -102 callsubr
        </CharString>
        <CharString name="copyright">
          230 -10 55 124 53 195 142 -49 49 -6 -20 142 55 hstemhm
          42 77 117 94 405 75 hintmask 1101011110000000
          418 -10 rmoveto
          231 161 162 209 208 -153 161 -238 -216 -161 -161 -208 -209 161 -162 215 hvcurveto
          55 vmoveto
          -167 -132 136 180 179 133 135 167 190 126 -136 -178 -179 -131 -137 -186 hvcurveto
          7 465 rmoveto
          hintmask 1110011110000000
          45 35 -31 -62 10 hvcurveto
          62 hlineto
          hintmask 1100111110000000
          136 -59 vlineto
          -10 -33 rlineto
          hintmask 1101011110000000
          29 -28 -27 10 -35 hhcurveto
          -37 -43 -8 -25 -30 hvcurveto
          -44 -36 -28 -64 -66 vvcurveto
          -59 21 -54 38 -36 vhcurveto
          -28 29 40 -14 57 hhcurveto
          88 57 46 97 19 hvcurveto
          -59 hlineto
          -57 -13 -36 -33 -45 hhcurveto
          -29 -33 14 29 -16 hvcurveto
          -15 27 -9 36 41 vvcurveto
          45 10 35 20 29 vhcurveto
          20 14 23 12 28 hhcurveto
          endchar
        </CharString>
        <CharString name="d">
          14 -10 67 425 68 230 -20 hstem
          -11 callgsubr
          vstem
          -94 callgsubr
          endchar
        </CharString>
        <CharString name="dagger">
          -162 -49 -21 563 83 -66 66 -66 83 197 -20 hstemhm
          28 235 -88 88 -66 66 -66 88 -88 235 hintmask 1100100010000000
          197 505 rmoveto
          -222 vlineto
          hintmask 1100101000000000
          -171 -22 -93 -42 vvcurveto
          -28 18 -19 37 vhcurveto
          hintmask 1100100010000000
          36 19 18 29 hvcurveto
          hintmask 1001110000000000
          42 -22 93 171 vvcurveto
          222 vlineto
          5 5 rlineto
          hintmask 1100100001000000
          28 58 -17 31 hhcurveto
          29 18 17 33 hvcurveto
          hintmask 1001110000000000
          34 -19 16 -28 vhcurveto
          hintmask 1100101000000000
          -31 -59 -17 -27 hhcurveto
          -5 5 rlineto
          hintmask 1100100010000000
          38 22 95 29 vvcurveto
          29 -19 18 -36 vhcurveto
          hintmask 1100101000000000
          -37 -18 -19 -28 hvcurveto
          hintmask 1100100100000000
          -29 22 -95 -38 vvcurveto
          -5 -5 rlineto
          hintmask 1001110000000000
          57 callgsubr
          hintmask 1100110000000000
          -33 18 -17 29 vhcurveto
          hintmask 1010100100000000
          31 57 17 29 hhcurveto
          endchar
        </CharString>
        <CharString name="daggerdbl">
          -148 -49 -21 197 83 -66 66 -66 83 266 83 -66 66 -66 83 197 -20 hstemhm
          35 235 -88 110 -88 66 -66 235 hintmask 1100001110000000
          270 371 rmoveto
          45 1 44 4 45 vhcurveto
          5 5 rlineto
          hintmask 1100100100010000
          27 54 -17 31 hhcurveto
          29 18 17 33 hvcurveto
          hintmask 1100001110000000
          34 -19 16 -28 vhcurveto
          hintmask 1100100100100000
          -31 -59 -17 -27 hhcurveto
          -5 5 rlineto
          hintmask 1100100101000000
          38 22 95 29 vvcurveto
          29 -19 18 -36 -37 -18 -19 -28 vhcurveto
          hintmask 1100100100100000
          -29 22 -95 -38 vvcurveto
          -5 -5 rlineto
          hintmask 1100001110000000
          57 callgsubr
          hintmask 1100100110000000
          -33 18 -17 29 vhcurveto
          hintmask 1100010100100000
          31 52 17 29 hhcurveto
          5 -5 rlineto
          4 -45 1 -44 -45 vvcurveto
          -52 -1 -52 -4 -52 vhcurveto
          -5 -5 rlineto
          hintmask 1001100110000000
          -29 -52 17 -31 hhcurveto
          -29 -18 -17 -33 hvcurveto
          hintmask 1100100110000000
          -34 19 -16 28 vhcurveto
          hintmask 1010100100100000
          31 57 17 29 hhcurveto
          5 -5 rlineto
          hintmask 1100100101000000
          -38 -22 -95 -29 vvcurveto
          -28 18 -19 37 36 19 18 29 vhcurveto
          hintmask 1001100110000000
          29 -22 95 38 vvcurveto
          5 5 rlineto
          hintmask 1100100100010000
          28 58 -17 31 hhcurveto
          28 19 16 34 hvcurveto
          hintmask 1001100110000000
          33 -18 17 -29 vhcurveto
          hintmask 1100100110000000
          -31 -54 -17 -27 hhcurveto
          -5 5 rlineto
          -4 52 -1 52 52 vvcurveto
          endchar
        </CharString>
        <CharString name="dcaron">
          14 -10 67 425 68 40 190 10 -20 hstemhm
          -11 callgsubr
          46 89 -70 90 hintmask 11101110
          -94 callgsubr
          262 324 rmoveto
          hintmask 11011101
          2 callsubr
          hintmask 11101110
          -9 callsubr
        </CharString>
        <CharString name="dcroat">
          14 -10 67 425 68 51 76 -76 179 hstemhm
          -11 callgsubr
          hintmask 11101100
          321 601 rmoveto
          92 -129 hlineto
          58 -39 -47 20 -62 hhcurveto
          -67 -54 -23 -42 -38 hvcurveto
          -42 -47 -26 -81 -88 vvcurveto
          -91 28 -78 41 -47 vhcurveto
          -40 35 48 -23 73 hhcurveto
          69 51 20 62 41 hvcurveto
          8 -82 -19 callsubr
          526 62 76 -62 vlineto
          hintmask 11011100
          103 -3 callsubr
          vlineto
          77 -19 rlineto
          hintmask 11101100
          -28 -92 vlineto
          92 -411 rmoveto
          -70 -13 -59 -21 -34 vhcurveto
          -91 callgsubr
          endchar
        </CharString>
        <CharString name="ddotbelow">
          14 -10 67 425 68 230 -20 hstem
          -11 callgsubr
          vstem
          -94 callgsubr
          endchar
        </CharString>
        <CharString name="degree">
          -251 458 51 169 52 hstem
          37 80 138 80 vstem
          186 458 rmoveto
          85 64 59 78 80 -61 55 -88 -86 -63 -59 -78 -80 60 -55 89 hvcurveto
          2 51 rmoveto
          -41 -30 36 49 49 28 35 39 42 29 -35 -50 -50 -27 -34 -40 hvcurveto
          endchar
        </CharString>
        <CharString name="dieresis">
          -215 617 147 hstem
          15 34 callgsubr
          vstem
          15 690 -97 callsubr
        </CharString>
        <CharString name="dieresis.cap">
          -215 735 155 hstem
          11 155 75 155 vstem
          11 812 rmoveto
          -93 callsubr
          230 hmoveto
          -93 callsubr
          endchar
        </CharString>
        <CharString name="divide">
          -107 100 150 68 69 67 150 hstem
          187 149 vstem
          39 318 rmoveto
          438 69 -438 hlineto
          148 -213 rmoveto
          20 callsubr
          354 vmoveto
          20 callsubr
          endchar
        </CharString>
        <CharString name="dollar">
          -34 -109 -21 120 69 792 -20 hstemhm
          35 152 -140 140 70 77 48 147 -112 138 hintmask 11110101
          257 -130 rmoveto
          77 120 hlineto
          139 6 82 73 115 vvcurveto
          109 -73 54 -148 70 vhcurveto
          243 vlineto
          38 -4 28 -17 18 -33 rrcurveto
          hintmask 11101110
          -23 -14 -13 -31 -25 vvcurveto
          -39 33 -19 36 49 29 34 49 79 -73 75 -122 14 vhcurveto
          122 -77 -120 vlineto
          -127 -5 -83 -75 -121 vvcurveto
          -137 108 -50 102 -40 vhcurveto
          -244 vlineto
          -54 3 -36 23 -22 30 rrcurveto
          21 11 21 22 33 vvcurveto
          38 -28 29 -45 vhcurveto
          hintmask 11110101
          -50 -29 -37 -49 -82 83 -80 139 -10 hvcurveto
          160 166 rmoveto
          -56 -33 -33 -50 -7 vhcurveto
          215 vlineto
          46 -28 37 -31 -60 vvcurveto
          -239 402 rmoveto
          57 24 39 55 6 vhcurveto
          -211 vlineto
          -56 34 -23 20 55 vvcurveto
          endchar
        </CharString>
        <CharString name="dotaccent">
          -437 609 155 hstem
          15 155 vstem
          15 686 rmoveto
          -93 callsubr
          endchar
        </CharString>
        <CharString name="dotaccent.cap">
          -437 740 155 hstem
          15 155 vstem
          15 817 rmoveto
          -93 callsubr
          endchar
        </CharString>
        <CharString name="dotbelow">
          -437 -206 158 hstem
          15 157 vstem
          15 -129 rmoveto
          16 callgsubr
        </CharString>
        <CharString name="dotlessi">
          -34 callsubr
          -21 callgsubr
          hintmask 11010000
          -43 callgsubr
          hintmask 11100000
          -79 callsubr
          endchar
        </CharString>
        <CharString name="dotlessj">
          48 callgsubr
          hstemhm
          -89 132 55 127 hintmask 10111000
          -9 callgsubr
          hintmask 01111000
          38 -26 20 -37 -45 -24 -30 -38 -69 80 -30 68 71 48 3 callgsubr
          endchar
        </CharString>
        <CharString name="e">
          -50 callsubr
          hstem
          38 132 220 131 vstem
          -106 callsubr
          endchar
        </CharString>
        <CharString name="eacute">
          -50 callsubr
          89 157 hstem
          38 132 220 131 vstem
          -106 callsubr
          -49 158 -102 callgsubr
          endchar
        </CharString>
        <CharString name="ebreve">
          -50 callsubr
          49 54 callsubr
          hstemhm
          38 132 -50 63 207 54 -54 131 hintmask 1110110010000000
          -106 callsubr
          98 299 rmoveto
          hintmask 1111010100000000
          -10 callgsubr
          hintmask 1110101100000000
          -81 callgsubr
        </CharString>
        <CharString name="ecaron">
          -50 callsubr
          230 -20 hstem
          38 132 220 131 vstem
          -106 callsubr
          144 299 -73 callgsubr
        </CharString>
        <CharString name="ecircumflex">
          -50 callsubr
          240 -20 hstem
          38 132 220 131 vstem
          -106 callsubr
          64 309 -89 callgsubr
        </CharString>
        <CharString name="edieresis">
          -50 callsubr
          67 147 hstemhm
          38 132 -80 34 callgsubr
          -77 131 hintmask 11111001
          -106 callsubr
          hintmask 11110110
          -193 209 -97 callsubr
        </CharString>
        <CharString name="edotaccent">
          -50 callsubr
          59 155 hstem
          38 132 29 155 36 131 vstem
          -106 callsubr
          -84 205 rmoveto
          -93 callsubr
          endchar
        </CharString>
        <CharString name="edotbelow">
          -50 callsubr
          hstem
          38 132 220 131 vstem
          -106 callsubr
          endchar
        </CharString>
        <CharString name="egrave">
          -50 callsubr
          89 157 hstem
          38 132 220 131 vstem
          -106 callsubr
          14 234 -76 callgsubr
        </CharString>
        <CharString name="eight">
          -41 -10 69 603 69 hstemhm
          43 100 -67 115 220 95 -95 128 hintmask 11011000
          506 569 rmoveto
          105 -86 57 -128 -142 -74 -70 -114 -70 28 -46 74 -53 vhcurveto
          hintmask 11100100
          -93 -53 -42 -62 -84 vvcurveto
          -119 86 -70 147 157 106 80 127 81 -43 57 -99 54 vhcurveto
          hintmask 11101000
          69 41 40 67 72 vvcurveto
          -259 -234 rmoveto
          125 -76 39 -32 -59 vvcurveto
          -68 -53 -41 -81 -81 -53 41 83 70 37 45 67 37 vhcurveto
          98 92 rmoveto
          hintmask 11011000
          -120 51 -34 45 51 vvcurveto
          57 44 31 66 69 46 -34 -65 -53 -31 -55 -40 -28 vhcurveto
          endchar
        </CharString>
        <CharString name="eightinferior">
          -276 54 callgsubr
          hstemhm
          50 3 callsubr
          hintmask 11010000
          283 251 -64 callgsubr
        </CharString>
        <CharString name="eightsuperior">
          -274 397 42 256 35 hstemhm
          51 3 callsubr
          hintmask 11010000
          284 658 -64 callgsubr
        </CharString>
        <CharString name="ellipsis">
          102 -25 158 hstem
          45 157 86 157 77 157 vstem
          45 52 rmoveto
          -78 callgsubr
          243 hmoveto
          -78 callgsubr
          234 hmoveto
          16 callgsubr
        </CharString>
        <CharString name="emacron">
          -50 callsubr
          85 95 hstem
          38 132 220 131 vstem
          -106 callsubr
          -147 154 rmoveto
          -14 callsubr
        </CharString>
        <CharString name="emdash">
          302 234 88 hstem
          61 234 rmoveto
          801 88 -801 hlineto
          endchar
        </CharString>
        <CharString name="endash">
          -6 234 88 hstem
          61 234 rmoveto
          494 88 -494 hlineto
          endchar
        </CharString>
        <CharString name="eng">
          23 -190 52 -52 159 52 -21 462 88 -10 -20 hstemhm
          108 127 32 132 55 127 hintmask 10110111
          454 -24 rmoveto
          -97 -13 -17 -25 -16 -15 8 9 -2 vhcurveto
          11 11 5 12 19 vvcurveto
          hintmask 01110111
          24 -24 24 -40 -50 -18 -29 -35 -55 52 -40 88 67 60 3 callgsubr
          196 vlineto
          114 -11 64 -26 37 vhcurveto
          34 -25 -45 20 -53 hhcurveto
          -78 -72 -42 -68 -40 hvcurveto
          -4 hlineto
          hintmask 10101111
          -52 callgsubr
          -390 vlineto
          -65 callsubr
          55 16 34 29 26 vhcurveto
          hintmask 10110111
          23 26 24 12 37 hhcurveto
          27 33 -15 -32 11 27 callgsubr
          endchar
        </CharString>
        <CharString name="eogonek">
          -66 -210 73 128 81 184 64 161 69 hstemhm
          38 132 -30 102 148 131 hintmask 11110110
          251 -91 callsubr
          29 26 35 27 25 hvcurveto
          104 6 72 50 44 63 -54 42 rcurveline
          -54 -41 -62 -26 -59 hhcurveto
          -53 -36 25 46 -21 hvcurveto
          -13 29 -7 37 47 vvcurveto
          349 hlineto
          3 30 0 10 15 vvcurveto
          149 -91 90 -145 vhcurveto
          hintmask 11111010
          -158 -89 -107 -186 -59 9 -51 20 -41 hvcurveto
          30 -62 53 -38 71 -12 rrcurveto
          hintmask 11110110
          -53 -36 -28 -41 -42 -28 callsubr
          32 691 rmoveto
          67 40 -49 -86 hvcurveto
          -26 vlineto
          hintmask 11111010
          -220 hlineto
          109 7 36 52 70 hhcurveto
          endchar
        </CharString>
        <CharString name="equal">
          -66 220 89 99 88 hstem
          64 408 rmoveto
          428 88 -428 hlineto
          -276 vmoveto
          428 89 -428 hlineto
          endchar
        </CharString>
        <CharString name="eth">
          -40 -10 70 298 72 309 -20 hstemhm
          24 137 236 146 -125 125 hintmask 11111000
          161 210 rmoveto
          98 46 50 68 84 38 -50 -98 -99 -37 -51 -85 -68 -46 51 99 vhcurveto
          253 141 rmoveto
          49 -37 -67 30 -73 hhcurveto
          -127 -86 -88 -131 -135 91 -86 145 182 101 109 195 120 -43 102 -93 115 hvcurveto
          72 32 -32 63 -89 -39 -36 35 -5 4 -17 13 rlinecurve
          -78 -28 24 -22 15 -16 18 -22 rlinecurve
          -117 -52 29 -64 133 58 rlineto
          hintmask 11110100
          53 -63 36 -88 5 -91 rrcurveto
          endchar
        </CharString>
        <CharString name="etilde">
          -50 callsubr
          63 -38 callsubr
          38 132 220 131 hintmask 11101011
          -106 callsubr
          -206 143 -40 callgsubr
          hintmask 11110011
          -96 callgsubr
          hintmask 11100111
          -80 callgsubr
        </CharString>
        <CharString name="exclam">
          -331 -25 158 597 -20 hstemhm
          74 144 -115 86 hintmask 11010000
          189 205 rmoveto
          103 16 144 48 vvcurveto
          hintmask 11100000
          6 49 7 46 56 vvcurveto
          43 -18 36 -52 -50 -24 -33 -47 -55 9 -46 4 -49 vhcurveto
          hintmask 11010000
          4 -48 12 -144 -103 vvcurveto
          -36 -153 rmoveto
          16 callgsubr
        </CharString>
        <CharString name="exclamdown">
          -351 -169 -21 598 158 hstemhm
          64 144 -115 86 hintmask 11010000
          93 335 rmoveto
          -103 -12 -144 -4 -48 vhcurveto
          hintmask 11100000
          -4 -49 -9 -46 -55 vvcurveto
          -47 24 -33 50 52 18 36 43 56 -7 46 -6 49 vhcurveto
          hintmask 11010000
          48 -16 144 103 vvcurveto
          -122 150 rmoveto
          16 callgsubr
        </CharString>
        <CharString name="f">
          -233 21 -21 460 80 82 168 -53 -20 hstemhm
          114 127 89 129 hintmask 11011100
          17 460 rmoveto
          97 -385 hlineto
          -77 -61 callgsubr
          312 19 callsubr
          385 128 80 -128 50 vlineto
          57 0 54 43 28 vhcurveto
          6 10 11 2 11 hhcurveto
          11 12 -6 -12 7 hvcurveto
          -11 -11 -5 -13 -13 vvcurveto
          hintmask 11101100
          -38 24 -22 43 38 24 24 43 58 -51 43 -79 -131 -84 -82 -143 vhcurveto
          -27 vlineto
          -97 -14 rlineto
          endchar
        </CharString>
        <CharString name="f_b">
          343 0 57 -46 -21 485 75 -10 -20 217 -44 callsubr
          240 135 hintmask 1010011110000000
          927 275 rmoveto
          82 -24 81 -41 49 vhcurveto
          44 -37 -53 19 -68 hhcurveto
          -64 -48 -17 -51 -40 hvcurveto
          298 23 callgsubr
          hintmask 1010101110000000
          33 -28 -43 17 -60 hhcurveto
          -160 -72 -92 -148 hvcurveto
          hintmask 1001101110000000
          -19 callgsubr
          hintmask 1010101110000000
          -22 callgsubr
          -475 77 vlineto
          30 101 rlineto
          hintmask 0110101110000000
          -86 42 51 -25 72 hhcurveto
          67 53 22 43 38 hvcurveto
          45 51 27 83 86 vvcurveto
          -375 -5 rmoveto
          75 13 57 22 35 vhcurveto
          33 21 30 13 33 hhcurveto
          40 28 -19 -34 19 hvcurveto
          20 -36 14 -56 -74 vvcurveto
          -72 -13 -54 -22 -34 vhcurveto
          hintmask 1001101110000000
          -30 -19 -27 -17 -36 hhcurveto
          -39 -28 19 34 -21 hvcurveto
          -21 34 -14 48 78 vvcurveto
          -314 305 rmoveto
          108 29 54 75 57 26 -40 -67 vhcurveto
          -90 -187 vlineto
          endchar
        </CharString>
        <CharString name="f_f">
          76 21 -21 490 50 92 158 -68 38 hstemhm
          111 97 213 97 115 103 hintmask 11101110
          14 475 rmoveto
          97 -400 hlineto
          -77 -61 callgsubr
          272 56 vlineto
          -68 19 rlineto
          400 187 -400 vlineto
          -57 -61 callgsubr
          292 19 callsubr
          400 128 65 -128 50 vlineto
          55 4 52 11 18 vhcurveto
          12 7 18 10 15 hhcurveto
          19 15 -6 -12 12 hvcurveto
          -10 -11 -6 -15 -18 vvcurveto
          -35 25 -23 41 37 30 25 47 58 -63 43 -97 -62 -49 -26 -48 -32 vhcurveto
          hintmask 11011110
          27 -31 -57 17 -63 hhcurveto
          -130 -75 -75 -135 hvcurveto
          -19 callgsubr
          411 14 rmoveto
          -187 50 hlineto
          76 35 41 56 74 22 -42 -102 vhcurveto
          endchar
        </CharString>
        <CharString name="f_f_b">
          657 0 57 -46 -21 485 75 -10 -20 187 53 -23 23 -23 -44 callsubr
          187 127 240 135 hintmask 1010000111110000
          1241 8 callgsubr
          23 callgsubr
          hintmask 1010001011110000
          33 -22 -37 17 -47 hhcurveto
          -83 -70 -21 -67 -48 hvcurveto
          hintmask 1010010011110000
          35 -35 -32 23 -64 hhcurveto
          -152 -87 -76 -134 hvcurveto
          hintmask 1001100011110000
          -19 callgsubr
          hintmask 1010100011110000
          -22 callgsubr
          -15 callgsubr
          -475 77 vlineto
          30 101 rlineto
          hintmask 0110100011110000
          13 callsubr
          -1 rmoveto
          74 14 54 21 35 vhcurveto
          31 19 23 15 43 hhcurveto
          47 20 -21 -32 18 hvcurveto
          20 -37 15 -53 -73 vvcurveto
          -73 -13 -56 -21 -34 vhcurveto
          hintmask 1001010011110000
          -28 -18 -25 -19 -42 hhcurveto
          -46 -19 20 33 -21 hvcurveto
          -23 34 -12 56 74 vvcurveto
          -314 301 rmoveto
          108 26 54 75 56 30 -40 -67 vhcurveto
          -90 -187 vlineto
          -314 35 rmoveto
          hintmask 1001100011110000
          86 28 46 72 67 20 -53 -106 vhcurveto
          -8 -187 vlineto
          endchar
        </CharString>
        <CharString name="f_f_h">
          682 21 58 callsubr
          -75 75 -10 -20 187 53 -23 23 21 callgsubr
          219 127 hintmask 1100000111110000
          1084 -16 callgsubr
          -11 64 -26 37 vhcurveto
          34 -25 -45 20 -53 hhcurveto
          -75 -71 -39 -65 -40 hvcurveto
          334 23 callgsubr
          hintmask 1100001011110000
          33 -23 -34 17 -47 hhcurveto
          -83 -63 -32 -60 -37 hvcurveto
          hintmask 1010010011110000
          43 -37 -47 19 -66 hhcurveto
          -152 -87 -76 -134 hvcurveto
          hintmask 1001100011110000
          -19 callgsubr
          hintmask 1010100011110000
          -22 callgsubr
          -400 vlineto
          -67 -61 callgsubr
          272 -60 callgsubr
          186 -400 vlineto
          -77 -71 callgsubr
          -67 19 rlineto
          241 vlineto
          48 15 38 30 26 vhcurveto
          hintmask 1100010011110000
          23 26 26 10 35 hhcurveto
          32 26 -14 -32 13 hvcurveto
          10 -25 6 -36 -86 vvcurveto
          -532 307 rmoveto
          108 39 54 76 48 23 -40 -67 vhcurveto
          hintmask 1001100011110000
          -90 52 callgsubr
          86 33 46 72 62 20 24 callsubr
        </CharString>
        <CharString name="f_f_i">
          339 52 callsubr
          67 183 -83 53 -23 56 callsubr
          186 127 hintmask 11001111
          14 475 rmoveto
          97 -400 hlineto
          -16 callsubr
          -67 -61 callgsubr
          272 -60 callgsubr
          186 -400 vlineto
          -68 callgsubr
          465 -313 35 vlineto
          88 13 35 29 22 vhcurveto
          16 21 22 1 24 hhcurveto
          34 33 -11 -17 21 hvcurveto
          -12 -14 -4 -16 -17 vvcurveto
          hintmask 11100111
          -33 28 -22 32 54 19 25 42 callgsubr
          hintmask 11010111
          -1 callgsubr
          33 45 56 70 28 -45 -114 vhcurveto
          endchar
        </CharString>
        <CharString name="f_f_j">
          317 -205 52 -52 168 58 59 callgsubr
          68 182 -83 53 -23 56 callsubr
          0 132 55 126 hintmask 1011100110100000
          14 475 rmoveto
          97 -400 hlineto
          -16 callsubr
          -67 -61 callgsubr
          272 -59 callsubr
          -499 vlineto
          -97 -21 -32 -41 -21 -16 6 9 -2 vhcurveto
          hintmask 0111001101100000
          32 11 14 15 19 vvcurveto
          35 -26 21 -34 -47 -25 -29 -44 -55 52 -40 71 77 62 32 57 30 vhcurveto
          16 36 5 51 99 vvcurveto
          470 -313 35 vlineto
          88 14 39 26 19 vhcurveto
          13 18 27 3 24 hhcurveto
          34 33 -11 -17 21 hvcurveto
          -11 -20 -5 -15 -17 vvcurveto
          hintmask 1011100110100000
          -33 32 -16 32 48 21 24 42 callgsubr
          hintmask 1011010110100000
          -1 callgsubr
          34 45 54 74 25 -45 -114 vhcurveto
          endchar
        </CharString>
        <CharString name="f_f_k">
          624 6 callsubr
          hintmask 11001111
          995 -24 callsubr
          hintmask 11010111
          33 -29 -45 17 -60 hhcurveto
          -83 -63 -32 -60 -37 hvcurveto
          hintmask 11100111
          43 -37 -47 19 -66 hhcurveto
          -133 -76 -76 -134 hvcurveto
          -19 callgsubr
          -22 callgsubr
          -400 vlineto
          -67 -61 callgsubr
          272 -60 callgsubr
          186 -400 vlineto
          -77 -61 callgsubr
          281 56 -48 callgsubr
          128 vlineto
          58 49 131 -177 rlineto
          -502 500 rmoveto
          hintmask 11010111
          108 31 54 67 51 37 -38 -64 vhcurveto
          -95 52 callgsubr
          hintmask 11100111
          86 33 46 61 61 32 24 callsubr
        </CharString>
        <CharString name="f_f_l">
          343 6 callsubr
          hintmask 11010111
          653 790 rmoveto
          -83 -63 -32 -60 -37 hvcurveto
          hintmask 11001111
          43 -37 -47 19 -66 hhcurveto
          -133 -76 -76 -134 hvcurveto
          -19 callgsubr
          -22 callgsubr
          -400 vlineto
          -67 -61 callgsubr
          272 -60 callgsubr
          186 -400 vlineto
          -68 callgsubr
          705 23 callgsubr
          hintmask 11010111
          33 -29 -45 17 -60 hhcurveto
          -101 -215 rmoveto
          108 27 54 68 55 36 -40 -67 vhcurveto
          -90 52 callgsubr
          hintmask 11100111
          86 32 46 59 71 25 24 callsubr
        </CharString>
        <CharString name="f_h">
          369 21 -21 475 75 -10 -20 217 -44 callsubr
          219 127 hintmask 11001111
          771 -16 callgsubr
          -10 64 -27 37 vhcurveto
          38 -28 -49 16 -66 hhcurveto
          -65 -67 -36 -68 -34 hvcurveto
          334 23 callgsubr
          hintmask 11010111
          33 -28 -47 17 -61 hhcurveto
          -140 -87 -91 -149 hvcurveto
          hintmask 10110111
          -19 callgsubr
          hintmask 11010111
          -22 callgsubr
          -400 vlineto
          -77 -71 callgsubr
          -67 19 rlineto
          245 vlineto
          46 8 38 28 30 vhcurveto
          21 20 31 9 29 hhcurveto
          41 30 22 callsubr
          -533 307 rmoveto
          107 38 55 60 57 32 -38 -64 vhcurveto
          hintmask 10110111
          -95 -187 vlineto
          endchar
        </CharString>
        <CharString name="f_i">
          26 52 callsubr
          67 183 -53 56 callsubr
          hintmask 11011100
          14 475 rmoveto
          97 -400 hlineto
          -16 callsubr
          -68 callgsubr
          465 -314 50 vlineto
          83 14 35 33 16 vhcurveto
          8 17 24 5 24 hhcurveto
          37 26 -9 -19 23 hvcurveto
          -11 -13 -6 -15 -14 vvcurveto
          hintmask 11101100
          -38 31 -22 32 49 22 23 48 68 -80 44 -121 -148 -93 -92 -148 vhcurveto
          -19 callgsubr
          endchar
        </CharString>
        <CharString name="f_j">
          4 -205 52 -52 172 54 59 callgsubr
          67 183 -53 53 hstemhm
          111 127 0 132 55 127 hintmask 1011011010000000
          552 540 rmoveto
          -314 50 hlineto
          83 15 37 33 17 vhcurveto
          6 17 21 4 24 hhcurveto
          37 28 -9 -19 23 hvcurveto
          -12 -17 -4 -18 -17 vvcurveto
          hintmask 1011101010000000
          -33 33 -17 33 50 17 29 39 67 -80 48 -121 -148 -93 -92 -148 vhcurveto
          -19 callgsubr
          -22 callgsubr
          -499 vlineto
          -97 -15 -32 -47 -21 -16 6 9 -2 vhcurveto
          hintmask 0111100110000000
          32 10 14 19 19 vvcurveto
          35 -22 22 -38 -54 -18 -34 -43 -55 52 -40 71 77 62 32 57 30 30 callgsubr
          endchar
        </CharString>
        <CharString name="f_k">
          311 52 callsubr
          197 -44 callsubr
          hintmask 11011100
          682 -24 callsubr
          hintmask 11101100
          33 -28 -47 17 -61 hhcurveto
          -140 -87 -91 -149 hvcurveto
          -19 callgsubr
          -22 callgsubr
          -400 vlineto
          -77 -61 callgsubr
          281 56 -48 callgsubr
          128 vlineto
          57 50 132 -178 rlineto
          -503 500 rmoveto
          107 36 55 58 65 28 -38 -64 vhcurveto
          -95 -187 vlineto
          endchar
        </CharString>
        <CharString name="f_l">
          30 52 callsubr
          197 -44 callsubr
          hintmask 11101100
          338 790 rmoveto
          -141 -86 -92 -148 hvcurveto
          -19 callgsubr
          -22 callgsubr
          -400 vlineto
          -68 callgsubr
          hintmask 11011100
          705 23 callgsubr
          hintmask 11101100
          33 -28 -48 17 -60 hhcurveto
          -100 -215 rmoveto
          108 37 54 61 51 38 -40 -67 vhcurveto
          -90 -187 vlineto
          endchar
        </CharString>
        <CharString name="five">
          -56 -10 67 324 70 159 110 -110 142 hstemhm
          41 164 188 138 hintmask 11011100
          507 752 rmoveto
          -72 hlineto
          hintmask 11101100
          -18 -32 rlineto
          -288 hlineto
          -53 -359 74 -30 rlineto
          33 26 42 17 53 hhcurveto
          82 40 -62 -97 -99 -49 -66 -83 -77 -37 38 47 -9 hvcurveto
          42 25 30 32 32 -17 28 -54 -48 -45 -42 -69 -87 87 -76 146 160 97 95 142 137 -92 87 -139 -58 -44 -15 -29 -39 hvcurveto
          31 203 rlineto
          272 hlineto
          endchar
        </CharString>
        <CharString name="fiveeighths">
          28 54 callgsubr
          69 39 -39 122 47 40 55 74 -10 -20 34 -20 hstemhm
          33 89 64 86 97 3 callsubr
          hintmask 1110110011010000
          91 -68 callsubr
          125 -479 -49 callsubr
          hintmask 1110110011100100
          -54 callsubr
          hintmask 1110110011010000
          -35 callsubr
          hintmask 1110100111101000
          -92 callgsubr
          -253 543 rmoveto
          -52 hlineto
          hintmask 1110101011101000
          -8 -14 rlineto
          -130 hlineto
          -24 -158 50 -18 rlineto
          15 10 25 2 11 hhcurveto
          34 12 -34 -31 -54 -26 -11 -23 -22 -15 12 10 -4 hvcurveto
          14 12 12 16 hvcurveto
          hintmask 1101110011101000
          15 -12 18 -26 -37 -14 -24 -24 -53 55 -21 59 83 42 43 64 62 -41 40 -62 -26 -19 -7 -15 -18 vhcurveto
          11 77 rlineto
          116 hlineto
          endchar
        </CharString>
        <CharString name="fiveinferior">
          -281 -10 14 callgsubr
          332 -55 callgsubr
        </CharString>
        <CharString name="fivesuperior">
          -281 392 14 callgsubr
          734 -55 callgsubr
        </CharString>
        <CharString name="four">
          -49 21 -21 198 72 460 -20 hstem
          312 127 vstem
          312 75 rmoveto
          -97 -61 callgsubr
          301 56 -48 callgsubr
          123 99 vlineto
          10 72 rlineto
          -109 460 -109 hlineto
          -321 -473 15 -59 rlineto
          288 hlineto
          390 vmoveto
          -318 -204 vlineto
          endchar
        </CharString>
        <CharString name="fourinferior">
          -281 0 25 callgsubr
          49 11 callgsubr
          hintmask 01110000
          -56 callgsubr
          endchar
        </CharString>
        <CharString name="foursuperior">
          -281 392 25 callgsubr
          441 11 callgsubr
          hintmask 01110000
          -56 callgsubr
          endchar
        </CharString>
        <CharString name="fraction">
          -582 45 callsubr
          -215 -68 callsubr
          endchar
        </CharString>
        <CharString name="g">
          -41 callsubr
          4 callgsubr
          206 -8 callsubr
          hintmask 1011100010010000
          -69 callsubr
          hintmask 1011101001000000
          -45 callsubr
          hintmask 1011011000100000
          -7 callgsubr
          hintmask 0101100101000000
          -72 callgsubr
          hintmask 1011101000010000
          -88 callgsubr
          hintmask 1011101001000000
          -33 callsubr
          endchar
        </CharString>
        <CharString name="gbreve">
          -41 callsubr
          59 54 callsubr
          4 callgsubr
          -47 63 190 71 -71 -8 callsubr
          hintmask 1011101000100001
          -69 callsubr
          hintmask 1011101010000100
          -45 callsubr
          hintmask 1011011010000010
          -7 callgsubr
          hintmask 0101101001001000
          -72 callgsubr
          hintmask 1011101010000001
          -88 callgsubr
          hintmask 1011100110001000
          -33 callsubr
          204 398 rmoveto
          hintmask 1011101010001000
          -10 callgsubr
          hintmask 1011100100011000
          -81 callgsubr
        </CharString>
        <CharString name="gcircumflex">
          -41 callsubr
          250 -20 4 callgsubr
          206 -8 callsubr
          hintmask 1011101001001000
          -69 callsubr
          hintmask 1011101100100000
          -45 callsubr
          hintmask 1011011100010000
          -7 callgsubr
          hintmask 0101101010100000
          -72 callgsubr
          hintmask 1011101100001000
          -88 callgsubr
          hintmask 1011101100100000
          -33 callsubr
          161 408 -89 callgsubr
        </CharString>
        <CharString name="gcommaaccent">
          -41 callsubr
          98 100 96 -20 4 callgsubr
          28 137 41 -8 callsubr
          hintmask 1011101100110010
          -69 callsubr
          hintmask 1011101110011000
          -45 callsubr
          hintmask 1011011110010100
          -7 callgsubr
          hintmask 0101101101011000
          -72 callgsubr
          hintmask 1011101110010010
          -88 callgsubr
          hintmask 1011101110011000
          -33 callsubr
          90 256 rmoveto
          44 21 21 34 23 -14 22 -25 -7 -8 -2 -3 -2 hvcurveto
          -3 2 2 20 16 20 34 27 rlinecurve
          -30 32 rlineto
          -71 -37 -29 -42 -52 vvcurveto
          -40 28 -25 44 vhcurveto
          endchar
        </CharString>
        <CharString name="gdotaccent">
          -41 callsubr
          69 155 4 callgsubr
          32 155 19 -8 callsubr
          hintmask 1011101001100100
          -69 callsubr
          hintmask 1011101100110000
          -45 callsubr
          hintmask 1011011100101000
          -7 callgsubr
          hintmask 0101101010110000
          -72 callgsubr
          hintmask 1011101100100100
          -88 callgsubr
          hintmask 1011101100110000
          -33 callsubr
          22 304 rmoveto
          -93 callsubr
          endchar
        </CharString>
        <CharString name="germandbls">
          25 -10 61 -61 211 -180 -21 735 55 hstemhm
          96 127 42 112 -112 133 20 115 -21 117 hintmask 0011101100000000
          377 424 rmoveto
          31 20 15 59 38 vhcurveto
          56 35 21 42 53 vvcurveto
          93 -82 59 -130 -140 -85 -91 -149 vhcurveto
          -475 vlineto
          -77 -61 callgsubr
          204 575 vlineto
          107 41 53 61 58 35 -35 -61 -48 -17 -31 -44 -33 vhcurveto
          -76 -56 -16 -22 -48 vvcurveto
          -58 25 -28 110 -65 vhcurveto
          hintmask 1001101010000000
          96 -58 16 -17 -46 vvcurveto
          -48 -41 -30 -43 -24 -34 14 20 -8 vhcurveto
          22 10 14 21 30 vvcurveto
          hintmask 0101110010000000
          25 -21 30 -47 -52 -23 -44 -41 -73 68 -53 102 117 87 59 104 80 -30 43 -126 65 vhcurveto
          -79 41 -17 11 31 vvcurveto
          endchar
        </CharString>
        <CharString name="grave">
          -363 639 157 hstem
          185 715 -76 callgsubr
        </CharString>
        <CharString name="grave.cap">
          51 callsubr
          170 836 -77 callsubr
        </CharString>
        <CharString name="greater">
          -131 156 -21 449 -20 hstem
          461 331 rmoveto
          58 vlineto
          -399 195 rlineto
          -93 vlineto
          298 -131 -298 -131 rlineto
          -94 vlineto
          endchar
        </CharString>
        <CharString name="guillemotleft">
          -74 28 -21 487 -20 hstem
          162 255 -24 callgsubr
          77 201 -24 callgsubr
          endchar
        </CharString>
        <CharString name="guillemotright">
          -74 28 -21 487 -20 hstem
          43 54 -25 callsubr
          77 -201 -25 callsubr
          endchar
        </CharString>
        <CharString name="guilsinglleft">
          -284 28 -21 487 -20 hstem
          162 255 -24 callgsubr
          endchar
        </CharString>
        <CharString name="guilsinglright">
          -284 28 -21 487 -20 hstem
          43 54 -25 callsubr
          endchar
        </CharString>
        <CharString name="h">
          -71 callsubr
        </CharString>
        <CharString name="hbar">
          45 callgsubr
          50 77 -77 180 hstemhm
          19 204 -127 -28 callgsubr
          hintmask 11100110
          33 600 rmoveto
          63 -525 hlineto
          hintmask 11101010
          -23 callgsubr
          -193 vlineto
          -68 callgsubr
          206 vlineto
          114 -19 68 -41 43 vhcurveto
          30 -29 -38 14 -57 hhcurveto
          -68 -60 -40 -64 -34 hvcurveto
          154 91 77 -91 vlineto
          hintmask 11011010
          103 -3 callsubr
          vlineto
          hintmask 11100110
          77 -19 rlineto
          -28 -63 vlineto
          endchar
        </CharString>
        <CharString name="hcircumflex">
          45 callgsubr
          230 -20 30 -20 hstemhm
          19 204 -127 -28 callgsubr
          hintmask 11011010
          433 790 rmoveto
          -125 hlineto
          -85 -146 rlineto
          hintmask 11101010
          136 -3 callsubr
          vlineto
          hintmask 11010110
          77 -19 rlineto
          -630 vlineto
          hintmask 11011010
          -23 callgsubr
          -193 vlineto
          -68 callgsubr
          206 vlineto
          114 -19 68 -41 43 vhcurveto
          30 -29 -38 14 -57 hhcurveto
          -68 -60 -40 -64 -34 hvcurveto
          193 80 vlineto
          68 76 68 -76 rlineto
          83 hlineto
          endchar
        </CharString>
        <CharString name="hdotbelow">
          -71 callsubr
        </CharString>
        <CharString name="hungarumlaut">
          -197 639 157 hstem
          10 639 -102 callgsubr
          146 -76 -102 callgsubr
          endchar
        </CharString>
        <CharString name="hungarumlaut.cap">
          51 callsubr
          25 760 -100 callgsubr
          120 -76 -100 callgsubr
          endchar
        </CharString>
        <CharString name="hyphen">
          -251 229 97 hstem
          60 229 rmoveto
          251 97 -251 hlineto
          endchar
        </CharString>
        <CharString name="i">
          -291 21 51 callgsubr
          -77 callgsubr
          -25 callgsubr
          endchar
        </CharString>
        <CharString name="iacute">
          -34 callsubr
          119 157 -77 callgsubr
          98 155 -102 callgsubr
          endchar
        </CharString>
        <CharString name="ibreve">
          -34 callsubr
          79 54 callsubr
          hstemhm
          15 63 -47 -52 callsubr
          41 63 hintmask 11101011
          -43 callgsubr
          hintmask 11100101
          -79 callsubr
          hintmask 11011011
          245 296 rmoveto
          hintmask 11101011
          -10 callgsubr
          hintmask 11011011
          -81 callgsubr
        </CharString>
        <CharString name="icircumflex">
          -34 callsubr
          270 -20 -77 callgsubr
          202 306 -89 callgsubr
        </CharString>
        <CharString name="idieresis">
          -34 callsubr
          97 147 hstemhm
          -17 147 -99 -52 callsubr
          -22 147 hintmask 11100100
          -43 callgsubr
          hintmask 11101000
          -79 callsubr
          hintmask 11100100
          hintmask 11110010
          -48 206 -97 callsubr
        </CharString>
        <CharString name="idotbelow">
          -291 21 51 callgsubr
          -77 callgsubr
          -25 callgsubr
          endchar
        </CharString>
        <CharString name="igrave">
          -34 callsubr
          119 157 hstem
          108 127 vstem
          -43 callgsubr
          -79 callsubr
          134 231 -76 callgsubr
        </CharString>
        <CharString name="ij">
          9 10 callgsubr
          -21 callgsubr
          7 -18 callgsubr
          hintmask 1111011100000000
          -43 callgsubr
          hintmask 1111101100000000
          -79 callsubr
          hintmask 1111011100000000
          -25 callgsubr
          459 -152 -98 callgsubr
          -43 26 -28 48 vhcurveto
          hintmask 1111101010000000
          -64 callsubr
          hvcurveto
          endchar
        </CharString>
        <CharString name="imacron">
          -34 callsubr
          115 95 -77 callgsubr
          hintmask 11110000
          151 vmoveto
          -14 callsubr
        </CharString>
        <CharString name="iogonek">
          -291 -210 73 158 51 callgsubr
          hstemhm
          31 111 -34 127 hintmask 11111000
          151 -91 callsubr
          33 34 41 29 24 hvcurveto
          107 56 hlineto
          hintmask 11110100
          -77 19 rlineto
          465 vlineto
          hintmask 11111000
          -3 callsubr
          hlineto
          hintmask 11110100
          77 -19 rlineto
          -390 vlineto
          hintmask 11111000
          -77 -61 callgsubr
          99 vlineto
          -60 -38 -30 -42 -45 -28 callsubr
          -54 902 rmoveto
          15 callsubr
        </CharString>
        <CharString name="itilde">
          -34 callsubr
          93 -38 callsubr
          108 127 hintmask 11010100
          -43 callgsubr
          -79 callsubr
          -59 140 -40 callgsubr
          hintmask 11100100
          -96 callgsubr
          hintmask 11001100
          -80 callgsubr
        </CharString>
        <CharString name="j">
          -322 -190 167 563 -20 101 143 hstemhm
          -89 -18 callgsubr
          hintmask 11111000
          225 540 -98 callgsubr
          -43 26 -28 48 vhcurveto
          hintmask 11110100
          -64 callsubr
          hvcurveto
          endchar
        </CharString>
        <CharString name="jcircumflex">
          48 callgsubr
          270 -20 hstemhm
          -89 132 55 127 hintmask 10111100
          -9 callgsubr
          hintmask 01111100
          38 -26 20 -37 -45 -24 -30 -38 -69 80 -30 68 71 48 3 callgsubr
          -2 705 -89 callgsubr
        </CharString>
        <CharString name="k">
          -13 21 -10 callsubr
          260 -20 hstemhm
          19 -52 callsubr
          0 129 hintmask 11100100
          -17 callsubr
          vlineto
          hintmask 11110000
          -3 callsubr
          hlineto
          hintmask 11101000
          77 -19 rlineto
          -630 vlineto
          hintmask 11110000
          -77 -61 callgsubr
          281 56 -48 callgsubr
          129 vlineto
          56 47 132 -176 rlineto
          endchar
        </CharString>
        <CharString name="kcommaaccent">
          -13 -11 callsubr
          540 -20 260 -20 hstemhm
          19 -52 callsubr
          46 137 hintmask 11111101
          -17 callsubr
          -3 callsubr
          vlineto
          hintmask 11111011
          77 -19 rlineto
          -630 vlineto
          hintmask 11111101
          -77 -61 callgsubr
          281 56 -48 callgsubr
          129 vlineto
          56 47 132 -176 rlineto
          -77 -119 rmoveto
          -102 callsubr
        </CharString>
        <CharString name="kgreenlandic">
          -6 21 -10 callsubr
          -21 callgsubr
          hintmask 11100000
          365 56 rmoveto
          53 callgsubr
          -53 17 -188 252 136 140 73 19 rlineto
          56 -245 -56 vlineto
          66 -19 -168 -179 rlineto
          254 -3 callsubr
          vlineto
          hintmask 11010000
          77 -19 rlineto
          -390 vlineto
          hintmask 11100000
          -77 -61 callgsubr
          281 56 -48 callgsubr
          129 vlineto
          59 50 130 -179 rlineto
          endchar
        </CharString>
        <CharString name="l">
          -296 21 -21 780 -20 hstemhm
          22 -52 callsubr
          hintmask 11010000
          99 76 rmoveto
          hintmask 11100000
          -44 callgsubr
          hintmask 11010000
          77 -19 rlineto
          endchar
        </CharString>
        <CharString name="lacute">
          -332 -47 callsubr
          195 -20 hstemhm
          19 174 -97 97 hintmask 11101000
          108 770 rmoveto
          53 hlineto
          47 29 rlineto
          51 31 22 14 21 vvcurveto
          19 -14 11 -23 -25 -22 -12 -36 -28 vhcurveto
          -73 -787 rmoveto
          hintmask 11110000
          -77 -19 rlineto
          -41 251 41 -48 callgsubr
          660 -174 -41 vlineto
          hintmask 11101000
          77 -19 rlineto
          endchar
        </CharString>
        <CharString name="lcaron">
          -296 21 -21 590 190 10 -20 hstemhm
          22 -52 callsubr
          28 89 -70 90 hintmask 11001100
          99 76 rmoveto
          hintmask 11010100
          -44 callgsubr
          hintmask 11001100
          77 -19 rlineto
          244 -114 rmoveto
          hintmask 10110010
          2 callsubr
          hintmask 11010100
          -9 callsubr
        </CharString>
        <CharString name="lcommaaccent">
          -296 -11 callsubr
          780 -20 hstemhm
          22 -52 callsubr
          -127 143 hintmask 11110100
          99 76 rmoveto
          hintmask 11111000
          -44 callgsubr
          hintmask 11110100
          77 -19 rlineto
          71 -748 -2 callsubr
          hintmask 11110010
          71 37 29 42 52 vvcurveto
          40 -28 25 -44 vhcurveto
          endchar
        </CharString>
        <CharString name="ldot">
          -258 21 -21 280 158 342 -20 hstemhm
          22 -52 callsubr
          40 157 hintmask 11101100
          99 76 rmoveto
          hintmask 11110100
          -44 callgsubr
          hintmask 11101100
          77 -19 rlineto
          167 -346 -39 callsubr
        </CharString>
        <CharString name="less">
          -131 156 -21 449 -20 hstem
          429 135 rmoveto
          94 vlineto
          -298 131 298 131 rlineto
          93 vlineto
          -399 -195 rlineto
          -58 vlineto
          endchar
        </CharString>
        <CharString name="logicalnot">
          -54 174 239 -100 100 hstemhm
          409 90 hintmask 01100000
          60 313 rmoveto
          349 hlineto
          hintmask 10100000
          -139 90 239 -439 vlineto
          endchar
        </CharString>
        <CharString name="lslash">
          -294 21 -21 780 -20 hstemhm
          23 -52 callsubr
          -127 199 hintmask 11010000
          31 281 rmoveto
          69 43 rlineto
          -248 vlineto
          hintmask 11100000
          -77 -19 rlineto
          -57 281 57 -48 callgsubr
          328 vlineto
          hintmask 11001000
          72 46 rlineto
          84 vlineto
          hintmask 11100000
          -72 -46 rlineto
          292 -204 -57 vlineto
          hintmask 11010000
          77 -19 rlineto
          -296 vlineto
          -69 -44 rlineto
          endchar
        </CharString>
        <CharString name="m">
          373 21 -21 458 92 -10 -20 hstemhm
          108 127 207 127 207 127 cntrmask 00011100
          hintmask 11011100
          108 75 rmoveto
          -77 -19 rlineto
          -56 271 -26 callgsubr
          261 -26 callgsubr
          271 56 vlineto
          -77 19 rlineto
          170 vlineto
          145 -8 64 -24 38 vhcurveto
          36 -23 -45 22 -53 hhcurveto
          -77 -73 -45 -75 -42 hvcurveto
          -6 26 -10 25 -10 15 rrcurveto
          30 -20 -45 24 -55 hhcurveto
          -73 -70 -43 -67 -38 hvcurveto
          -4 hlineto
          hintmask 10111100
          -52 callgsubr
          endchar
        </CharString>
        <CharString name="macron">
          -293 635 95 hstem
          25 635 rmoveto
          -14 callsubr
        </CharString>
        <CharString name="macron.cap">
          -293 766 95 hstem
          25 766 rmoveto
          -14 callsubr
        </CharString>
        <CharString name="minus">
          -96 322 81 hstem
          64 322 rmoveto
          398 81 -398 hlineto
          endchar
        </CharString>
        <CharString name="mu">
          60 56 callgsubr
          104 122 216 127 vstem
          104 36 callsubr
          7 44 -23 31 hhcurveto
          61 47 40 70 31 -6 callsubr
          -9 -33 -28 -29 rrcurveto
          -24 -24 -28 -10 -35 hhcurveto
          -26 -30 16 31 -13 hvcurveto
          -10 24 -4 39 37 callsubr
        </CharString>
        <CharString name="multiply">
          -116 169 -21 408 -20 hstem
          119 148 rmoveto
          134 135 134 -135 70 70 -135 134 135 134 -70 70 -134 -135 -134 135 -70 -70 135 -134 -135 -134 rlineto
          endchar
        </CharString>
        <CharString name="n">
          52 0 callsubr
          26 callsubr
          hintmask 11011000
          108 -67 callsubr
          54 14 37 28 26 rrcurveto
          21 22 28 11 33 hhcurveto
          34 26 -12 -34 15 hvcurveto
          12 -27 4 -40 -80 13 callgsubr
          -11 64 -26 37 vhcurveto
          34 -25 -45 20 -53 hhcurveto
          -78 -72 -42 -68 -40 hvcurveto
          -4 hlineto
          hintmask 10111000
          -52 callgsubr
          endchar
        </CharString>
        <CharString name="nacute">
          52 0 callsubr
          119 157 hstemhm
          454 127 hintmask 11011000
          108 -67 callsubr
          54 14 37 28 26 rrcurveto
          21 22 28 11 33 hhcurveto
          34 26 -12 -34 15 hvcurveto
          12 -27 4 -40 -80 13 callgsubr
          -11 64 -26 37 vhcurveto
          34 -25 -45 20 -53 hhcurveto
          -78 -72 -42 -68 -40 hvcurveto
          -4 hlineto
          hintmask 10111000
          -52 callgsubr
          182 174 -102 callgsubr
          endchar
        </CharString>
        <CharString name="napostrophe">
          146 0 callsubr
          168 112 hstemhm
          17 140 45 -28 callgsubr
          hintmask 11011110
          202 -67 callsubr
          54 14 37 28 26 rrcurveto
          21 22 28 11 33 hhcurveto
          34 26 -12 -34 15 hvcurveto
          12 -27 4 -40 -80 13 callgsubr
          -11 64 -26 37 vhcurveto
          34 -25 -45 20 -53 hhcurveto
          -78 -72 -42 -68 -40 hvcurveto
          -4 hlineto
          hintmask 10111110
          -52 callgsubr
          -112 335 -26 callsubr
        </CharString>
        <CharString name="ncaron">
          52 0 callsubr
          260 -20 26 callsubr
          hintmask 11011100
          108 -67 callsubr
          54 14 37 28 26 rrcurveto
          21 22 28 11 33 hhcurveto
          34 26 -12 -34 15 hvcurveto
          12 -27 4 -40 -80 13 callgsubr
          -11 64 -26 37 vhcurveto
          34 -25 -45 20 -53 hhcurveto
          -78 -72 -42 -68 -40 hvcurveto
          -4 hlineto
          hintmask 10111100
          -52 callgsubr
          400 315 -73 callgsubr
        </CharString>
        <CharString name="ncommaaccent">
          52 -11 callsubr
          461 89 -10 -20 hstemhm
          108 127 54 137 28 127 hintmask 11110111
          108 -67 callsubr
          54 14 37 28 26 rrcurveto
          21 22 28 11 33 hhcurveto
          34 26 -12 -34 15 hvcurveto
          12 -27 4 -40 -80 13 callgsubr
          -11 64 -26 37 vhcurveto
          34 -25 -45 20 -53 hhcurveto
          -78 -72 -42 -68 -40 hvcurveto
          -4 hlineto
          hintmask 11101111
          -52 callgsubr
          246 -509 rmoveto
          -102 callsubr
        </CharString>
        <CharString name="ndotaccent">
          52 0 callsubr
          89 155 hstemhm
          108 127 27 155 37 127 hintmask 11011110
          108 -67 callsubr
          54 14 37 28 26 rrcurveto
          21 22 28 11 33 hhcurveto
          34 26 -12 -34 15 hvcurveto
          12 -27 4 -40 -80 13 callgsubr
          -11 64 -26 37 vhcurveto
          34 -25 -45 20 -53 hhcurveto
          -78 -72 -42 -68 -40 hvcurveto
          -4 hlineto
          hintmask 10111110
          -52 callgsubr
          154 221 rmoveto
          -93 callsubr
          endchar
        </CharString>
        <CharString name="nine">
          -11 -10 70 231 72 298 70 hstemhm
          44 137 -111 162 185 146 -123 123 hintmask 11101010
          438 370 rmoveto
          2 -17 0 -11 -19 vvcurveto
          -184 -52 -79 -121 -53 -40 23 37 -8 vhcurveto
          40 26 24 37 38 -27 29 -54 -54 -27 -38 -52 -100 84 -68 122 192 95 136 255 238 -86 112 -190 hvcurveto
          hintmask 11110100
          -147 -96 -84 -136 -132 86 -88 127 73 67 30 49 37 hvcurveto
          -253 141 rmoveto
          99 40 51 78 73 45 -51 -99 -98 -45 -50 -73 -78 -40 50 98 vhcurveto
          endchar
        </CharString>
        <CharString name="nineinferior">
          -258 -10 41 -41 118 17 40 118 57 callsubr
          hintmask 10110011
          230 161 7 callsubr
          hintmask 01110101
          9 callgsubr
          hintmask 10111001
          -74 -51 -38 -61 -58 41 -41 58 21 callsubr
          49 callsubr
        </CharString>
        <CharString name="ninesuperior">
          -258 397 41 -41 118 17 40 -4 -20 142 57 callsubr
          hintmask 1001100110000000
          230 568 7 callsubr
          hintmask 0110101010000000
          9 callgsubr
          hintmask 1010110010000000
          -74 -51 -38 -61 -58 41 -41 58 hvcurveto
          hintmask 1001110010000000
          21 callsubr
          vhcurveto
          hintmask 1010110010000000
          49 callsubr
        </CharString>
        <CharString name="ntilde">
          52 0 callsubr
          93 101 -45 45 -45 100 26 callsubr
          hintmask 11010011
          108 -67 callsubr
          54 14 37 28 26 rrcurveto
          21 22 28 11 33 hhcurveto
          34 26 -12 -34 15 hvcurveto
          12 -27 4 -40 -80 13 callgsubr
          -11 64 -26 37 vhcurveto
          34 -25 -45 20 -53 hhcurveto
          -78 -72 -42 -68 -40 hvcurveto
          -4 hlineto
          hintmask 10101011
          -52 callgsubr
          50 159 -40 callgsubr
          hintmask 11010011
          -96 callgsubr
          hintmask 11000111
          -80 callgsubr
        </CharString>
        <CharString name="numbersign">
          139 11 -21 197 68 191 68 216 -20 hstem
          395 -10 rmoveto
          87 hlineto
          40 197 rlineto
          157 68 -145 hlineto
          39 191 rlineto
          155 68 -143 47 callsubr
          -173 47 callsubr
          -157 -68 145 hlineto
          -39 -191 rlineto
          -155 -68 143 hlineto
          -40 -197 rlineto
          87 hlineto
          40 197 rlineto
          173 hlineto
          -122 259 rmoveto
          173 hlineto
          -39 -191 rlineto
          -173 hlineto
          endchar
        </CharString>
        <CharString name="o">
          5 callgsubr
          hstem
          37 137 246 137 vstem
          -107 callsubr
          endchar
        </CharString>
        <CharString name="oacute">
          5 callgsubr
          89 157 hstem
          37 137 246 137 vstem
          -107 callsubr
          49 542 -102 callgsubr
          endchar
        </CharString>
        <CharString name="obreve">
          5 callgsubr
          49 54 callsubr
          hstemhm
          37 137 -33 63 198 63 -45 137 hintmask 11011001
          -107 callsubr
          hintmask 11011010
          196 683 rmoveto
          hintmask 11101010
          -10 callgsubr
          hintmask 11010110
          -81 callgsubr
        </CharString>
        <CharString name="ocircumflex">
          5 callgsubr
          240 -20 hstem
          37 137 246 137 vstem
          -107 callsubr
          153 693 -89 callgsubr
        </CharString>
        <CharString name="odieresis">
          5 callgsubr
          67 147 hstemhm
          37 137 -65 34 callgsubr
          -66 137 hintmask 11101010
          47 callgsubr
          47 -44 -61 18 -83 hhcurveto
          -83 -61 -18 -47 -44 hvcurveto
          hintmask 11110100
          -47 -50 -25 -80 -85 vvcurveto
          hintmask 11101010
          -85 25 -80 47 -50 vhcurveto
          -47 44 61 -18 83 hhcurveto
          83 61 18 47 44 hvcurveto
          47 50 25 80 85 vvcurveto
          -351 -173 rmoveto
          hintmask 11110010
          -21 32 -11 57 84 vvcurveto
          84 11 57 21 32 vhcurveto
          27 18 30 13 43 hhcurveto
          43 30 -13 -27 18 hvcurveto
          21 -32 11 -57 -84 vvcurveto
          -84 -11 -57 -21 -32 vhcurveto
          -27 -18 -30 -13 -43 hhcurveto
          -43 -30 13 27 -18 hvcurveto
          hintmask 11101100
          -97 593 -97 callsubr
        </CharString>
        <CharString name="odotbelow">
          5 callgsubr
          hstem
          37 137 246 137 vstem
          -107 callsubr
          endchar
        </CharString>
        <CharString name="oe">
          311 -10 67 -67 82 184 64 163 67 hstemhm
          37 137 246 126 220 131 hintmask 10111110
          295 550 rmoveto
          -74 -68 -20 -45 -42 hvcurveto
          -48 -51 -26 -84 -87 vvcurveto
          -85 26 -76 45 -49 vhcurveto
          -43 40 61 -20 73 hhcurveto
          85 82 33 62 34 hvcurveto
          4 hlineto
          -63 22 74 -32 73 hhcurveto
          120 60 52 64 54 hvcurveto
          -62 39 rlineto
          hintmask 01111110
          -45 -41 -52 -28 -63 hhcurveto
          -45 -42 20 51 -20 hvcurveto
          -13 31 -7 32 50 vvcurveto
          349 hlineto
          3 26 0 16 13 vvcurveto
          149 -77 90 -155 -88 -57 -36 -65 -33 vhcurveto
          -4 hlineto
          71 -32 -79 30 -77 hhcurveto
          -121 -276 rmoveto
          74 15 54 21 35 vhcurveto
          29 16 37 17 33 hhcurveto
          40 26 -20 -33 22 hvcurveto
          23 -35 13 -55 -73 vvcurveto
          -73 -11 -59 -24 -31 vhcurveto
          hintmask 10111110
          -30 -22 -30 -17 -36 hhcurveto
          -36 -33 20 33 -18 hvcurveto
          -20 36 -16 54 74 vvcurveto
          486 207 rmoveto
          56 50 -49 -86 hvcurveto
          -26 -220 vlineto
          111 6 46 50 62 hhcurveto
          endchar
        </CharString>
        <CharString name="ogonek">
          -347 -210 73 hstemhm
          20 102 vstemhm
          131 -91 callsubr
          hvcurveto
          hintmask 11000000
          40 52 53 31 19 vhcurveto
          -71 hlineto
          -75 -42 -39 -47 -50 44 callgsubr
        </CharString>
        <CharString name="ograve">
          5 callgsubr
          89 157 hstem
          37 137 246 137 vstem
          -107 callsubr
          85 618 -76 callgsubr
        </CharString>
        <CharString name="ohungarumlaut">
          5 callgsubr
          89 157 hstem
          37 137 246 137 vstem
          -107 callsubr
          -53 542 -102 callgsubr
          146 -76 -102 callgsubr
          endchar
        </CharString>
        <CharString name="omacron">
          5 callgsubr
          85 95 hstem
          37 137 246 137 vstem
          -107 callsubr
          -49 538 rmoveto
          -14 callsubr
        </CharString>
        <CharString name="one">
          -206 21 -21 618 66 46 -20 hstem
          165 127 vstem
          165 75 rmoveto
          -127 -61 callgsubr
          361 56 vlineto
          -107 19 rlineto
          655 -98 vlineto
          -30 -23 -85 -16 -48 hhcurveto
          -66 127 vlineto
          endchar
        </CharString>
        <CharString name="oneeighth">
          34 54 callgsubr
          397 -20 30 -20 hstemhm
          43 142 -82 82 190 3 callsubr
          hintmask 1101011010000000
          87 -68 callsubr
          -370 -288 rmoveto
          hintmask 1110101010000000
          -67 callgsubr
          hintmask 1101010100000000
          60 hlineto
          505 -403 -49 callsubr
          hintmask 1101101001000000
          -54 callsubr
          hintmask 1101100100000000
          -35 callsubr
          hintmask 1101101010000000
          -92 callgsubr
          endchar
        </CharString>
        <CharString name="onehalf">
          31 0 63 -52 -21 206 133 391 -20 30 -20 hstemhm
          40 142 -82 82 189 82 78 83 hintmask 0110101110000000
          84 -68 callsubr
          -370 -288 rmoveto
          hintmask 1011010110000000
          -67 callgsubr
          hintmask 1010101110000000
          60 hlineto
          353 -591 -84 callsubr
        </CharString>
        <CharString name="oneinferior">
          -290 21 34 callsubr
          50 rmoveto
          hintmask 11100000
          -67 callgsubr
          hintmask 11010000
          60 hlineto
          endchar
        </CharString>
        <CharString name="onequarter">
          12 0 125 -114 -21 87 48 595 -20 30 -20 hstemhm
          44 142 -82 82 285 82 hintmask 01101011
          88 -68 callsubr
          -370 -288 rmoveto
          hintmask 10010101
          -67 callgsubr
          hintmask 10001011
          60 hlineto
          367 -605 11 callgsubr
          hintmask 01101101
          -56 callgsubr
          endchar
        </CharString>
        <CharString name="onesuperior">
          -290 413 34 callsubr
          442 rmoveto
          hintmask 11100000
          -67 callgsubr
          hintmask 11010000
          60 hlineto
          endchar
        </CharString>
        <CharString name="onethird">
          32 -10 -35 callgsubr
          397 -20 30 -20 hstemhm
          41 142 -82 82 196 90 63 88 hintmask 1011001011100000
          85 -68 callsubr
          -370 -288 rmoveto
          hintmask 1011010101100000
          -67 callgsubr
          hintmask 1011001011100000
          60 hlineto
          514 -415 -65 callgsubr
          hintmask 1010101101100000
          -86 callgsubr
          hintmask 0111001101100000
          -75 callsubr
          endchar
        </CharString>
        <CharString name="oogonek">
          -28 -210 73 128 66 426 67 hstemhm
          37 137 -12 102 156 137 hintmask 11101100
          273 -91 callsubr
          29 26 35 26 25 hvcurveto
          73 2 55 19 41 43 rrcurveto
          47 50 25 80 85 vvcurveto
          85 -25 80 -47 50 vhcurveto
          47 -44 -61 18 -83 hhcurveto
          -83 -61 -18 -47 -44 hvcurveto
          hintmask 11110100
          -70 callsubr
          33 -36 44 -19 56 -7 rrcurveto
          hintmask 11101100
          -53 -36 -27 -40 -42 -28 callsubr
          -67 307 rmoveto
          hintmask 11110100
          -21 32 -11 57 84 vvcurveto
          84 11 57 21 32 vhcurveto
          27 18 30 13 43 hhcurveto
          43 30 -13 -27 18 hvcurveto
          21 -32 11 -57 -84 vvcurveto
          -84 -11 -57 -21 -32 vhcurveto
          -27 -18 -30 -13 -43 hhcurveto
          -43 -30 13 27 -18 hvcurveto
          endchar
        </CharString>
        <CharString name="ordfeminine">
          -236 422 47 141 120 -44 44 hstemhm
          56 82 -82 94 75 80 hintmask 11001100
          46 493 rmoveto
          -45 28 -26 46 45 36 25 35 20 vhcurveto
          4 hlineto
          -48 5 -12 29 19 32 5 11 39 vhcurveto
          31 -25 vlineto
          -16 -3 12 36 hvcurveto
          65 vlineto
          56 -7 42 -28 23 vhcurveto
          22 -26 -40 5 -29 hhcurveto
          -65 -54 -26 -47 -29 20 -18 29 21 24 9 23 hvcurveto
          hintmask 10110100
          6 -2 11 -10 6 vhcurveto
          11 2 9 10 19 hhcurveto
          11 12 -3 -10 8 hvcurveto
          8 -11 4 -20 4 -36 rrcurveto
          -122 -20 -47 -35 -58 vvcurveto
          115 -17 rmoveto
          -16 -7 11 17 30 21 21 55 14 hvcurveto
          1 -9 1 -10 -8 vvcurveto
          -22 -7 -14 -10 -11 vhcurveto
          -18 -16 -17 -1 -5 hhcurveto
          endchar
        </CharString>
        <CharString name="ordmasculine">
          -241 422 49 210 49 hstem
          41 94 112 94 vstem
          341 579 rmoveto
          46 -13 44 -26 26 vhcurveto
          24 -24 -40 11 -46 hhcurveto
          -49 -37 -11 -25 -24 hvcurveto
          -26 -27 -15 -47 -48 vvcurveto
          -46 13 -43 26 -26 vhcurveto
          -24 23 38 -11 48 hhcurveto
          49 38 11 25 24 hvcurveto
          26 27 15 47 47 vvcurveto
          -206 -1 rmoveto
          40 5 27 15 19 vhcurveto
          8 7 12 9 16 hhcurveto
          17 13 -8 -11 8 hvcurveto
          15 -21 4 -29 -38 vvcurveto
          -44 -5 -27 -14 -17 vhcurveto
          -9 -8 -11 -6 -16 hhcurveto
          -18 -14 10 11 -7 hvcurveto
          -14 22 -5 25 39 vvcurveto
          endchar
        </CharString>
        <CharString name="oslash">
          -28 -39 -21 50 67 426 67 32 -20 -78 callsubr
          endchar
        </CharString>
        <CharString name="oslashacute">
          -28 -39 -21 50 67 426 67 89 157 -78 callsubr
          -168 369 -102 callgsubr
          endchar
        </CharString>
        <CharString name="otilde">
          5 callgsubr
          63 -38 callsubr
          -34 callgsubr
          hintmask 11010110
          -107 callsubr
          -108 527 rmoveto
          -85 callgsubr
        </CharString>
        <CharString name="p">
          13 -180 247 -67 67 415 68 -10 -20 hstemhm
          96 127 239 135 hintmask 01101100
          223 -105 rmoveto
          179 vlineto
          -55 38 46 -19 57 hhcurveto
          70 54 22 43 37 hvcurveto
          44 51 28 79 85 vvcurveto
          83 -25 73 -40 51 vhcurveto
          44 -35 -57 19 -68 hhcurveto
          -68 -54 -21 -66 -42 hvcurveto
          hintmask 10011100
          -15 77 rlineto
          -174 -56 hlineto
          77 -19 rlineto
          -570 vlineto
          -77 -61 callgsubr
          301 56 vlineto
          -98 404 rmoveto
          73 13 52 19 31 vhcurveto
          hintmask 10101100
          32 20 27 14 41 hhcurveto
          37 30 -11 -35 20 hvcurveto
          20 -36 13 -63 -67 vvcurveto
          -64 -12 -57 -20 -35 vhcurveto
          -28 -16 -25 -19 -41 hhcurveto
          -42 -31 20 33 -20 hvcurveto
          -20 33 -13 54 73 vvcurveto
          endchar
        </CharString>
        <CharString name="paragraph">
          80 -75 -21 766 -20 hstem
          342 100 40 100 vstem
          482 -96 rmoveto
          100 687 hlineto
          -41 callgsubr
          -391 vlineto
          -158 -88 -85 -153 -160 85 -84 162 hvcurveto
          66 -284 100 687 40 hlineto
          endchar
        </CharString>
        <CharString name="parenleft">
          -240 -161 -21 1068 -20 hstem
          33 131 vstem
          33 353 rmoveto
          -278 134 -223 167 -34 vhcurveto
          40 78 rlineto
          -126 26 -84 176 253 vvcurveto
          249 86 186 129 30 vhcurveto
          -30 70 rlineto
          -177 -44 -139 -223 -266 vvcurveto
          endchar
        </CharString>
        <CharString name="parenright">
          -240 -161 -21 1068 -20 hstem
          218 131 vstem
          349 353 rmoveto
          266 -139 223 -177 44 vhcurveto
          -30 -70 rlineto
          129 -30 86 -186 -249 vvcurveto
          -253 -84 -176 -126 -26 vhcurveto
          40 -78 rlineto
          167 34 134 223 278 vvcurveto
          endchar
        </CharString>
        <CharString name="percent">
          79 9 callsubr
          hintmask 1110111110000000
          116 -68 callsubr
          -470 -170 -87 callgsubr
          hintmask 1111011110000000
          -103 callsubr
          160 -408 -87 callgsubr
          -103 callsubr
          endchar
        </CharString>
        <CharString name="period">
          -375 -25 158 hstem
          45 157 vstem
          45 52 rmoveto
          16 callgsubr
        </CharString>
        <CharString name="periodcentered">
          -358 220 158 hstem
          54 157 vstem
          54 298 -39 callsubr
        </CharString>
        <CharString name="perthousand">
          390 9 callsubr
          31 88 106 88 hintmask 1110111111100000
          116 -68 callsubr
          -470 -170 -87 callgsubr
          hintmask 1111011111100000
          -103 callsubr
          160 -408 -87 callgsubr
          -103 callsubr
          119 -2 -87 callgsubr
          -103 callsubr
          endchar
        </CharString>
        <CharString name="plus">
          -122 184 -21 158 82 158 -20 hstem
          201 98 vstem
          36 321 rmoveto
          165 -158 98 158 165 82 -165 158 -98 -158 -165 hlineto
          endchar
        </CharString>
        <CharString name="plusminus">
          -92 60 72 228 72 148 -20 hstem
          221 88 vstem
          61 360 rmoveto
          160 -148 88 148 160 72 -160 148 -88 -148 -160 hlineto
          -372 vmoveto
          408 72 -408 hlineto
          endchar
        </CharString>
        <CharString name="q">
          -7 -180 247 -67 67 415 68 -10 -20 hstemhm
          -11 callgsubr
          hintmask 10011100
          413 -105 rmoveto
          -97 -61 callgsubr
          301 56 -48 callgsubr
          645 -77 vlineto
          -30 -103 rlineto
          hintmask 01101100
          85 -42 -54 28 -70 hhcurveto
          -70 -56 -22 -43 -35 hvcurveto
          -42 -51 -26 -79 -85 vvcurveto
          -83 27 -73 42 -51 vhcurveto
          -44 36 56 -19 68 hhcurveto
          59 48 16 51 39 hvcurveto
          204 vmoveto
          -72 -14 -52 -21 -34 vhcurveto
          -30 -19 -27 -16 -46 hhcurveto
          -35 -32 12 41 -20 hvcurveto
          -18 37 -8 50 71 vvcurveto
          71 5 53 21 34 vhcurveto
          33 20 36 13 32 hhcurveto
          41 29 -18 -34 21 hvcurveto
          23 -33 12 -54 -72 vvcurveto
          endchar
        </CharString>
        <CharString name="question">
          -116 -25 158 528 70 hstemhm
          32 169 -55 157 -123 86 82 131 hintmask 11001100
          266 205 rmoveto
          59 25 34 77 72 vhcurveto
          81 76 30 51 60 vvcurveto
          102 -98 72 -141 vhcurveto
          hintmask 11100100
          -117 -91 -67 -86 -59 35 -50 51 51 32 34 37 29 -17 28 -26 15 hvcurveto
          26 35 23 38 75 42 -40 -70 -53 -18 -39 -47 -47 vhcurveto
          hintmask 11001100
          -80 -80 -23 -46 -81 vvcurveto
          hintmask 11010100
          -34 -153 rmoveto
          16 callgsubr
        </CharString>
        <CharString name="questiondown">
          -122 -190 70 528 158 hstemhm
          25 131 45 157 -120 86 -21 169 hintmask 11101000
          238 336 rmoveto
          -59 -25 -34 -77 -72 vhcurveto
          -81 -76 -30 -51 -60 vvcurveto
          -102 98 -72 141 vhcurveto
          hintmask 11100100
          117 91 67 86 59 -35 50 -51 -51 -32 -34 -37 -29 17 -28 26 -15 hvcurveto
          -26 -35 -23 -38 -75 -42 40 70 53 18 39 47 47 vhcurveto
          hintmask 11101000
          80 80 23 46 81 vvcurveto
          hintmask 11110000
          34 153 rmoveto
          49 -29 28 -48 -50 -30 -30 -48 -48 31 -32 48 48 30 31 50 vhcurveto
          endchar
        </CharString>
        <CharString name="quotedbl">
          -198 41 callgsubr
          98 129 -103 77 hintmask 11100100
          351 470 rmoveto
          hintmask 11101000
          1 callsubr
          hintmask 11010100
          -38 26 -92 -89 vvcurveto
          -124 hmoveto
          hintmask 11101000
          1 callsubr
          hintmask 11011000
          -38 26 -92 -89 vvcurveto
          endchar
        </CharString>
        <CharString name="quotedblbase">
          -168 -150 32 callsubr
          45 164 36 164 vstem
          125 120 -57 callgsubr
        </CharString>
        <CharString name="quotedblleft">
          -173 469 154 137 -20 hstem
          37 164 36 164 vstem
          121 469 rmoveto
          -50 callgsubr
          200 hmoveto
          -50 callgsubr
          endchar
        </CharString>
        <CharString name="quotedblright">
          -173 490 32 callsubr
          53 164 36 164 vstem
          133 760 -57 callgsubr
        </CharString>
        <CharString name="quoteleft">
          -373 469 154 137 -20 hstem
          37 164 vstem
          121 469 rmoveto
          -50 callgsubr
          endchar
        </CharString>
        <CharString name="quoteright">
          -372 490 32 callsubr
          53 164 vstem
          133 760 -23 callsubr
          endchar
        </CharString>
        <CharString name="quotesinglbase">
          -368 -137 32 callsubr
          45 164 vstem
          125 133 -23 callsubr
          endchar
        </CharString>
        <CharString name="quotesingle">
          -399 41 callgsubr
          hintmask 11010000
          150 470 rmoveto
          hintmask 11100000
          1 callsubr
          hintmask 11010000
          -38 26 -92 -89 vvcurveto
          endchar
        </CharString>
        <CharString name="r">
          2 callgsubr
          29 callgsubr
          hintmask 11011000
          -72 callsubr
          hintmask 10111000
          -83 callsubr
          endchar
        </CharString>
        <CharString name="racute">
          2 callgsubr
          119 157 29 callgsubr
          hintmask 11011100
          -72 callsubr
          hintmask 10111100
          -83 callsubr
          -120 172 -102 callgsubr
          endchar
        </CharString>
        <CharString name="rcaron">
          2 callgsubr
          260 -20 29 callgsubr
          hintmask 11011100
          -72 callsubr
          hintmask 10111100
          -83 callsubr
          73 313 -73 callgsubr
        </CharString>
        <CharString name="rcommaaccent">
          -148 -219 -21 96 100 65 29 callsubr
          hstemhm
          106 127 -127 145 74 143 hintmask 11110101
          -72 callsubr
          hintmask 11101101
          -83 callsubr
          -151 -511 -2 callsubr
          hintmask 11110011
          71 37 29 42 52 vvcurveto
          40 -28 25 -44 vhcurveto
          endchar
        </CharString>
        <CharString name="rdotbelow">
          2 callgsubr
          29 callgsubr
          hintmask 11011000
          -72 callsubr
          hintmask 10111000
          -83 callsubr
          endchar
        </CharString>
        <CharString name="registered">
          16 230 52 396 52 hstemhm
          54 72 68 239 -209 71 63 75 79 72 hintmask 11110010
          314 230 rmoveto
          159 111 108 143 144 -111 105 -159 -151 -109 -105 -144 -143 109 -108 151 hvcurveto
          52 vmoveto
          -118 -70 78 121 120 73 77 115 130 68 -77 -120 -121 -68 -78 -130 hvcurveto
          93 207 rmoveto
          18 13 8 20 20 vvcurveto
          29 -11 16 -17 12 vhcurveto
          10 -14 -16 4 -23 hhcurveto
          -158 -30 hlineto
          hintmask 11101110
          30 -8 rlineto
          -181 vlineto
          hintmask 11110010
          -30 -8 rlineto
          -30 129 30 vlineto
          hintmask 11101110
          -28 8 rlineto
          69 12 vlineto
          39 -77 rlineto
          -30 109 30 vlineto
          -32 7 -39 65 -4 6 -3 3 -4 4 rlinecurve
          18 7 6 4 10 7 rrcurveto
          -112 15 rmoveto
          68 14 vlineto
          23 8 -2 -2 4 hvcurveto
          7 -3 7 -9 -12 vvcurveto
          -14 -2 -7 -10 -8 vhcurveto
          -7 -8 -15 -4 -12 hhcurveto
          endchar
        </CharString>
        <CharString name="ring">
          -382 614 71 58 71 hstemhm
          20 200 -71 71 hintmask 11100000
          20 713 -33 callgsubr
          vhcurveto
          hintmask 11010000
          -13 callsubr
          hvcurveto
          endchar
        </CharString>
        <CharString name="ring.cap">
          -382 750 44 62 44 hstem
          29 60 62 59 vstem
          29 824 -54 callgsubr
        </CharString>
        <CharString name="s">
          -106 -10 -29 callgsubr
          hstemhm
          37 143 -123 123 142 137 -95 117 hintmask 10101010
          243 51 rmoveto
          -57 -29 23 21 -13 hvcurveto
          18 11 18 25 24 vvcurveto
          hintmask 01011001
          -90 callsubr
          hintmask 10100110
          -86 callsubr
          hintmask 10101001
          -36 callgsubr
          vhcurveto
          endchar
        </CharString>
        <CharString name="sacute">
          -106 -10 -29 callgsubr
          89 157 -95 callgsubr
          -15 588 -102 callgsubr
          endchar
        </CharString>
        <CharString name="scaron">
          -106 -10 -29 callgsubr
          230 -20 -95 callgsubr
          178 729 -73 callgsubr
        </CharString>
        <CharString name="schwa">
          -64 -10 69 161 64 184 82 hstem
          36 131 220 132 vstem
          39 284 rmoveto
          -3 -30 0 -10 -15 vvcurveto
          -149 76 -90 155 166 86 107 187 58 -8 52 -21 40 vhcurveto
          77 -40 -74 39 -106 hhcurveto
          -122 -58 -52 -64 -47 hvcurveto
          46 -37 rlineto
          44 35 56 27 51 hhcurveto
          58 51 -25 -61 28 hvcurveto
          12 -25 8 -32 -41 vvcurveto
          -118 -225 rmoveto
          -58 -45 49 86 hvcurveto
          26 220 vlineto
          -106 -8 -31 -55 -78 hhcurveto
          endchar
        </CharString>
        <CharString name="scircumflex">
          -106 -10 -29 callgsubr
          240 -20 -95 callgsubr
          89 739 -89 callgsubr
        </CharString>
        <CharString name="sdotbelow">
          -106 -10 -29 callgsubr
          hstemhm
          37 143 -123 123 142 137 -95 117 hintmask 10101010
          243 51 rmoveto
          -57 -29 23 21 -13 hvcurveto
          18 11 18 25 24 vvcurveto
          hintmask 01011001
          -90 callsubr
          hintmask 10100110
          -86 callsubr
          hintmask 10101001
          -36 callgsubr
          vhcurveto
          endchar
        </CharString>
        <CharString name="section">
          -82 -190 61 -61 209 502 209 -61 61 hstemhm
          38 117 -95 130 -112 112 160 112 -112 130 -95 117 hintmask 1001001001000000
          502 251 rmoveto
          114 -98 52 -100 50 vhcurveto
          -67 33 -47 23 68 vvcurveto
          52 28 26 63 43 34 -12 -28 21 vhcurveto
          -21 -10 -15 -23 -24 vvcurveto
          hintmask 1010001010000000
          -28 21 -23 44 48 24 27 45 81 -79 56 -123 -129 -71 -61 -105 -49 16 -38 38 -33 vhcurveto
          hintmask 1010100100000000
          -58 -31 -36 -54 -69 vvcurveto
          -109 92 -53 94 -46 vhcurveto
          59 -29 67 -31 -68 vvcurveto
          -52 -40 -31 -76 -46 -25 11 29 -17 vhcurveto
          41 6 10 28 20 vvcurveto
          hintmask 0110010100000000
          32 -27 22 -39 -47 -24 -33 -49 -79 63 -48 118 134 87 61 105 47 -17 39 -38 34 vhcurveto
          hintmask 1010100001000000
          58 30 37 55 70 vvcurveto
          -259 126 rmoveto
          124 -59 18 -49 -52 vvcurveto
          -38 -10 -27 -16 -17 vhcurveto
          -20 12 -27 14 -10 5 rrcurveto
          -97 54 -50 31 71 vvcurveto
          36 13 31 18 18 vhcurveto
          33 -20 20 -8 4 -2 rrcurveto
          endchar
        </CharString>
        <CharString name="semicolon">
          -335 -137 -21 137 154 177 158 hstem
          64 157 vstem
          64 387 rmoveto
          -78 callgsubr
          78 -254 -23 callsubr
          endchar
        </CharString>
        <CharString name="servicemark">
          163 406 45 245 44 -5 -20 hstemhm
          64 41 -41 66 108 41 -41 56 66 49 219 66 hintmask 1100101110000000
          178 406 rmoveto
          71 45 34 54 47 -23 29 -76 32 hvcurveto
          -54 23 -11 5 29 vvcurveto
          27 19 10 25 48 16 -22 -56 vhcurveto
          hintmask 1011010110000000
          41 117 -40 hlineto
          -4 -20 rlineto
          hintmask 1101010110000000
          17 -19 -24 8 -29 hhcurveto
          -61 -38 -35 -56 -45 20 -21 68 -27 hvcurveto
          57 -22 19 -24 -21 vvcurveto
          -30 -27 -8 -26 -39 -28 22 55 -3 vhcurveto
          -42 -117 40 hlineto
          5 26 rlineto
          -20 16 24 -11 30 hhcurveto
          342 66 rmoveto
          -4 hlineto
          hintmask 1011010110000000
          -46 callgsubr
        </CharString>
        <CharString name="seven">
          -94 11 -21 503 227 -110 110 hstemhm
          151 133 hintmask 11010000
          284 59 rmoveto
          198 103 230 134 157 vhcurveto
          76 -489 -227 82 vlineto
          hintmask 10110000
          19 117 rlineto
          255 hlineto
          -131 -153 -106 -257 -140 vvcurveto
          -42 15 -28 47 57 14 23 46 vhcurveto
          endchar
        </CharString>
        <CharString name="seveneighths">
          14 54 callgsubr
          331 66 10 -20 hstemhm
          83 84 188 70 96 67 -67 82 hintmask 11011110
          77 -68 callsubr
          125 -479 -49 callsubr
          -45 -24 -20 -27 -39 vvcurveto
          -53 44 -31 72 vhcurveto
          hintmask 11101101
          88 44 37 55 36 -20 26 -48 25 hvcurveto
          hintmask 11101110
          -35 callsubr
          -92 callgsubr
          -330 247 -51 callsubr
        </CharString>
        <CharString name="seveninferior">
          -306 11 -21 262 66 hstem
          95 84 vstem
          179 36 -51 callsubr
        </CharString>
        <CharString name="sevensuperior">
          -307 413 -21 262 66 hstem
          94 84 vstem
          178 438 -51 callsubr
        </CharString>
        <CharString name="six">
          -10 -10 70 298 72 231 70 hstemhm
          48 123 -123 146 185 162 -111 137 hintmask 11110100
          173 351 rmoveto
          -2 17 0 11 19 vvcurveto
          184 52 79 121 53 40 -23 -37 8 vhcurveto
          -40 -26 -24 -37 -38 27 -29 54 58 23 35 55 100 -84 68 -122 -192 -95 -136 -255 -238 90 -112 190 hvcurveto
          hintmask 11101010
          147 92 84 136 132 -86 88 -127 -73 -67 -30 -49 -37 hvcurveto
          253 -141 rmoveto
          -99 -40 -51 -78 -73 -45 51 99 98 45 50 73 78 40 -50 -98 vhcurveto
          endchar
        </CharString>
        <CharString name="sixinferior">
          -257 -10 40 118 40 17 36 callgsubr
          hintmask 11011100
          133 152 7 callgsubr
          hintmask 11101010
          8 callsubr
          hintmask 11101001
          74 42 38 61 58 -41 41 -58 22 callgsubr
          49 callgsubr
        </CharString>
        <CharString name="sixsuperior">
          -257 397 40 118 40 -36 -20 73 36 callgsubr
          hintmask 1010111000000000
          133 559 7 callgsubr
          hintmask 1101010100000000
          8 callsubr
          hintmask 1101010010000000
          74 42 38 61 58 -41 41 -58 hvcurveto
          hintmask 1011010100000000
          22 callgsubr
          vhcurveto
          hintmask 1101010100000000
          49 callgsubr
        </CharString>
        <CharString name="slash">
          -301 45 callsubr
          44 -10 rmoveto
          87 hlineto
          146 740 rlineto
          -87 hlineto
          endchar
        </CharString>
        <CharString name="space">
          -386 endchar
        </CharString>
        <CharString name="sterling">
          6 -10 66 -66 103 -103 170 -35 65 121 78 101 211 -61 61 hstemhm
          32 88 36 117 -30 100 83 137 hintmask 1001110101100000
          72 311 rmoveto
          154 hlineto
          14 -29 3 -24 -33 vvcurveto
          -20 -2 -20 -4 -12 vhcurveto
          12 -29 -38 5 -28 hhcurveto
          -54 -56 -34 -61 -67 51 -38 77 51 42 27 59 41 hvcurveto
          -70 102 32 -16 41 hhcurveto
          hintmask 0010110110100000
          69 36 50 120 15 hvcurveto
          -75 hlineto
          hintmask 0101110101100000
          -50 -11 -22 -17 -47 hhcurveto
          -28 -25 10 38 -57 hvcurveto
          14 36 5 36 32 vvcurveto
          16 0 17 -7 33 vhcurveto
          152 78 -173 hlineto
          hintmask 1001101110100000
          -29 71 -13 53 42 vvcurveto
          59 40 26 65 37 32 -13 -27 15 vhcurveto
          -24 -11 -12 -20 -26 vvcurveto
          hintmask 1001110110100000
          -32 30 -21 41 44 22 29 42 86 -66 54 -114 -144 -83 -64 -105 -42 12 -43 28 -58 vhcurveto
          -124 hlineto
          93 -333 rmoveto
          -29 -16 10 24 22 18 13 30 12 19 -8 -10 13 hvcurveto
          -35 -11 -15 -16 -21 hhcurveto
          endchar
        </CharString>
        <CharString name="t">
          -257 -10 79 406 65 140 -20 hstem
          102 127 vstem
          -88 callsubr
          endchar
        </CharString>
        <CharString name="tbar">
          -254 -10 79 247 75 84 65 140 -20 hstem
          104 127 vstem
          7 475 rmoveto
          97 -84 -82 -75 82 -202 hlineto
          -50 2 -21 6 -16 vhcurveto
          -25 9 19 -12 30 hhcurveto
          35 61 11 24 77 hvcurveto
          44 -70 vlineto
          -24 -9 4 8 -4 hvcurveto
          -4 10 -1 12 45 vvcurveto
          168 112 75 -112 84 -55 callsubr
          endchar
        </CharString>
        <CharString name="tcaron">
          -257 -10 79 406 65 50 200 hstemhm
          102 127 33 89 -70 90 hintmask 11111000
          -88 callsubr
          346 64 rmoveto
          hintmask 11110100
          2 callsubr
          hintmask 11111000
          -9 callsubr
        </CharString>
        <CharString name="tdotbelow">
          -257 -10 79 406 65 140 -20 hstem
          102 127 vstem
          -88 callsubr
          endchar
        </CharString>
        <CharString name="thorn">
          -8 -180 247 -67 67 416 67 230 -20 hstemhm
          -2 -52 callsubr
          239 135 hintmask 10111010
          576 275 rmoveto
          93 -23 68 -41 51 vhcurveto
          42 -34 -54 21 -72 hhcurveto
          -67 -46 -21 -47 -37 hvcurveto
          298 -3 callsubr
          vlineto
          hintmask 10110110
          77 -19 rlineto
          -810 vlineto
          hintmask 10111010
          -77 -61 callgsubr
          301 56 vlineto
          -97 19 rlineto
          180 vlineto
          hintmask 01111010
          -52 34 45 -23 63 hhcurveto
          70 54 22 43 37 hvcurveto
          44 50 27 69 91 vvcurveto
          -374 -1 rmoveto
          71 12 56 23 36 vhcurveto
          30 17 30 16 37 hhcurveto
          35 31 -17 -36 20 hvcurveto
          20 -37 14 -53 -73 vvcurveto
          -70 -14 -54 -19 -29 vhcurveto
          -29 -19 -29 -18 -38 hhcurveto
          -30 -33 15 38 -22 hvcurveto
          -24 36 -11 47 71 vvcurveto
          endchar
        </CharString>
        <CharString name="three">
          -32 -10 69 282 63 51 120 87 69 hstemhm
          51 154 -154 168 182 141 hintmask 11110110
          531 541 rmoveto
          114 -104 76 -144 -140 -92 -71 -101 -59 32 -45 64 51 21 29 33 35 -25 23 -41 vhcurveto
          58 9 41 29 70 hhcurveto
          78 50 -36 -74 -88 -71 -60 -108 hvcurveto
          -63 vlineto
          113 69 -59 -96 -84 -53 -43 -86 -76 -39 33 64 -11 hvcurveto
          hintmask 11111010
          40 26 25 35 35 -26 27 -48 -60 -28 -42 -61 -106 86 -79 148 144 121 75 135 84 -46 66 -107 22 hvcurveto
          4 vlineto
          89 15 53 68 82 vvcurveto
          endchar
        </CharString>
        <CharString name="threeeighths">
          44 54 callgsubr
          74 10 callsubr
          39 90 63 88 105 3 callsubr
          hintmask 1110110111010000
          97 -68 callsubr
          -208 -84 -65 callgsubr
          hintmask 1110101111010000
          -86 callgsubr
          hintmask 1101110110100000
          -75 callsubr
          343 -395 -49 callsubr
          hintmask 1110110111001000
          -54 callsubr
          hintmask 1110110110100000
          -35 callsubr
          hintmask 1110110111010000
          -92 callgsubr
          endchar
        </CharString>
        <CharString name="threeinferior">
          -278 -10 10 callsubr
          52 90 63 88 hintmask 10110110
          288 239 -65 callgsubr
          hintmask 10101110
          -86 callgsubr
          hintmask 01110110
          -75 callsubr
          endchar
        </CharString>
        <CharString name="threequarters">
          22 0 125 -114 -21 87 48 272 10 callsubr
          40 90 63 88 200 82 hintmask 0111011011100000
          98 -68 callsubr
          -3 -681 rmoveto
          -43 -9 rlineto
          hintmask 1001011011100000
          -40 160 40 vlineto
          -35 9 rlineto
          hintmask 0111011011100000
          -56 callgsubr
          -137 521 -65 callgsubr
          hintmask 1001010111100000
          -86 callgsubr
          hintmask 1000111011100000
          -75 callsubr
          endchar
        </CharString>
        <CharString name="threesuperior">
          -278 397 10 callsubr
          52 90 63 88 hintmask 10110110
          288 646 -65 callgsubr
          hintmask 10101110
          -86 callgsubr
          hintmask 01110110
          -75 callsubr
          endchar
        </CharString>
        <CharString name="tilde">
          -224 613 -38 callsubr
          hintmask 01000000
          624 vmoveto
          -63 callgsubr
          hintmask 10000000
          -96 callgsubr
          hintmask 00100000
          -80 callgsubr
        </CharString>
        <CharString name="tilde.cap">
          -224 744 -38 callsubr
          hintmask 01000000
          755 vmoveto
          -63 callgsubr
          hintmask 10000000
          -96 callgsubr
          hintmask 00100000
          -80 callgsubr
        </CharString>
        <CharString name="trademark">
          228 427 -21 214 110 -47 47 hstemhm
          64 177 -69 69 -69 176 74 49 219 66 hintmask 11010011
          64 730 rmoveto
          -110 39 vlineto
          hintmask 10101011
          14 63 rlineto
          55 -232 hlineto
          -44 -11 rlineto
          -34 156 34 vlineto
          -43 11 rlineto
          232 54 vlineto
          hintmask 11000111
          14 -63 rlineto
          39 110 hlineto
          hintmask 11010011
          234 -263 rmoveto
          -4 hlineto
          -46 callgsubr
        </CharString>
        <CharString name="two">
          -22 0 110 -110 238 206 121 97 69 hstemhm
          41 111 -98 162 190 131 hintmask 10111010
          152 110 rmoveto
          101 385 91 233 vvcurveto
          120 -103 76 -145 vhcurveto
          hintmask 10110110
          -147 -88 -78 -108 -74 41 -27 48 44 29 22 39 36 -24 24 -42 hvcurveto
          65 12 39 32 74 hhcurveto
          82 49 -40 -68 hvcurveto
          hintmask 10111010
          -185 -365 -95 -208 vvcurveto
          -66 505 vlineto
          hintmask 01111010
          238 -85 vlineto
          hintmask 10111010
          -24 -128 rlineto
          endchar
        </CharString>
        <CharString name="twoinferior">
          -274 0 37 callgsubr
          63 -84 callsubr
        </CharString>
        <CharString name="twosuperior">
          -272 401 37 callgsubr
          464 -84 callsubr
        </CharString>
        <CharString name="twothirds">
          49 -10 -35 callgsubr
          78 63 133 133 hstemhm
          36 82 78 83 117 90 63 88 hintmask 1011011111100000
          102 -68 callsubr
          144 -491 -65 callgsubr
          hintmask 1010111111100000
          -86 callgsubr
          hintmask 0111011111100000
          -75 callsubr
          -514 225 -84 callsubr
        </CharString>
        <CharString name="u">
          -15 callsubr
          hstem
          91 127 211 127 vstem
          -106 callgsubr
          endchar
        </CharString>
        <CharString name="uacute">
          -15 callsubr
          119 157 hstem
          91 127 211 127 vstem
          -106 callgsubr
          61 367 -102 callgsubr
          endchar
        </CharString>
        <CharString name="ubreve">
          -15 callsubr
          79 54 callsubr
          hstemhm
          91 127 -53 53 211 60 -60 127 hintmask 11011001
          -106 callgsubr
          208 508 rmoveto
          hintmask 11101010
          -10 callgsubr
          hintmask 11010110
          -81 callgsubr
        </CharString>
        <CharString name="ucircumflex">
          -15 callsubr
          270 -20 hstem
          91 127 211 127 vstem
          -106 callgsubr
          165 518 -89 callgsubr
        </CharString>
        <CharString name="udieresis">
          -15 callsubr
          97 147 hstemhm
          91 127 -85 34 callgsubr
          -81 127 hintmask 11110010
          -106 callgsubr
          hintmask 11101100
          -85 418 -97 callsubr
        </CharString>
        <CharString name="udotbelow">
          -15 callsubr
          hstem
          91 127 211 127 vstem
          -106 callgsubr
          endchar
        </CharString>
        <CharString name="ugrave">
          -15 callsubr
          119 157 hstem
          91 127 211 127 vstem
          -106 callgsubr
          97 443 -76 callgsubr
        </CharString>
        <CharString name="uhungarumlaut">
          -15 callsubr
          119 157 hstem
          91 127 211 127 vstem
          -106 callgsubr
          -41 367 -102 callgsubr
          146 -76 -102 callgsubr
          endchar
        </CharString>
        <CharString name="umacron">
          -15 callsubr
          115 95 hstem
          91 127 211 127 vstem
          -106 callgsubr
          -37 363 rmoveto
          -14 callsubr
        </CharString>
        <CharString name="underscore">
          -8 -73 88 hstem
          60 -73 rmoveto
          494 88 -494 hlineto
          endchar
        </CharString>
        <CharString name="uni00A0">
          -386 endchar
        </CharString>
        <CharString name="uni015E">
          -9 33 callsubr
          56 59 -59 242 420 69 -11 -20 hstemhm
          61 88 -88 131 139 102 15 87 -87 120 hintmask 1110100110100000
          290 -53 callsubr
          26 44 rlineto
          119 10 91 68 122 vvcurveto
          98 -59 52 -168 76 vhcurveto
          -112 50 -37 18 70 vvcurveto
          70 36 37 77 97 46 -59 -125 vhcurveto
          hintmask 1110011011000000
          -20 callgsubr
          hintmask 1110101011000000
          38 -42 -54 18 -65 hhcurveto
          -133 -86 -74 -129 -117 71 -45 125 -52 hvcurveto
          107 -44 73 -31 -82 vvcurveto
          -67 -49 -31 -76 vhcurveto
          hintmask 1101101011000000
          -95 -60 49 134 -8 hvcurveto
          -91 -242 86 hlineto
          11 58 33 -39 39 -20 53 -7 rlinecurve
          -57 -75 -32 callgsubr
          -74 callgsubr
        </CharString>
        <CharString name="uni015F">
          -107 33 callsubr
          47 60 -60 216 134 209 -61 61 hstemhm
          36 132 -112 112 95 102 -44 137 -95 117 hintmask 1110101010000000
          222 -53 callsubr
          27 46 rlineto
          hintmask 1110010100100000
          110 13 79 57 90 vvcurveto
          105 -109 34 -107 31 vhcurveto
          -58 17 -38 22 53 vvcurveto
          47 31 27 62 46 32 -15 -25 18 vhcurveto
          hintmask 1110100101000000
          -86 callsubr
          hintmask 1110101000100000
          -36 callgsubr
          -57 -29 23 21 -13 vhcurveto
          18 11 18 25 24 vvcurveto
          hintmask 1101101010000000
          33 -33 19 -32 -43 -35 -33 -54 -73 65 -49 111 -7 vhcurveto
          -57 -74 -32 callgsubr
          -74 callgsubr
        </CharString>
        <CharString name="uni0162">
          52 33 callsubr
          77 -12 callgsubr
          -64 102 hintmask 11110010
          297 -53 callsubr
          32 53 rlineto
          137 58 hlineto
          hintmask 11101100
          -106 24 rlineto
          563 152 vlineto
          hintmask 11110100
          -1 callsubr
          -626 -225 64 hlineto
          hintmask 11101100
          31 150 rlineto
          153 -563 hlineto
          -106 -24 rlineto
          -58 128 vlineto
          -64 -83 -32 callgsubr
          hintmask 11110010
          -74 callgsubr
        </CharString>
        <CharString name="uni0163">
          -257 33 callsubr
          531 65 140 -20 hstemhm
          102 127 -16 102 hintmask 11110100
          172 -53 callsubr
          32 53 28 5 31 9 36 11 rlinecurve
          44 -70 vlineto
          -24 -9 4 8 -4 hvcurveto
          hintmask 11111000
          -4 10 -1 12 45 vvcurveto
          327 -55 callsubr
          -51 97 -361 vlineto
          -50 2 -21 6 -16 vhcurveto
          8 -23 17 -12 26 -2 -56 -73 55 callsubr
          hintmask 11110100
          -74 callgsubr
        </CharString>
        <CharString name="uni01C4">
          816 -22 callsubr
          -75 245 hstemhm
          -21 callsubr
          hintmask 10010110
          -104 callgsubr
          874 -645 rmoveto
          -319 hlineto
          415 584 rlineto
          61 -539 vlineto
          hintmask 10100110
          -227 82 vlineto
          hintmask 10010110
          -59 callgsubr
          hintmask 01100110
          238 -87 vlineto
          hintmask 10001110
          -18 652 -87 callsubr
        </CharString>
        <CharString name="uni01C5">
          715 0 75 -75 207 131 202 -71 71 105 75 60 -20 hstemhm
          -21 callsubr
          hintmask 10011111
          -104 callgsubr
          777 -649 -62 callsubr
          hintmask 10101111
          -202 87 vlineto
          hintmask 10011111
          -60 callsubr
          hintmask 01101111
          207 -87 vlineto
          6 573 -73 callgsubr
        </CharString>
        <CharString name="uni01C6">
          -93 callgsubr
          hintmask 0100100011100000
          6 573 -73 callgsubr
        </CharString>
        <CharString name="uni01C7">
          620 0 62 -62 59 callsubr
          -238 -21 731 20 callgsubr
          393 31 callgsubr
          hintmask 10001111
          -76 callsubr
          hintmask 00101111
          248 -85 vlineto
          hintmask 01001111
          -12 callsubr
          740 132 rmoveto
          hintmask 10001111
          -62 callgsubr
          vhcurveto
          hintmask 00011111
          -66 callsubr
          endchar
        </CharString>
        <CharString name="uni01C8">
          316 -190 167 23 59 callsubr
          292 -20 101 143 -44 20 callgsubr
          289 -18 callgsubr
          hintmask 1101011110000000
          -76 callsubr
          hintmask 1011101110000000
          248 -85 vlineto
          hintmask 1101101110000000
          -12 callsubr
          603 465 -98 callgsubr
          -43 26 -28 48 vhcurveto
          hintmask 1101101101000000
          -64 callsubr
          hvcurveto
          endchar
        </CharString>
        <CharString name="uni01C9">
          4 10 callgsubr
          16 -20 hstemhm
          22 -52 callsubr
          11 -18 callgsubr
          hintmask 1111001110000000
          99 76 rmoveto
          hintmask 1110110110000000
          -44 callgsubr
          hintmask 1111001110000000
          77 -19 rlineto
          452 -164 -98 callgsubr
          -43 26 -28 48 vhcurveto
          hintmask 1111010101000000
          -64 callsubr
          hvcurveto
          endchar
        </CharString>
        <CharString name="uni01CA">
          783 0 62 -52 -21 731 -20 50 callgsubr
          115 31 callgsubr
          hintmask 10111110
          -101 callsubr
          1038 -434 rmoveto
          -62 callgsubr
          vhcurveto
          hintmask 01111110
          -66 callsubr
          endchar
        </CharString>
        <CharString name="uni01CB">
          482 10 callgsubr
          -44 -20 50 callgsubr
          14 -18 callgsubr
          hintmask 1110111110000000
          -101 callsubr
          904 -101 -98 callgsubr
          hintmask 1111011101000000
          15 callsubr
        </CharString>
        <CharString name="uni01CC">
          352 -190 167 44 5 callsubr
          101 143 26 callsubr
          4 -18 callgsubr
          hintmask 1110111110000000
          108 -67 callsubr
          54 14 37 28 26 rrcurveto
          21 22 28 11 33 hhcurveto
          34 26 -12 -34 15 hvcurveto
          12 -27 4 -40 -80 13 callgsubr
          -11 64 -26 37 vhcurveto
          34 -25 -45 20 -53 hhcurveto
          -78 -72 -42 -68 -40 hvcurveto
          -4 hlineto
          hintmask 1101111110000000
          -52 callgsubr
          791 75 -98 callgsubr
          -43 26 -28 48 vhcurveto
          hintmask 1110111101000000
          -64 callsubr
          hvcurveto
          endchar
        </CharString>
        <CharString name="uni01F1">
          811 -22 callsubr
          hstemhm
          -21 callsubr
          hintmask 10011100
          -104 callgsubr
          869 -645 rmoveto
          -319 hlineto
          415 584 rlineto
          61 -539 vlineto
          hintmask 10101100
          -227 82 vlineto
          hintmask 10011100
          -59 callgsubr
          hintmask 01101100
          238 -87 vlineto
          endchar
        </CharString>
</ttFont>
